<svg version="1.1" xmlns="http://www.w3.org/2000/svg" style="display: block;" viewBox="0 0 2048 1152" width="1820" height="1024">
<path transform="translate(0,0)" fill="rgb(108,77,77)" d="M 0 0 L 52.9393 0 L 89.3646 0 L 158.644 0 L 208.602 0 L 258.768 0 L 296.297 0 L 364.937 0 L 382.246 0 L 457.613 0 L 479.868 0 L 522.778 0 L 554.806 0 L 602.324 0 L 633.502 0 L 1085.03 0 L 1165.58 0 L 1249.76 0 L 2046.25 0 C 2047.15 1.43062 2047.69 2.75081 2047.83 4.43777 C 2049.74 26.8223 2048.08 50.825 2048.06 73.3578 C 2048.05 84.355 2049.7 102.825 2047.72 112.979 C 2047.51 114.048 2047.17 114.992 2046.68 115.957 C 2047.66 119.241 2047.69 119.628 2046.64 122.885 C 2049.06 128.488 2049.32 247.531 2047.15 252.828 C 2046.94 253.336 2046.86 253.461 2046.62 253.899 C 2048.41 258.403 2049.02 265.771 2046.96 270.296 C 2046.84 270.547 2046.71 270.789 2046.59 271.035 C 2047.29 272.537 2047.78 273.977 2047.88 275.638 C 2048.67 289.036 2049.14 431.877 2047.16 436.876 C 2046.95 437.393 2046.87 437.525 2046.63 437.972 C 2049.85 445.206 2048.03 548.784 2048.03 564.359 L 2048.01 1009.09 C 2048.01 1023.89 2049.62 1143.92 2047.29 1150.13 C 2047.04 1150.8 2046.66 1151.42 2046.25 1152 L 1907.72 1152 L 1766.45 1152 L 1745.59 1152 L 1729.58 1152 L 1704.59 1152 L 1456.85 1152 L 1446.69 1152 L 1057.6 1152 L 390.326 1152 L 374.064 1152 L 224.365 1152 L 198.17 1152 L 84.1041 1152 L 0 1152 L 0 0 z"/>
<path transform="translate(0,0)" fill="rgb(180,163,155)" d="M 566.507 430.432 L 569.254 430.391 C 567.507 432.902 562.305 434.661 559.456 436.077 C 558.041 436.583 557.632 436.304 556.196 436.026 C 556.158 434.899 556.422 434.356 556.825 433.323 C 559.34 430.541 563.011 430.734 566.507 430.432 z"/>
<path transform="translate(0,0)" fill="rgb(108,73,75)" d="M 198.17 1152 C 198.521 1151.42 198.672 1151.12 199.156 1150.58 C 202.344 1147.01 219.008 1148.91 223.901 1148.64 L 224.593 1148.6 L 224.365 1152 L 198.17 1152 z"/>
<path transform="translate(0,0)" fill="rgb(108,73,75)" d="M 823.2 1040.23 L 823.543 1039.45 L 824.343 1039.47 C 825.466 1042.08 826.426 1044.59 828.249 1046.81 L 828.959 1046.07 C 828.463 1045.06 827.997 1044.02 827.477 1043.02 C 823.486 1035.32 821.722 1023.12 821.951 1014.38 L 822.908 1014.16 L 823.92 1017.97 C 824.565 1029.89 826.678 1041.25 834.637 1050.64 L 829.73 1052.43 C 826.96 1048.71 824.261 1044.79 823.2 1040.23 z"/>
<path transform="translate(0,0)" fill="rgb(237,231,213)" d="M 851.018 291.361 C 853.104 290.856 854.776 290.862 856.911 291.007 L 856.752 292.399 C 847.678 299.156 824.794 296.828 814.272 295.296 C 812.807 294.496 811.771 293.864 810.674 292.554 C 816.516 291.876 823.285 293.528 829.246 293.675 C 836.373 293.851 843.958 292.349 851.018 291.361 z"/>
<path transform="translate(0,0)" fill="rgb(237,231,213)" d="M 831.124 545.622 L 833.392 546.443 L 832.361 548.716 L 833.975 547.018 C 834.829 548.787 834.633 549.088 834.319 550.957 C 828.418 555.833 815.334 555.634 807.755 556.368 L 805.434 555.528 L 804.408 552.994 C 804.925 552.112 805.479 551.227 806.201 550.494 C 810.998 545.628 824.749 546.031 831.124 545.622 z"/>
<path transform="translate(0,0)" fill="rgb(237,231,213)" d="M 1720.4 799.498 C 1721.16 799.686 1721.92 799.702 1722.5 800.256 C 1727.98 805.469 1740.67 837.637 1740.98 845.032 L 1738.24 847.991 L 1737.82 849.306 L 1736.77 849.374 C 1733.77 834.533 1719.13 812.823 1720.4 799.498 z"/>
<path transform="translate(0,0)" fill="rgb(237,231,213)" d="M 1060.44 233.982 C 1064.93 239.207 1068.95 249.059 1070.79 255.698 C 1075.17 271.44 1072.78 283.327 1064.99 297.204 C 1065.6 290.838 1068.21 284.797 1069.26 278.5 C 1071.65 264.152 1062.87 255.487 1058.31 243.105 C 1056.99 239.519 1058.94 237.15 1060.44 233.982 z"/>
<path transform="translate(0,0)" fill="rgb(237,231,213)" d="M 940.974 933.225 L 942.367 933.389 C 943.715 935.646 943.95 936.212 944.044 938.826 C 943.649 939.376 943.24 939.886 942.72 940.329 C 934.879 947.007 911.102 945.177 901.515 944.804 L 897.914 943.525 C 902.896 942.641 907.545 940.75 912.453 939.63 C 921.958 937.462 931.472 935.59 940.974 933.225 z"/>
<path transform="translate(0,0)" fill="rgb(237,231,213)" d="M 703.052 541.675 C 717.6 543.462 737.052 548.451 751.407 545.362 C 754.489 548.338 756.513 551.867 759.358 554.971 C 747.111 555.349 719.949 553.535 708.696 549.863 C 705.99 548.98 704.289 544.091 703.052 541.675 z"/>
<path transform="translate(0,0)" fill="rgb(237,231,213)" d="M 1229.67 699.5 C 1231.62 699.699 1233.19 699.778 1234.89 700.816 C 1235.47 702.158 1235.97 703.552 1235.76 705.04 C 1235.32 708.067 1232.1 712.284 1229.76 714.166 C 1222.82 716.187 1214.94 716.56 1207.75 716.954 C 1206.66 717.074 1205.83 717.198 1204.77 716.846 C 1202.8 716.198 1202.87 715.947 1201.97 714.039 C 1202.25 710.773 1203.09 708.153 1205.11 705.544 C 1209.64 699.714 1222.52 700.662 1229.67 699.5 z"/>
<path transform="translate(0,0)" fill="rgb(103,67,67)" d="M 1227.88 703.496 L 1230.08 703.947 L 1230.4 705.693 C 1229.6 706.632 1228.77 707.552 1227.98 708.493 C 1227.82 708.68 1227.69 708.894 1227.51 709.062 C 1224.11 712.281 1213.79 712.318 1209.23 712.673 L 1207.23 712.292 L 1207.1 710.001 C 1211.88 703.745 1219.98 705.832 1227.05 703.746 L 1227.88 703.496 z"/>
<path transform="translate(0,0)" fill="rgb(237,231,213)" d="M 1434.83 1144.99 C 1422.02 1135.16 1370.09 1122.68 1353.87 1119.99 C 1345.39 1118.58 1336.62 1118.71 1328.35 1117.31 C 1341.74 1112.52 1387.07 1122.9 1401 1127.29 C 1408.23 1129.56 1435.91 1137.04 1438.96 1142.9 C 1444.61 1142.62 1451.82 1147.14 1456.27 1150.36 L 1456.85 1152 L 1446.69 1152 C 1445.14 1148.69 1438.17 1146.44 1434.83 1144.99 z"/>
<path transform="translate(0,0)" fill="rgb(180,163,155)" d="M 1002.57 923.503 C 1022.08 928.974 1043.35 930.075 1063.49 931.265 C 1058.79 932.57 1053.97 933.601 1049.23 934.752 C 1034.42 936.334 1019.38 942.333 1004.48 944.635 L 1005.06 943.321 L 1003.45 944.527 C 1001.6 938.649 1002.58 929.764 1002.57 923.503 z"/>
<path transform="translate(0,0)" fill="rgb(237,231,213)" d="M 831.917 263.864 C 838.745 266.478 844.434 272.526 851.462 275.167 C 889.442 289.442 923.212 289.962 963.275 286.859 C 971.841 286.195 980.6 283.189 989.014 283.257 C 989.307 283.26 989.599 283.268 989.892 283.274 C 970.97 292.94 932.651 294.887 911.321 293.838 C 883.489 292.47 851.382 285.363 831.917 263.864 z"/>
<path transform="translate(0,0)" fill="rgb(237,231,213)" d="M 985.649 374.206 C 991.638 372.676 1010.73 364.775 1015.84 367.561 C 1016.75 370.204 1016.29 371.598 1015.05 374.054 C 1012.4 379.305 1008.38 384.214 1004.76 388.838 C 991.403 389.839 982.869 394.062 971.575 400.935 C 972.837 395.657 972.605 390.257 975.085 385.272 C 975.173 385.096 975.265 384.921 975.353 384.744 C 977.536 380.319 981.908 377.294 985.649 374.206 z"/>
<path transform="translate(0,0)" fill="rgb(237,231,213)" d="M 1265.34 669.493 C 1268.05 669.091 1270.13 668.717 1272.83 669.51 L 1273.53 670.85 C 1265.59 674.338 1238.89 675.374 1228.22 676.804 C 1222.8 677.528 1217.59 679.092 1212.15 679.619 C 1204.92 680.319 1195.63 679.804 1188.77 682.005 C 1185.73 682.982 1183.89 685.329 1182.05 687.869 C 1174.88 697.787 1169.51 709.471 1163.42 720.097 C 1151.76 740.443 1139.58 760.74 1128.57 781.434 C 1127.44 782.784 1127.31 783.142 1125.56 783.628 C 1125.5 783.354 1125.43 783.082 1125.39 782.806 C 1124.9 779.746 1171.63 695.915 1177.17 687.858 C 1179.36 684.665 1181.96 681.229 1185.55 679.537 C 1196.26 674.49 1248.19 672.825 1264.55 669.649 L 1265.34 669.493 z"/>
<path transform="translate(0,0)" fill="rgb(237,231,213)" d="M 868.983 608.099 C 869.971 607.91 870.971 608.006 871.973 608.033 L 873.699 610.452 C 873.755 611.907 874.092 612.672 873.055 613.807 C 869.465 617.737 861.052 619.446 855.923 620.724 C 818.614 630.019 784.618 627.216 747.008 628.113 C 746.009 625.928 745.24 623.612 744.4 621.361 C 751.896 618.974 762.883 620.94 770.858 620.804 C 805.178 620.22 836.061 619.637 868.983 608.099 z"/>
<path transform="translate(0,0)" fill="rgb(237,231,213)" d="M 865.643 241.853 C 873.786 244.412 883.699 254.983 891.865 259.307 C 928.882 278.91 985.511 275.02 1024.11 262.836 L 1024.75 263.838 L 1023.42 266.225 C 1002.98 279.368 975.917 281.357 952.253 280.667 C 914.678 279.572 891.235 268.972 865.643 241.853 z"/>
<path transform="translate(0,0)" fill="rgb(237,231,213)" d="M 903.617 692.364 L 905.984 692.356 C 908.242 693.892 908.252 694.036 909.052 696.662 C 908.711 697.258 908.358 697.8 907.872 698.296 C 896.963 709.419 793.585 713.254 775.021 712.917 L 773.475 712.236 C 772.58 709.68 772.418 709.473 773.259 706.93 C 779.942 702.334 800.393 704.393 808.682 704.235 C 840.496 703.628 872.512 698.848 903.617 692.364 z"/>
<path transform="translate(0,0)" fill="rgb(237,231,213)" d="M 1194.7 743.503 C 1210.66 745.851 1233.52 742.873 1247.9 750.183 C 1250.22 751.361 1252.99 753.474 1253.59 756.151 C 1254.27 759.191 1251.5 764.556 1249.69 766.971 C 1247.83 769.465 1245.03 769.342 1242.23 769.741 C 1230.31 767.28 1192.21 760.544 1185.27 751.661 C 1184.66 748.742 1184.76 748.367 1185.88 745.589 C 1188.82 743.593 1191.19 743.825 1194.7 743.503 z"/>
<path transform="translate(0,0)" fill="rgb(237,231,213)" d="M 888.811 1058.59 C 890.759 1058.26 895.005 1057.09 896.694 1058.36 C 897.574 1059.02 899.045 1062.4 899.735 1063.48 C 905.82 1073.03 912.388 1076.13 922.815 1079.37 C 913.891 1082.27 905.408 1085.3 896.752 1088.98 L 883.297 1087.51 C 873.895 1086.94 858.175 1083.81 847.885 1082.54 C 859.072 1075.55 869.389 1067.43 879.73 1059.27 C 882.77 1059.21 885.786 1058.88 888.811 1058.59 z"/>
<path transform="translate(0,0)" fill="rgb(237,231,213)" d="M 935.388 858.22 C 937.766 859.776 937.862 860.145 938.936 862.809 L 937.259 865.28 C 913.977 877.975 821.432 885.946 791.681 886.912 C 790.287 884.827 790.584 882.454 790.567 880.034 C 791.463 878.821 791.275 878.487 792.848 878.255 C 806.491 876.25 820.687 877.761 834.471 876.4 C 868.868 873.002 901.866 866.445 935.388 858.22 z"/>
<path transform="translate(0,0)" fill="rgb(237,231,213)" d="M 919.244 781.252 C 921.762 780.879 922.569 780.456 924.897 781.611 C 925.628 784.096 925.603 784.519 924.913 787.021 C 914.949 796.788 814.595 803.682 795.25 803.773 C 791.444 803.821 789.204 804.442 785.984 802.312 C 784.897 800.102 784.591 798.951 785.134 796.526 C 785.662 795.988 786.054 795.269 786.719 794.913 C 788.55 793.932 824.423 793.733 829.955 793.481 C 859.774 792.124 890.105 787.581 919.244 781.252 z"/>
<path transform="translate(0,0)" fill="rgb(237,231,213)" d="M 554.806 0 L 602.324 0 C 579.756 18.9132 554.092 36.5355 534.781 58.9133 A 723.114 723.114 0 0 1 554.806 0 z"/>
<path transform="translate(0,0)" fill="rgb(237,231,213)" d="M 1806.03 913.983 C 1806.35 913.794 1806.67 913.615 1806.98 913.415 C 1810.17 911.37 1823.61 890.021 1826.74 885.621 A 2434.96 2434.96 0 0 1 1906.04 780.214 C 1913.22 771.279 1921.34 759.032 1930.47 752.142 L 1931.41 753.363 L 1931.01 755.203 L 1930.36 754.345 L 1931.08 754.988 C 1925.15 767.607 1905.93 787.897 1896.53 799.934 A 2154.22 2154.22 0 0 0 1837.92 877.767 C 1832.96 884.621 1815.05 913.868 1809.78 916.875 C 1809.84 917.544 1809.89 917.62 1809.73 918.385 C 1809.27 920.676 1763.99 998.489 1759.81 1004.17 C 1757.54 1007.25 1754.91 1009.14 1751.58 1010.95 C 1760.1 1002.95 1767.71 982.497 1773.3 971.635 C 1781.18 956.304 1801.29 927.35 1806.03 913.983 z"/>
<path transform="translate(0,0)" fill="rgb(237,231,213)" d="M 1241.16 1018.12 L 1243.52 1019.45 C 1243.01 1022.79 1241.42 1026.93 1238.67 1029.09 C 1234.12 1032.66 1225.23 1030.9 1219.69 1033.28 C 1211.85 1036.66 1197.4 1034.33 1191.56 1040.06 C 1192.42 1041.05 1192.33 1041.12 1193.64 1041.2 C 1203.87 1041.78 1225.21 1035.65 1236.16 1033.53 C 1237.32 1037.53 1234.45 1045.71 1232.37 1049.33 C 1228.64 1055.86 1220.68 1058.98 1213.77 1060.61 C 1203.23 1063.11 1191 1065.03 1180.3 1062.65 L 1179.69 1061.53 C 1187.67 1050.4 1225.58 1051.28 1230.13 1045.4 C 1219.96 1044.7 1189.75 1054.4 1183.38 1050.35 C 1183.1 1049.07 1182.77 1048.87 1183.47 1047.67 C 1184.9 1045.21 1188.21 1044.49 1189.46 1041.88 C 1192.08 1036.42 1186.3 1030.17 1195.4 1028.7 C 1195.58 1028.67 1195.76 1028.67 1195.94 1028.66 C 1204.3 1026.73 1236.55 1022.74 1241.16 1018.12 z"/>
<path transform="translate(0,0)" fill="rgb(237,231,213)" d="M 1181.63 1009.11 C 1182.36 1007.57 1181.83 1005.13 1182.24 1003.29 C 1190.71 999.997 1200.42 998.968 1209.34 997.21 A 1452.9 1452.9 0 0 0 1256.48 987.463 C 1256.51 987.816 1256.58 988.387 1256.54 988.77 C 1256.19 992.101 1252.87 998.793 1250.37 1000.89 L 1249.96 1002.68 L 1246.44 1003.87 C 1248.26 1005.92 1248.74 1006.1 1248.54 1008.98 C 1248.33 1011.88 1246.48 1013.71 1244.39 1015.5 L 1241.09 1016.05 L 1241.16 1018.12 C 1236.55 1022.74 1204.3 1026.73 1195.94 1028.66 C 1194.51 1027.48 1192.57 1026.92 1190.84 1026.24 L 1189.34 1026.81 C 1188.2 1023.99 1186.33 1021.05 1186.82 1018.02 C 1189.17 1017.15 1191.44 1016.21 1193.7 1015.15 C 1190.86 1014.93 1186.24 1014.75 1183.83 1013.18 C 1182.11 1012.06 1182.13 1010.93 1181.63 1009.11 z"/>
<path transform="translate(0,0)" fill="rgb(103,67,67)" d="M 1181.63 1009.11 C 1184.54 1011.18 1186.06 1012.52 1189.88 1011.81 C 1192.13 1011.39 1194.36 1010.81 1196.58 1010.24 L 1199.72 1011.69 L 1199.8 1013.91 C 1197.81 1015.2 1196.01 1015.09 1193.7 1015.15 C 1190.86 1014.93 1186.24 1014.75 1183.83 1013.18 C 1182.11 1012.06 1182.13 1010.93 1181.63 1009.11 z"/>
<path transform="translate(0,0)" fill="rgb(108,73,75)" d="M 1234.99 1002.37 C 1240.17 1001.53 1245.1 1000.93 1250.37 1000.89 L 1249.96 1002.68 L 1246.44 1003.87 C 1242.85 1005.16 1239.53 1005.62 1235.75 1005.98 C 1226.46 1009.93 1209.82 1013.19 1199.8 1013.91 L 1199.72 1011.69 L 1196.58 1010.24 L 1234.99 1002.37 z"/>
<path transform="translate(0,0)" fill="rgb(237,231,213)" d="M 1246.44 1003.87 C 1248.26 1005.92 1248.74 1006.1 1248.54 1008.98 C 1248.33 1011.88 1246.48 1013.71 1244.39 1015.5 L 1241.09 1016.05 L 1241.16 1018.12 C 1236.55 1022.74 1204.3 1026.73 1195.94 1028.66 C 1194.51 1027.48 1192.57 1026.92 1190.84 1026.24 L 1189.34 1026.81 C 1188.2 1023.99 1186.33 1021.05 1186.82 1018.02 C 1189.17 1017.15 1191.44 1016.21 1193.7 1015.15 C 1196.01 1015.09 1197.81 1015.2 1199.8 1013.91 C 1209.82 1013.19 1226.46 1009.93 1235.75 1005.98 C 1239.53 1005.62 1242.85 1005.16 1246.44 1003.87 z"/>
<path transform="translate(0,0)" fill="rgb(108,73,75)" d="M 1190.84 1026.24 C 1206.14 1020.51 1224.88 1018.72 1241.09 1016.05 L 1241.16 1018.12 C 1236.55 1022.74 1204.3 1026.73 1195.94 1028.66 C 1194.51 1027.48 1192.57 1026.92 1190.84 1026.24 z"/>
<path transform="translate(0,0)" fill="rgb(237,231,213)" d="M 1662.58 945.969 C 1662.6 945.741 1662.59 945.511 1662.62 945.286 C 1663.04 942.631 1664.66 940.229 1666.8 938.801 C 1668.8 940.51 1670.62 941.603 1671.04 944.441 C 1671.16 945.26 1670.94 946.224 1670.81 947.02 C 1676.54 950.791 1683.59 970.852 1685.19 977.898 C 1685.46 979.053 1685.25 979.814 1684.9 980.912 C 1689.88 985.305 1697.29 1015.85 1697.56 1023.39 C 1697.62 1025.12 1697.46 1026.41 1696.69 1027.96 L 1697.26 1031.74 C 1696.86 1029 1696.7 1026.26 1695.17 1023.88 L 1696.34 1029.28 L 1695.39 1030.15 L 1696.47 1030.54 L 1696.4 1035.52 L 1694.2 1036.77 C 1697.92 1043.68 1696.97 1058.16 1695.85 1065.79 C 1694.48 1061.94 1688.57 1059.67 1687.16 1055.53 C 1684.57 1047.95 1684.09 1038.88 1682.27 1031 C 1679.25 1017.95 1666 970.288 1657.78 961.735 C 1658.79 960.648 1659.37 959.542 1659.97 958.19 C 1661.48 954.794 1663.98 949.598 1662.58 945.969 z"/>
<path transform="translate(0,0)" fill="rgb(103,67,67)" d="M 1662.58 945.969 C 1662.6 945.741 1662.59 945.511 1662.62 945.286 C 1663.04 942.631 1664.66 940.229 1666.8 938.801 C 1668.8 940.51 1670.62 941.603 1671.04 944.441 C 1671.16 945.26 1670.94 946.224 1670.81 947.02 C 1676.54 950.791 1683.59 970.852 1685.19 977.898 C 1685.46 979.053 1685.25 979.814 1684.9 980.912 C 1689.88 985.305 1697.29 1015.85 1697.56 1023.39 C 1697.62 1025.12 1697.46 1026.41 1696.69 1027.96 L 1697.26 1031.74 C 1696.86 1029 1696.7 1026.26 1695.17 1023.88 L 1696.34 1029.28 L 1695.39 1030.15 L 1696.47 1030.54 L 1696.4 1035.52 L 1694.2 1036.77 C 1696.42 1027.38 1687.09 991.966 1681.84 983.156 C 1681.81 977.612 1671.52 953.986 1667.89 949.07 L 1666.9 945.434 L 1665.16 944.464 L 1662.58 945.969 z"/>
<path transform="translate(0,0)" fill="rgb(237,231,213)" d="M 1666.8 938.801 C 1668.48 927.286 1683.32 906.15 1681.16 896.457 C 1681.12 896.289 1681.09 896.119 1681.06 895.95 C 1693.75 906.694 1700.74 958.936 1702.14 975.908 C 1702.72 982.915 1702.86 1025.38 1700.81 1030.01 L 1699.71 1030.71 C 1698.43 1030.02 1697.63 1029.03 1696.69 1027.96 C 1697.46 1026.41 1697.62 1025.12 1697.56 1023.39 C 1697.29 1015.85 1689.88 985.305 1684.9 980.912 C 1685.25 979.814 1685.46 979.053 1685.19 977.898 C 1683.59 970.852 1676.54 950.791 1670.81 947.02 C 1670.94 946.224 1671.16 945.26 1671.04 944.441 C 1670.62 941.603 1668.8 940.51 1666.8 938.801 z"/>
<path transform="translate(0,0)" fill="rgb(237,231,213)" d="M 595.494 167.561 C 604.732 151.964 614.95 138.726 633.264 133.359 C 650.753 128.234 662.557 132.589 677.555 140.894 C 680.054 140.776 681.057 139.33 682.886 137.758 L 685.381 140.433 C 673.809 153.363 665.629 166.899 659.395 183.147 C 656.569 190.511 654.401 207.47 649.829 212.67 L 649.163 211.685 C 650.984 186.834 660.45 165.211 676.183 145.906 C 656.745 139.736 639.659 139.664 623.652 154.059 C 617.875 159.254 612.725 165.218 606.292 169.636 C 600.115 173.879 592.651 175.167 586.031 178.478 C 570.387 186.302 557.181 204.073 553.967 221.428 C 552.595 228.84 553.105 236.348 550.747 243.601 L 549.511 243.431 C 549.444 243.236 549.367 243.044 549.309 242.845 C 544.64 226.979 547.12 207.134 555.528 192.897 C 564.432 177.818 579.495 171.641 595.494 167.561 z"/>
<path transform="translate(0,0)" fill="rgb(237,231,213)" d="M 818.472 90.341 C 833.373 92.8871 848.414 93.5895 863.384 96.7203 C 896.7 103.688 929.534 119.395 957.131 139.134 C 967.71 146.702 977.755 155.78 988.856 162.5 C 993.997 165.612 1000.48 167.357 1006.14 169.39 C 1022.23 175.162 1037.5 183.647 1047 198.434 C 1052.38 206.816 1054.84 216.984 1052.57 226.803 C 1050.46 235.911 1044.2 243.623 1036.29 248.43 C 1023.02 256.5 1005.27 256.006 990.585 252.429 C 974.774 248.578 960.186 239.103 951.631 225.076 C 964.758 237.621 978.491 245.698 996.902 247.766 C 1001.5 248.282 1007.42 247.594 1011.75 248.859 C 1012.05 248.948 1012.35 249.047 1012.65 249.141 C 1023.23 247.735 1036.97 246.392 1043.98 237.253 C 1048 232.018 1048.57 225.278 1047.58 218.943 C 1039.67 168.237 951.801 161.012 912.389 153.774 C 907.342 152.847 896.018 151.773 892.048 148.878 C 896.675 145.461 945.847 153.874 956.801 153.854 C 956.713 153.706 956.63 153.555 956.536 153.411 C 953.91 149.401 946.844 145.841 942.788 143.15 C 915.713 125.183 886.658 108.675 854.94 100.448 C 846.514 98.2617 837.634 95.7698 828.998 94.6953 C 824.251 94.1048 818.683 95.0719 814.155 93.9265 C 808.003 92.3705 803.02 92.7232 796.797 93.3746 C 803.843 91.3181 811.192 90.9714 818.472 90.341 z"/>
<path transform="translate(0,0)" fill="rgb(180,163,155)" d="M 1102.24 938.945 C 1115.73 938.594 1145.8 944.535 1160.74 946.527 A 4854.65 4854.65 0 0 1 1231.33 956.047 C 1242.02 957.495 1255.04 957.885 1265.12 961.223 C 1265.21 961.625 1265.37 962.253 1265.38 962.699 C 1265.39 965.7 1263.29 971.022 1261.13 973.071 C 1257.31 974.52 1253.55 975.016 1249.51 975.539 C 1224.83 981.457 1199.68 986.639 1174.72 991.258 C 1174.67 990.734 1174.7 990.667 1174.49 990.092 C 1173.35 986.921 1169.79 983.343 1167.64 980.762 C 1149.71 959.28 1125.44 952.368 1102.24 938.945 z"/>
<path transform="translate(0,0)" fill="rgb(237,231,213)" d="M 89.3646 0 L 158.644 0 C 161.181 15.9249 162.11 32.2521 163.567 48.3117 A 3773.03 3773.03 0 0 0 170.447 117.331 C 148.86 75.1409 115.667 39.188 89.3646 0 z"/>
<path transform="translate(0,0)" fill="rgb(237,231,213)" d="M 398.133 837.775 C 402.17 846.102 404.015 856.42 406.684 865.313 A 4382.26 4382.26 0 0 0 422.262 914.58 C 432.292 945.661 445.837 975.965 459.676 1005.51 C 455.786 1006.62 451.798 1007.49 447.867 1008.45 C 445.034 1009.73 441.092 1010.87 437.992 1011.07 C 433.265 1011.36 411.378 993.983 407.177 989.856 C 405.405 988.115 403.154 986.061 402.756 983.552 C 400.471 969.146 402.079 940.669 401.659 924.509 C 400.91 895.64 398.255 866.612 398.133 837.775 z"/>
<path transform="translate(0,0)" fill="rgb(237,231,213)" d="M 382.246 0 L 457.613 0 C 452.383 9.42126 397.238 107.227 395.485 108.787 C 394.957 109.257 394.249 109.473 393.63 109.816 C 390.344 84.6776 388.112 59.3685 385.66 34.136 C 384.59 23.1196 384.346 11.5276 382.373 0.663699 L 382.246 0 z"/>
<path transform="translate(0,0)" fill="rgb(237,231,213)" d="M 848.22 544.352 C 863.449 550.2 879.881 557.595 896.54 556.308 C 903.333 555.783 907.155 550.634 913.464 549.541 C 915.636 550.933 916.549 552.837 917.76 555.052 C 935.059 586.682 919.532 614.728 910.676 645.687 C 908.203 654.583 907.015 663.818 905.6 672.931 C 902.731 661.894 897.503 651.02 893.042 640.528 C 886.197 624.425 879.557 608.054 871.876 592.335 C 864.047 576.315 855.168 560.788 848.22 544.352 z"/>
<path transform="translate(0,0)" fill="rgb(180,163,155)" d="M 347.238 938.715 C 355.174 945.031 365.487 961.638 372.34 970.288 C 387.35 989.235 404.607 1002.4 424.482 1015.79 C 404.759 1023.87 387.199 1032.77 369.568 1044.9 C 356.595 1054.23 344.796 1064.35 333.259 1075.41 C 342.53 1029.79 348.777 985.475 347.238 938.715 z"/>
<path transform="translate(0,0)" fill="rgb(237,231,213)" d="M 1591.9 1055.71 C 1603.54 1054.7 1629.61 1052.41 1637.29 1043.44 C 1639.15 1041.26 1638.6 1033.83 1639.83 1033.6 C 1644.9 1032.66 1654.84 1042.05 1658.58 1045.19 C 1687.28 1069.29 1708.54 1096.51 1723.37 1130.93 C 1725.48 1135.82 1729.97 1144.85 1729.92 1150.21 C 1729.91 1151.15 1729.83 1151.23 1729.58 1152 L 1704.59 1152 C 1705.58 1147.48 1703.89 1144.91 1701.46 1141.12 C 1680.69 1108.57 1658.05 1088.83 1624.12 1070.27 C 1613.84 1064.64 1603.23 1058.96 1591.9 1055.71 z"/>
<path transform="translate(0,0)" fill="rgb(237,231,213)" d="M 1110.83 787.144 C 1140.82 785.888 1207.41 803.908 1230.65 790.369 L 1231.19 790.05 L 1232.31 790.558 C 1235.22 794.406 1240.66 803.237 1240.34 808.041 C 1240.24 808.365 1240.16 808.692 1240.05 809.011 C 1238.15 814.635 1229.68 820.9 1224.64 823.616 C 1226.31 826.448 1226.47 833.313 1225.75 836.644 C 1225.05 839.851 1222.93 842.338 1220.24 844.101 C 1198.54 858.332 1150.39 846.124 1126.21 841.019 C 1117.9 838.785 1109.9 836.18 1101.85 833.162 C 1100.66 831.61 1099.34 829.999 1098.4 828.29 C 1097.04 825.834 1097.13 824.541 1097.75 821.978 C 1099.74 820.423 1101.68 820.17 1104.14 820.349 C 1111.48 820.884 1119.14 822.697 1126.51 823.657 C 1144.75 826.035 1163.5 828.863 1181.93 828.197 C 1186.22 828.042 1190.33 826.992 1194.61 826.684 C 1200.86 826.234 1208.31 826.488 1214.32 824.686 C 1216.5 824.034 1217.68 823.539 1218.7 821.518 C 1214.2 816.804 1199.33 819.522 1192.83 818.561 C 1187.45 817.766 1181.65 815.91 1176.19 814.872 C 1162.21 812.215 1114.75 804.474 1107.42 792.607 C 1106.31 790.796 1106.45 790.523 1107.02 788.508 L 1110.83 787.144 z"/>
<path transform="translate(0,0)" fill="rgb(237,231,213)" d="M 1219.03 1113.81 L 1216.41 1114.61 L 1216.25 1113.57 L 1214.94 1113.15 L 1213.94 1114.24 C 1192.83 1109.15 1170.21 1107.56 1148.71 1103.97 L 973.056 1075.84 C 958.524 1073.54 929.652 1072.69 917.974 1067.18 C 914.048 1065.32 911.099 1062.69 909.586 1058.56 C 909.956 1055.7 910.001 1055.63 912.117 1053.66 C 919.848 1051.05 929.072 1053.84 936.889 1055.15 C 939.288 1053.26 942.145 1053.17 945.081 1052.76 A 1785.42 1785.42 0 0 1 978.166 1057.66 A 818.906 818.906 0 0 1 1000.66 1061.06 L 1000.75 1065.69 L 1008.44 1066.6 C 1015.23 1067.61 1022.45 1069.17 1029.3 1069.23 C 1030.89 1068.72 1032.48 1069.01 1034.13 1069.12 L 1036.23 1066.26 A 777.069 777.069 0 0 1 1063.27 1070.35 L 1065.39 1075.76 C 1078 1076.85 1090.54 1079.76 1103.05 1081.71 C 1111.71 1083.05 1121 1083.51 1129.51 1085.48 C 1131.07 1084.29 1133.1 1083.7 1134.93 1083.01 L 1135.56 1081.31 C 1163.09 1085.86 1190.81 1089.64 1218.25 1094.66 C 1220.41 1093.83 1222.95 1093.14 1224.86 1091.87 L 1227.66 1091.77 L 1227.75 1092.78 C 1215.3 1099.81 1208.88 1092.06 1196.71 1093.28 C 1203.5 1095.04 1211.34 1097.55 1218.38 1097.35 C 1219.58 1102.16 1219.47 1108.24 1221.88 1112.47 L 1219.03 1113.81 z"/>
<path transform="translate(0,0)" fill="rgb(108,73,75)" d="M 1036.23 1066.26 A 777.069 777.069 0 0 1 1063.27 1070.35 L 1065.39 1075.76 C 1053.64 1072.79 1041.19 1071.96 1029.3 1069.23 C 1030.89 1068.72 1032.48 1069.01 1034.13 1069.12 L 1036.23 1066.26 z"/>
<path transform="translate(0,0)" fill="rgb(108,73,75)" d="M 945.081 1052.76 A 1785.42 1785.42 0 0 1 978.166 1057.66 A 818.906 818.906 0 0 1 1000.66 1061.06 L 1000.75 1065.69 A 961.765 961.765 0 0 0 976.216 1061.58 C 963.33 1060.67 949.7 1057.24 936.889 1055.15 C 939.288 1053.26 942.145 1053.17 945.081 1052.76 z"/>
<path transform="translate(0,0)" fill="rgb(108,73,75)" d="M 1135.56 1081.31 C 1163.09 1085.86 1190.81 1089.64 1218.25 1094.66 C 1220.41 1093.83 1222.95 1093.14 1224.86 1091.87 L 1227.66 1091.77 L 1227.75 1092.78 C 1215.3 1099.81 1208.88 1092.06 1196.71 1093.28 C 1203.5 1095.04 1211.34 1097.55 1218.38 1097.35 C 1219.58 1102.16 1219.47 1108.24 1221.88 1112.47 L 1219.03 1113.81 C 1219.51 1110.11 1218.62 1101.9 1216.84 1098.64 C 1187.69 1094.38 1158.78 1088.87 1129.51 1085.48 C 1131.07 1084.29 1133.1 1083.7 1134.93 1083.01 L 1135.56 1081.31 z"/>
<path transform="translate(0,0)" fill="rgb(237,231,213)" d="M 1610.98 1024.5 C 1611.78 1024.4 1612.57 1024.32 1613.37 1024.31 C 1619.13 1024.24 1626.83 1027.88 1630.63 1032.15 C 1631.73 1033.38 1631.69 1033.72 1631.59 1035.25 C 1629.71 1037.22 1627.51 1037.79 1624.94 1038.36 C 1594.52 1045.04 1563.13 1049.23 1532.5 1055.09 L 1394.96 1081.98 A 8512.92 8512.92 0 0 0 1243.19 1111.82 C 1238.62 1113.17 1233.73 1113.78 1229.03 1114.6 C 1230.18 1110.3 1229.21 1102.62 1227.06 1098.76 C 1257.22 1096.01 1288 1088.32 1317.68 1082.23 C 1354.1 1074.75 1390.75 1067.89 1427.27 1060.94 A 8844.44 8844.44 0 0 0 1553.98 1036.45 C 1571.58 1033.02 1594.44 1030.85 1610.98 1024.5 z"/>
<path transform="translate(0,0)" fill="rgb(237,231,213)" d="M 1056.28 888.924 C 1045.41 878.01 1037.72 864.218 1037.89 848.445 C 1038.09 829.193 1047.5 810.669 1061.28 797.475 C 1074.34 784.959 1088.98 779.107 1107.1 779.65 C 1109.11 779.71 1110.38 779.947 1112.1 781.027 L 1112.72 782.346 C 1107.03 785.029 1100.28 783.265 1096.06 789.181 L 1096.71 790.69 C 1098.49 790.553 1099.66 790.156 1101.27 789.398 C 1104.31 791.058 1108.16 799.403 1111.44 802.445 C 1108.27 805.929 1105.26 809.381 1102.52 813.215 C 1097.61 814.482 1094.34 815.204 1091.57 819.826 C 1089.5 823.3 1088.37 827.325 1086.6 830.975 C 1081.57 841.394 1075.51 853.489 1069.07 863.05 C 1073.17 868.465 1076.26 874.428 1083.54 875.43 C 1100.54 877.769 1158.56 875.256 1171.49 865.299 C 1172.05 864.863 1172.23 864.643 1172.76 864.101 C 1171.35 870.406 1165.35 874.226 1160.17 877.484 C 1138.96 890.815 1114.54 900.863 1089.43 902.601 C 1076.77 900.374 1066.79 896.156 1056.28 888.924 z"/>
<path transform="translate(0,0)" fill="rgb(237,231,213)" d="M 921.615 1050.02 C 942.34 1046.75 963.248 1046.52 983.724 1041.4 C 1004.05 1036.32 1024.42 1025.03 1045.12 1022.79 C 1066.08 1029.98 1082.44 1047.08 1099.79 1060.33 L 1100.18 1058.77 L 1105.56 1062.41 L 1105.92 1064.44 C 1105.64 1064.51 1105.35 1064.58 1105.07 1064.66 C 1103.83 1065.02 1104.29 1064.82 1103.26 1065.69 C 1109.72 1066.82 1122.77 1070.02 1128.69 1068.63 L 1129.9 1067.26 L 1128.27 1065.84 C 1129.06 1064.69 1129.71 1063.02 1131.12 1062.77 C 1139.63 1061.3 1145.04 1072.22 1157.62 1065.38 C 1159.34 1064.45 1160.71 1063.96 1162.67 1064.48 C 1182.94 1069.92 1205.58 1065.2 1225.88 1061.61 C 1225.22 1072.66 1214.84 1078.45 1223.57 1089.46 C 1224.16 1090.22 1224.49 1090.99 1224.86 1091.87 C 1222.95 1093.14 1220.41 1093.83 1218.25 1094.66 C 1190.81 1089.64 1163.09 1085.86 1135.56 1081.31 L 1134.93 1083.01 C 1133.1 1083.7 1131.07 1084.29 1129.51 1085.48 C 1121 1083.51 1111.71 1083.05 1103.05 1081.71 C 1090.54 1079.76 1078 1076.85 1065.39 1075.76 L 1063.27 1070.35 A 777.069 777.069 0 0 0 1036.23 1066.26 L 1034.13 1069.12 C 1032.48 1069.01 1030.89 1068.72 1029.3 1069.23 C 1022.45 1069.17 1015.23 1067.61 1008.44 1066.6 L 1000.75 1065.69 L 1000.66 1061.06 A 818.906 818.906 0 0 0 978.166 1057.66 A 1785.42 1785.42 0 0 0 945.081 1052.76 L 921.615 1050.02 z"/>
<path transform="translate(0,0)" fill="rgb(108,77,77)" d="M 1000.66 1061.06 L 1008.87 1062.42 C 1008.53 1063.82 1008.03 1065.18 1008.44 1066.6 L 1000.75 1065.69 L 1000.66 1061.06 z"/>
<path transform="translate(0,0)" fill="rgb(103,67,67)" d="M 990.156 1051.2 C 986.317 1051.02 982.468 1051.21 979.19 1048.94 L 979.354 1047.84 C 983.01 1046.33 986.582 1046.76 990.442 1046.98 L 990.156 1051.2 z"/>
<path transform="translate(0,0)" fill="rgb(103,67,67)" d="M 1044.81 1054.55 C 1051.59 1055.22 1058.72 1057.04 1065.42 1057.34 L 1068.93 1059.3 C 1069.16 1060.39 1069.39 1061.2 1069.32 1062.31 C 1060.59 1061.86 1051.64 1060.04 1042.98 1058.77 L 1044.81 1054.55 z"/>
<path transform="translate(0,0)" fill="rgb(103,67,67)" d="M 1008.87 1062.42 C 1018 1063.28 1027.29 1064.06 1036.23 1066.26 L 1034.13 1069.12 C 1032.48 1069.01 1030.89 1068.72 1029.3 1069.23 C 1022.45 1069.17 1015.23 1067.61 1008.44 1066.6 C 1008.03 1065.18 1008.53 1063.82 1008.87 1062.42 z"/>
<path transform="translate(0,0)" fill="rgb(108,77,77)" d="M 1065.42 1057.34 C 1076.71 1059.16 1091.48 1063.8 1102.72 1062.86 C 1102.1 1064.58 1101.35 1065.9 1100.34 1067.42 C 1090.09 1065.9 1079.36 1064.88 1069.32 1062.31 C 1069.39 1061.2 1069.16 1060.39 1068.93 1059.3 L 1065.42 1057.34 z"/>
<path transform="translate(0,0)" fill="rgb(108,77,77)" d="M 990.442 1046.98 C 1002.2 1048.38 1035.71 1050.54 1044.81 1054.55 L 1042.98 1058.77 C 1025.37 1056.32 1007.7 1054.06 990.156 1051.2 L 990.442 1046.98 z"/>
<path transform="translate(0,0)" fill="rgb(103,67,67)" d="M 1063.27 1070.35 C 1087.21 1074.23 1111.45 1078.82 1135.56 1081.31 L 1134.93 1083.01 C 1133.1 1083.7 1131.07 1084.29 1129.51 1085.48 C 1121 1083.51 1111.71 1083.05 1103.05 1081.71 C 1090.54 1079.76 1078 1076.85 1065.39 1075.76 L 1063.27 1070.35 z"/>
<path transform="translate(0,0)" fill="rgb(103,67,67)" d="M 1099.79 1060.33 L 1100.18 1058.77 L 1105.56 1062.41 L 1105.92 1064.44 C 1105.64 1064.51 1105.35 1064.58 1105.07 1064.66 C 1103.83 1065.02 1104.29 1064.82 1103.26 1065.69 C 1109.72 1066.82 1122.77 1070.02 1128.69 1068.63 L 1129.9 1067.26 C 1135.96 1067.33 1203.29 1077 1206 1078.42 C 1206.63 1078.75 1207.01 1079.42 1207.52 1079.91 C 1205.54 1081.16 1203.57 1080.92 1201.33 1080.76 C 1189.98 1079.98 1178.94 1077.31 1167.76 1075.73 C 1145.37 1072.57 1122.78 1070.37 1100.34 1067.42 C 1101.35 1065.9 1102.1 1064.58 1102.72 1062.86 L 1099.79 1060.33 z"/>
<path transform="translate(0,0)" fill="rgb(237,231,213)" d="M 852.874 955.463 C 862.362 954.595 939.247 954.531 943.83 957.519 C 944.001 957.631 944.14 957.786 944.296 957.919 L 943.417 958.936 C 943.189 958.947 942.959 958.953 942.731 958.969 C 931.155 959.828 921.627 966.57 914.4 975.198 C 901.828 990.204 896.499 1008.84 898.279 1028.24 C 898.735 1033.2 899.892 1038.48 898.904 1043.41 C 894.709 1047.76 848.66 1052.12 839.702 1052.32 C 837.76 1052.36 836.678 1051.95 835.055 1050.89 C 834.919 1050.8 834.776 1050.73 834.637 1050.64 C 826.678 1041.25 824.565 1029.89 823.92 1017.97 C 824.089 996.387 831.002 976.311 846.628 960.889 C 848.597 958.946 850.709 957.181 852.874 955.463 z"/>
<path transform="translate(0,0)" fill="rgb(237,231,213)" d="M 997.937 794.887 C 1004.57 786.723 1012.15 780.489 1021.07 774.973 C 1042.64 761.649 1063.68 757.482 1088.72 763.408 C 1091.08 766.318 1092.92 769.543 1094.84 772.757 C 1077.77 774.518 1062.82 781.539 1051.07 794.339 C 1038.25 808.298 1029.62 830.136 1030.72 849.151 C 1031.7 866.059 1039.74 880.626 1052.23 891.725 L 1056.28 888.924 C 1066.79 896.156 1076.77 900.374 1089.43 902.601 L 1087.29 905.83 C 1089.82 905.968 1091.94 906.27 1094.34 907.071 L 1093.92 908.166 C 1081 914.079 1062.71 916.589 1048.58 917.454 C 1031.84 918.478 1015.24 915.773 1002.36 904.345 C 1000.55 869.497 1002.7 829.094 997.937 794.887 z"/>
<path transform="translate(0,0)" fill="rgb(108,73,75)" d="M 1056.28 888.924 C 1066.79 896.156 1076.77 900.374 1089.43 902.601 L 1087.29 905.83 C 1074.35 905.409 1062.23 899.567 1052.23 891.725 L 1056.28 888.924 z"/>
<path transform="translate(0,0)" fill="rgb(180,163,155)" d="M 592.566 326.392 C 602.001 351.268 610.84 362.385 632.856 377.573 C 623.422 387.93 616.645 398.89 609.641 410.946 C 589.125 422.187 578.175 426.107 554.256 427.257 C 550.329 417.46 546.718 405.898 540.981 397.065 C 532.243 379.19 513.45 353.56 494.707 345.387 L 491.023 341.93 C 492.689 340.223 582.221 327.534 592.566 326.392 z"/>
<path transform="translate(0,0)" fill="rgb(180,163,155)" d="M 1167.43 885.45 C 1177.34 883.908 1272.75 897.752 1289.39 901.376 C 1289.35 907.651 1273.5 946.857 1268.95 951.86 C 1247.04 946.395 1224.04 944.372 1201.66 941.448 C 1181.47 937.653 1160.53 936.04 1140.14 933.259 C 1116.35 930.015 1091.74 924.468 1067.73 924.744 C 1089.54 919.495 1152.44 899.541 1167.43 885.45 z"/>
<path transform="translate(0,0)" fill="rgb(237,231,213)" d="M 1233.03 1073.86 C 1241.12 1064.95 1246.32 1042.25 1251.21 1030.49 C 1277.46 967.311 1302.3 903.456 1327.64 839.889 C 1339.87 809.222 1350.66 776.568 1365.45 747.096 C 1366.96 744.102 1369.07 741.488 1371.46 739.149 C 1376.54 734.176 1383.07 731.715 1389.89 730.122 C 1402.72 727.13 1416.29 725.818 1429.3 723.546 L 1533.54 705.732 L 1692.57 678.002 C 1703.84 676.073 1737.3 668.68 1746.95 669.276 C 1749.54 669.435 1752.41 670.211 1754.09 672.334 C 1755.91 674.64 1756.15 676.958 1755.71 679.697 C 1752.57 682.318 1745.18 682.166 1740.99 683.119 C 1729.58 684.371 1716.77 685.777 1705.78 689.009 C 1692.35 688.986 1676.68 693.447 1663.34 695.854 C 1650.99 697.084 1638.79 699.926 1626.53 701.842 C 1622.14 702.359 1617.84 702.986 1613.5 703.834 L 1609.81 704.908 L 1607.68 708.089 C 1601.97 710.941 1494.38 729.216 1484.58 728.959 C 1479.84 731.966 1429.56 739.824 1420.67 740.814 C 1410.18 743.623 1386.41 743.16 1380.34 753.125 C 1378.45 756.232 1377.19 760.395 1374.53 762.844 L 1373.63 763.339 L 1370.8 761.954 C 1370.46 767.017 1342.64 835.401 1339.87 838.153 C 1339.92 843.249 1318.26 898.467 1314.69 902.888 C 1311.83 915.615 1305.41 928.694 1300.54 940.8 L 1278.95 995.143 C 1274.94 1005.07 1270.53 1020.28 1264.98 1029.14 C 1263.71 1036.43 1248.65 1074.03 1244.67 1080.08 C 1244.33 1080.2 1244 1080.4 1243.63 1080.43 C 1241.05 1080.65 1236.17 1075.73 1233.7 1074.26 L 1233.03 1073.86 z"/>
<path transform="translate(0,0)" fill="rgb(103,67,67)" d="M 1370.8 761.954 C 1372.87 758.778 1374.09 755.102 1376.41 752.037 C 1386.43 738.752 1406.11 739.3 1421.1 736.999 L 1421.85 738.811 L 1420.67 740.814 C 1410.18 743.623 1386.41 743.16 1380.34 753.125 C 1378.45 756.232 1377.19 760.395 1374.53 762.844 L 1373.63 763.339 L 1370.8 761.954 z"/>
<path transform="translate(0,0)" fill="rgb(108,73,75)" d="M 1421.1 736.999 C 1441.22 731.99 1463.28 728.816 1483.85 726.009 L 1484.58 728.959 C 1479.84 731.966 1429.56 739.824 1420.67 740.814 L 1421.85 738.811 L 1421.1 736.999 z"/>
<path transform="translate(0,0)" fill="rgb(108,77,77)" d="M 1483.85 726.009 C 1509.25 720.244 1535.49 716.73 1561.2 712.572 C 1577.21 709.982 1593.68 706.224 1609.81 704.908 L 1607.68 708.089 C 1601.97 710.941 1494.38 729.216 1484.58 728.959 L 1483.85 726.009 z"/>
<path transform="translate(0,0)" fill="rgb(237,231,213)" d="M 296.297 0 L 364.937 0 C 366.649 14.9792 374.06 136.808 371.965 144.838 C 369.333 154.923 362.685 164.798 357.863 174.032 C 351.089 187.003 344.594 200.113 337.73 213.039 C 331.253 193.86 328.444 164.812 324.701 143.891 C 319.004 112.041 311.994 80.4094 306.131 48.5975 C 303.338 33.4437 301.685 14.1113 296.297 0 z"/>
<path transform="translate(0,0)" fill="rgb(237,231,213)" d="M 677.062 426.442 C 704.225 421.879 729.366 413.367 751.994 397.173 C 753.891 432.433 760.012 459.082 781.861 487.606 C 788.944 496.854 796.668 505.891 805.346 513.689 A 176.215 176.215 0 0 0 813.212 520.32 C 799.521 551.991 794.844 568.555 793.653 603.315 C 788.662 584.342 774.703 566.958 762.748 551.796 L 759.358 554.971 C 756.513 551.867 754.489 548.338 751.407 545.362 L 750.65 544.116 L 752.924 544.977 L 753.413 544.269 L 751.761 542.454 L 752.018 539.959 C 747.756 530.054 723.295 505.687 715.283 495.928 A 557.578 557.578 0 0 1 677.252 444.881 C 677.195 438.739 677.228 432.58 677.062 426.442 z"/>
<path transform="translate(0,0)" fill="rgb(108,73,75)" d="M 752.018 539.959 C 756.087 543.552 759.761 547.231 762.748 551.796 L 759.358 554.971 C 756.513 551.867 754.489 548.338 751.407 545.362 L 750.65 544.116 L 752.924 544.977 L 753.413 544.269 L 751.761 542.454 L 752.018 539.959 z"/>
<path transform="translate(0,0)" fill="rgb(237,231,213)" d="M 1434.28 518.49 C 1443.44 520.814 1463.92 539.429 1471.9 546.121 C 1511.25 579.13 1543.26 617.444 1571.85 659.932 C 1575.65 665.579 1584.62 676.291 1585.2 682.921 C 1570.54 688.896 1547.5 689.967 1531.36 692.207 C 1531.46 691.532 1531.54 691.283 1531.41 690.526 C 1529.57 680.174 1503.79 625.58 1496.63 619.504 C 1497.28 615.096 1489.49 604.126 1486.89 599.925 C 1485.49 597.663 1483.99 595.202 1481.34 594.588 C 1481.02 597.22 1481.78 599.257 1482.9 601.591 C 1487.53 611.26 1494.09 620.538 1499.26 630.004 C 1507.62 645.327 1514.94 661.265 1522.52 676.989 C 1524.6 681.32 1529.19 688.151 1529.75 692.745 C 1516.95 696.343 1501.2 699.525 1487.94 700.297 C 1480.82 696.227 1449.41 582.851 1446.09 569.689 C 1441.83 552.801 1439.48 535.06 1434.28 518.49 z"/>
<path transform="translate(0,0)" fill="rgb(237,231,213)" d="M 1997.41 574.499 L 1998.9 574.776 C 2002.74 578.957 2002.44 616.488 2002.39 623.704 C 2001.99 681.473 1995.08 739.739 1974.37 793.999 C 1971.83 800.663 1968.36 812.148 1963.44 817.003 C 1959.45 822.347 1943.27 831.322 1936.86 834.01 C 1937.03 833.846 1937.2 833.677 1937.38 833.518 C 1937.59 833.336 1937.81 833.171 1938.02 832.988 C 1944.7 827.021 1949.42 812.72 1952.68 804.422 C 1964.06 775.466 1974.78 745.813 1979.8 714.964 C 1981.31 705.682 1981.79 696.149 1982.8 686.796 C 1983.28 682.313 1984.76 678.09 1985.08 673.595 C 1985.66 665.317 1988.18 644.248 1982.85 638.117 C 1969.99 638.501 1869.39 744.488 1854.93 760.913 A 2101.38 2101.38 0 0 0 1821.73 800.055 C 1816.21 806.616 1810.67 814.374 1804.2 819.987 L 1803.6 820.498 C 1801.64 827.897 1779.98 854.208 1774.35 862.6 C 1766.45 874.383 1758.77 886.528 1751.69 898.821 A 941.236 941.236 0 0 0 1729.13 941.094 C 1725.07 949.361 1717.12 972.235 1712.26 977.692 C 1711.89 978.116 1711.5 978.531 1711.1 978.93 C 1715.97 962.969 1702.72 942.235 1707.97 926.338 C 1710.46 918.799 1716.26 911.064 1719.72 903.758 C 1758.14 822.693 1818.53 752.822 1879.63 688.136 C 1896.83 669.93 1913.77 651.538 1931.75 634.088 A 1350.28 1350.28 0 0 1 1966.24 602.122 C 1973.95 595.256 1992.9 582.135 1997.41 574.499 z"/>
<path transform="translate(0,0)" fill="rgb(237,231,213)" d="M 907.811 1039.18 C 908.617 1024.79 909.052 1010.27 914.11 996.605 C 917.343 987.869 924.994 973.872 933.978 969.951 C 941.467 966.682 968.814 966.169 979.458 964.035 C 1000.24 959.87 1021.44 953.374 1042.01 948.035 C 1050.76 945.765 1059.69 942.992 1068.65 941.755 C 1076.61 940.656 1083.33 940.962 1090.8 944.028 C 1099.42 947.571 1107.81 952.004 1116.16 956.178 C 1139.6 967.903 1160.55 980.362 1171.46 1005.86 C 1174.37 1012.66 1173.59 1020.99 1176.48 1027.81 C 1177.33 1029.8 1177.59 1031.49 1177.84 1033.61 L 1176.98 1033.99 C 1173.45 1030 1170.99 1024.01 1168.37 1019.33 C 1161.42 1006.91 1152.45 993.246 1141.36 984.185 L 1139.84 985.169 C 1138.25 984.133 1135.7 981.929 1133.8 981.998 C 1136.36 984.769 1139.78 987.8 1141.12 991.34 L 1140.27 992.284 C 1149.12 1005.13 1175.36 1040.08 1172.95 1054.95 C 1171.48 1056.93 1171.48 1056.88 1169.06 1057.35 C 1162.27 1054.28 1137.8 1013.01 1129.34 1003.88 C 1116.44 989.959 1080.94 969.863 1063.08 964.613 C 1070.27 971.605 1079.14 976.043 1087.82 980.889 C 1115.74 996.477 1125.97 1007.76 1142.61 1034.75 C 1146.13 1040.45 1153.54 1050.05 1153.84 1056.73 C 1153.88 1057.47 1153.79 1058.17 1153.66 1058.89 C 1151.46 1060.94 1150.01 1060.66 1147.1 1060.94 C 1138.74 1057.61 1109.81 1020.57 1100.22 1011.6 C 1092.7 1004.56 1084.36 999.054 1075.24 994.296 C 1074.74 996.145 1074.68 996.847 1075.32 998.65 C 1075.57 999.355 1075.5 999.017 1075.5 999.841 C 1076.82 1001.19 1078.96 1002.34 1080.52 1003.51 C 1091.47 1011.7 1123 1044.85 1124.87 1057.67 C 1124.19 1060 1124.21 1060.09 1122.19 1061.42 C 1113.39 1060.23 1101.65 1048.38 1094.88 1042.56 C 1084.34 1033.5 1065.07 1015.79 1051.79 1013.09 C 1033.97 1009.47 998.415 1027.01 979.466 1031.41 C 956.26 1036.79 931.543 1037.39 907.811 1039.18 z"/>
<path transform="translate(0,0)" fill="rgb(103,67,67)" d="M 1075.5 999.841 C 1067.36 994.839 1059.73 990.232 1052.92 983.442 L 1053.24 982.461 C 1061.4 985.566 1068.05 989.431 1075.24 994.296 C 1074.74 996.145 1074.68 996.847 1075.32 998.65 C 1075.57 999.355 1075.5 999.017 1075.5 999.841 z"/>
<path transform="translate(0,0)" fill="rgb(108,73,75)" d="M 1140.27 992.284 C 1135.22 988.657 1131.97 982.5 1125.95 978.37 C 1112.88 969.396 1097.91 963.462 1084.71 954.663 L 1084.55 953.807 C 1103.56 958.833 1126.93 970.821 1141.36 984.185 L 1139.84 985.169 C 1138.25 984.133 1135.7 981.929 1133.8 981.998 C 1136.36 984.769 1139.78 987.8 1141.12 991.34 L 1140.27 992.284 z"/>
<path transform="translate(0,0)" fill="rgb(237,231,213)" d="M 677.365 379.097 L 678.993 379.083 C 681.101 382.634 681.023 388.536 681.489 392.647 C 679.32 395.917 677.238 399.404 675.586 402.96 C 669.76 415.505 667.931 428.339 667.279 442.049 C 664.232 506.129 701.874 558.162 728.629 613.089 C 740.017 636.467 748.593 660.77 757.627 685.119 C 748.151 672.892 738.216 662.942 725.364 654.296 C 715.283 648.188 704.825 643.448 693.731 639.48 C 675.035 632.792 643.413 628.155 630.24 612.529 C 624.396 605.596 622.106 592.642 620.137 583.959 C 611.198 544.519 606.683 503.265 609.814 462.843 C 612.042 434.077 620.243 400.497 643.103 380.884 C 654.975 384.655 665.899 383.429 677.365 379.097 z"/>
<path transform="translate(0,0)" fill="rgb(237,231,213)" d="M 208.602 0 L 258.768 0 C 263.023 18.5449 265.138 38.1093 268.128 56.9233 L 284.039 152.717 A 7250.15 7250.15 0 0 1 307.344 289.465 C 310.747 310.313 315.055 331.348 317.246 352.348 C 298.26 354.992 279.045 358.49 260.27 362.357 C 256.724 346.151 255.617 328.823 253.168 312.366 L 235.819 191.735 A 11165 11165 0 0 1 215.328 49.9884 C 213.101 33.3586 209.973 16.7214 208.602 0 z"/>
<path transform="translate(0,0)" fill="rgb(237,231,213)" d="M 479.868 0 L 522.778 0 C 520.272 8.73158 516.383 17.0538 513.325 25.6041 C 509.325 36.7899 505.878 48.4749 502.163 59.8001 A 7764.94 7764.94 0 0 1 444.879 232.054 L 419.377 307.746 C 416 317.612 413.236 329.651 408.265 338.738 C 401.979 341.994 370.674 345.736 362.506 346.239 C 358.638 323.238 354.136 300.351 350.417 277.335 C 350.064 275.15 348.454 271.588 348.527 269.572 C 348.763 263.093 359.315 239.411 362.133 232.28 C 379.256 188.946 397.558 145.002 419.814 104.037 C 429.26 86.6501 438.928 69.1419 449.109 52.1725 C 459.498 34.8564 470.475 17.8939 479.868 0 z"/>
<path transform="translate(0,0)" fill="rgb(237,231,213)" d="M 936.079 530.684 C 941.704 538.339 945.374 548.055 949.972 556.426 C 960.315 575.259 971.009 594.57 982.761 612.529 A 4539.64 4539.64 0 0 0 1054.08 717.23 C 1062.9 729.897 1073.66 741.451 1081.35 754.863 C 1076.03 752.942 1070.32 752.668 1064.72 752.651 C 1039.38 752.572 1014.97 764.598 997.194 782.269 C 996.93 776.639 996.465 770.952 996.998 765.33 C 1008.74 753.312 1027.6 746.249 1037.2 734.359 C 1039.61 731.373 1041.73 727.531 1041.08 723.565 C 1040.71 721.295 1039.26 719.39 1037.41 718.079 C 1032.26 714.429 1024.68 713.919 1018.63 714.886 C 1006.37 716.848 998.34 724.339 991.394 733.996 C 988.82 725.506 987.371 714.183 988.22 705.319 C 989.981 686.94 1005.76 659.628 996.741 641.985 C 995.572 639.699 993.844 638.148 991.328 637.478 C 977.342 633.758 980.323 650.015 973.021 653.924 L 972.419 655.714 C 971.2 655.069 970.357 654.7 968.963 655.192 C 968.276 655.435 967.549 656.012 966.966 656.413 C 971.323 676.827 976.223 697.4 979.269 718.049 C 986.171 764.842 987.802 813.415 989.274 860.641 C 990.179 889.648 988.609 919.232 991.236 948.09 C 982.579 950.689 963.623 956.426 955.3 953.179 C 950.496 951.304 951.79 947.08 951.62 942.762 C 951.049 928.316 948.913 913.991 947.47 899.618 A 1693.06 1693.06 0 0 0 929.996 772.793 C 924.657 743.015 915.742 712.237 915.018 681.907 C 914.717 669.3 917.334 657.507 921.104 645.548 C 935.29 600.541 943.443 587.533 923.878 540.986 C 928.064 537.704 932.05 534.157 936.079 530.684 z"/>
<path transform="translate(0,0)" fill="rgb(108,73,75)" d="M 966.966 656.413 L 954.051 607.458 C 951.659 598.592 948.084 589.273 947.148 580.159 L 947.821 580.726 L 947.412 582.532 C 947.204 581.384 946.954 581.126 947.468 580.036 C 957.351 591.656 963.333 621.755 967.746 636.981 C 969.441 642.831 971.914 647.796 973.021 653.924 L 972.419 655.714 C 971.2 655.069 970.357 654.7 968.963 655.192 C 968.276 655.435 967.549 656.012 966.966 656.413 z"/>
<path transform="translate(0,0)" fill="rgb(180,163,155)" d="M 462.898 345.123 L 462.374 343.359 C 464.977 342.264 467.631 343.209 470.393 342.936 C 473.357 342.642 479.81 339.988 482.36 340.845 C 486.242 342.149 488.69 345.822 493.032 346.693 C 493.473 346.374 494.423 345.834 494.707 345.387 C 513.45 353.56 532.243 379.19 540.981 397.065 L 539.142 398.556 C 542.406 406.758 551.226 420.912 549.862 429.498 C 549.56 429.557 549.257 429.61 548.956 429.673 C 547.981 429.875 547.12 430.14 546.188 430.476 C 548.611 430.908 549.978 430.874 551.906 432.572 C 552.553 435.476 553.479 438.199 552.533 441.117 L 550.993 440.73 C 551.816 438.772 551.738 437.579 551.473 435.492 C 549.689 433.486 548.827 432.907 545.976 432.771 C 535.013 432.245 522.035 435.102 511.053 436.391 A 3329.7 3329.7 0 0 0 421.644 447.788 C 407.674 449.71 392.306 453.41 378.369 453.814 C 377.25 452.481 375.859 451.465 374.505 450.385 C 350.35 453.859 324.637 456.734 301.066 462.969 L 299.231 462.906 C 295.177 460.111 281.926 435.866 278.287 430.159 C 265.395 408.607 243.83 393.107 221.502 382.771 C 236.399 381.089 251.383 377.26 266.246 374.91 L 370.611 358.897 C 401.171 353.971 432.671 351.641 462.898 345.123 z"/>
<path transform="translate(0,0)" fill="rgb(108,73,75)" d="M 462.898 345.123 L 462.374 343.359 C 464.977 342.264 467.631 343.209 470.393 342.936 C 473.357 342.642 479.81 339.988 482.36 340.845 C 486.242 342.149 488.69 345.822 493.032 346.693 C 493.473 346.374 494.423 345.834 494.707 345.387 C 513.45 353.56 532.243 379.19 540.981 397.065 L 539.142 398.556 C 542.406 406.758 551.226 420.912 549.862 429.498 C 549.56 429.557 549.257 429.61 548.956 429.673 C 547.981 429.875 547.12 430.14 546.188 430.476 C 548.611 430.908 549.978 430.874 551.906 432.572 C 552.553 435.476 553.479 438.199 552.533 441.117 L 550.993 440.73 C 551.816 438.772 551.738 437.579 551.473 435.492 C 549.689 433.486 548.827 432.907 545.976 432.771 C 535.013 432.245 522.035 435.102 511.053 436.391 A 3329.7 3329.7 0 0 0 421.644 447.788 C 407.674 449.71 392.306 453.41 378.369 453.814 C 377.25 452.481 375.859 451.465 374.505 450.385 A 2107.58 2107.58 0 0 1 458.068 438.424 C 488.102 434.472 518.784 430.368 549.052 428.836 A 75.6105 75.6105 0 0 0 548.115 425.671 C 536.787 390.255 515.376 360.252 481.956 343.176 A 1169.2 1169.2 0 0 0 462.898 345.123 z"/>
<path transform="translate(0,0)" fill="rgb(237,231,213)" d="M 95.4855 65.7288 C 107.226 77.6448 177.211 210.448 182.103 228.826 C 186.521 245.421 187.364 264.413 189.474 281.532 A 5608.64 5608.64 0 0 1 200.657 371.658 C 199.794 372.472 198.333 372.154 197.159 372.168 L 196.741 373.928 C 181.712 375.948 166.744 378.762 151.822 381.446 C 135.282 383.777 118.904 388.532 102.766 392.736 C 94.3175 349.104 84.368 305.709 75.5976 262.122 C 72.8154 248.295 67.531 233.164 66.8935 219.154 C 66.4302 208.976 69.5406 197.62 71.3766 187.618 L 82.6665 129.182 C 86.6877 108.4 89.125 85.8384 95.4855 65.7288 z"/>
<path transform="translate(0,0)" fill="rgb(237,231,213)" d="M 224.593 1148.6 C 224.694 1148.28 224.801 1147.96 224.896 1147.64 C 227.695 1138.15 225.571 1116.25 227.686 1104.29 C 230.35 1089.22 231.612 1072.97 235.314 1058.23 C 237.807 1048.3 241.468 1038.87 244.842 1029.25 C 247.773 1020.89 250.089 1012.31 253.423 1004.1 C 267.814 968.632 289.5 934.662 315.188 906.419 C 320.305 900.794 325.545 894.011 331.454 889.254 C 338.033 896.269 337.585 951.44 337.18 963.856 C 336.621 980.981 336.355 998.82 334.191 1015.81 C 333.619 1020.31 332.129 1024.83 331.392 1029.37 C 329.815 1039.05 328.934 1048.9 327.064 1058.53 C 325.207 1068.09 322.398 1077.47 320.33 1086.99 C 319.453 1091.03 316.961 1099.34 319.285 1102.9 C 323.643 1100.76 341.858 1079.43 347.677 1074.16 C 389.101 1036.59 446.411 1011.36 502.484 1008.63 C 494.476 1020.38 485.084 1031.4 476.304 1042.61 C 445.889 1081.43 413.342 1121.7 374.064 1152 L 224.365 1152 L 224.593 1148.6 z"/>
<path transform="translate(0,0)" fill="rgb(180,163,155)" d="M 491.278 1039.82 C 512.539 1039.44 548.591 1047.74 570.775 1051.48 L 701.059 1072.59 C 796.022 1087.87 891.499 1099.54 986.249 1116.34 C 1000.9 1118.93 1015.6 1120.9 1030.2 1123.84 C 1040.26 1131.93 1048.72 1142.63 1057.6 1152 L 390.326 1152 C 429.413 1118.4 460.045 1080.5 491.278 1039.82 z"/>
<path transform="translate(0,0)" fill="rgb(237,231,213)" d="M 729.785 284.17 C 732.387 284.604 735.045 285.032 737.586 285.747 C 747.364 288.496 755.582 299.352 760.167 307.811 C 766.419 319.344 774.189 343.172 770.253 355.821 C 769.842 357.142 770.235 357.269 770.801 358.477 C 774.013 359.208 777.292 358.46 780.41 357.61 C 807.891 350.112 824.243 331.293 843.167 311.676 C 847.784 306.89 854.991 301.203 858.205 295.566 C 858.815 294.497 859.484 293.469 860.137 292.425 C 866.729 292.258 876.282 297.487 883.113 299.036 C 893.465 301.384 904.59 302.911 915.178 303.612 C 947.93 305.781 1001.95 297.654 1027.37 275.274 L 1028.68 275.612 C 1032.85 288.581 1032.29 306.882 1031.83 320.428 C 1031.74 323.027 1030.66 325.164 1030.39 327.689 C 1029.79 333.127 1029.98 351.59 1025 354.094 C 1022.79 355.208 1018.15 355.505 1015.6 356.073 C 1004.29 358.593 991.47 362.589 982.947 370.698 L 982.145 371.469 L 983.711 372.066 L 981.741 374.569 L 985.649 374.206 C 981.908 377.294 977.536 380.319 975.353 384.744 C 975.265 384.921 975.173 385.096 975.085 385.272 C 972.605 390.257 972.837 395.657 971.575 400.935 L 972.036 402.994 C 986.182 408.518 982.381 412.889 1000.89 410.298 L 999.233 411.212 L 1001.03 410.542 L 1001.63 410.843 C 979.512 466.399 961.604 494.702 916.527 534.214 C 908.433 541.308 899.103 547.703 887.871 546.823 C 855.353 544.275 806.47 504.349 786.358 480.434 C 763.463 453.21 756.369 424.089 759.402 388.995 C 759.208 388.631 759.197 388.071 758.82 387.904 C 757.293 387.227 744.859 390.923 734.942 386.241 C 721.047 379.68 711.691 366.015 706.544 351.928 C 700.745 336.057 700.589 318.248 708.017 302.825 C 713.035 292.407 719.226 287.881 729.785 284.17 z"/>
<path transform="translate(0,0)" fill="rgb(108,77,77)" d="M 880.621 459.167 L 889.309 462.621 C 887.723 463.471 885.573 464.293 884.689 465.901 C 882.017 465.228 879.26 463.726 876.709 462.64 C 877.909 461.378 879.291 460.291 880.621 459.167 z"/>
<path transform="translate(0,0)" fill="rgb(108,77,77)" d="M 937.189 452.5 C 936.739 452.271 936.285 452.048 935.844 451.802 C 931.796 449.545 920.248 443.322 918.971 438.963 C 919.392 438.897 919.935 438.784 920.38 438.8 C 925.306 438.974 933.9 443.681 937.123 447.287 C 936.763 447.339 936.405 447.406 936.044 447.444 C 934.27 447.628 931.151 446.393 929.754 445.24 C 929.638 445.143 929.54 445.025 929.433 444.918 C 931.931 445.551 935.665 449.718 936.936 451.97 C 937.032 452.141 937.105 452.323 937.189 452.5 z"/>
<path transform="translate(0,0)" fill="rgb(108,77,77)" d="M 865.631 450.902 C 870.461 453.749 875.391 457.137 880.621 459.167 C 879.291 460.291 877.909 461.378 876.709 462.64 C 872.465 461.004 868.285 457.944 864.362 455.607 C 863.669 455.173 863.478 454.738 863.053 454.056 L 865.631 450.902 z"/>
<path transform="translate(0,0)" fill="rgb(108,77,77)" d="M 924.059 471.983 C 935.936 472.802 948.401 472.294 960.108 474.161 C 946.944 477.169 935.162 478.035 921.71 476.315 L 924.059 471.983 z"/>
<path transform="translate(0,0)" fill="rgb(108,73,75)" d="M 889.309 462.621 C 900.931 467.159 911.795 469.832 924.059 471.983 L 921.71 476.315 C 908.92 474.202 896.576 471.193 884.689 465.901 C 885.573 464.293 887.723 463.471 889.309 462.621 z"/>
<path transform="translate(0,0)" fill="rgb(103,67,67)" d="M 872.816 490.675 C 877.501 493.091 881.56 496.904 886.199 499.501 C 894.459 504.126 905.091 505.193 914.252 502.669 C 918.069 501.617 921.444 499.353 925.352 498.237 L 925.723 499.952 C 924.226 501.031 922.704 502.086 921.115 503.026 C 913.245 507.686 902.666 509.121 893.828 506.847 C 884.876 504.544 877.501 498.579 872.816 490.675 z"/>
<path transform="translate(0,0)" fill="rgb(103,67,67)" d="M 850.935 448.191 C 846.323 450.994 842.812 456.823 839.548 458.442 L 839.071 456.35 C 839.655 454.079 840.348 452.187 841.736 450.279 C 851.336 437.083 875.125 435.264 890.116 433.015 C 880.038 437.212 869.765 441.152 859.299 444.279 C 856.197 444.217 853.724 445.411 851.458 447.654 C 851.28 447.83 851.109 448.012 850.935 448.191 z"/>
<path transform="translate(0,0)" fill="rgb(108,73,75)" d="M 850.935 448.191 C 851.109 448.012 851.28 447.83 851.458 447.654 C 853.724 445.411 856.197 444.217 859.299 444.279 C 860.721 447.614 862.529 448.982 865.631 450.902 L 863.053 454.056 C 863.478 454.738 863.669 455.173 864.362 455.607 C 870.282 469.125 879.892 483.822 894.079 489.509 C 900.341 492.02 906.837 492.325 913.484 492.451 C 924.656 489.788 933.856 484.394 944.242 479.831 C 934.375 490.123 924.784 496.616 909.972 496.878 A 26.8459 26.8459 0 0 1 907.801 496.845 C 903.773 497.033 899.689 496.466 895.769 495.559 C 871.823 490.02 868.612 469.427 857.097 451.955 C 855.189 449.06 854.159 448.889 850.935 448.191 z"/>
<path transform="translate(0,0)" fill="rgb(108,73,75)" d="M 982.145 371.469 L 983.711 372.066 L 981.741 374.569 L 985.649 374.206 C 981.908 377.294 977.536 380.319 975.353 384.744 C 975.265 384.921 975.173 385.096 975.085 385.272 C 972.605 390.257 972.837 395.657 971.575 400.935 L 972.036 402.994 C 971.941 403.239 971.842 403.483 971.752 403.73 C 966.431 418.215 982.42 450.27 970.497 456.014 C 965.183 458.574 947.731 457.322 942.208 455.173 C 940.444 454.487 938.796 453.49 937.189 452.5 C 937.105 452.323 937.032 452.141 936.936 451.97 C 935.665 449.718 931.931 445.551 929.433 444.918 C 929.54 445.025 929.638 445.143 929.754 445.24 C 931.151 446.393 934.27 447.628 936.044 447.444 C 936.405 447.406 936.763 447.339 937.123 447.287 C 948.28 452.543 955.902 452.107 967.74 450.226 C 966.156 427.243 961.743 414.067 968.682 390.937 C 971.004 383.196 974.803 375.463 982.145 371.469 z"/>
<path transform="translate(0,0)" fill="rgb(108,77,77)" d="M 879.793 371.519 A 128.828 128.828 0 0 1 901.338 371.268 C 911.508 372.024 925.269 373.656 932.138 382.037 C 933.851 384.127 934.864 386.021 934.573 388.702 A 207.22 207.22 0 0 0 927.666 387.602 C 924.99 390.428 922.877 392.179 919.294 393.734 A 209.78 209.78 0 0 1 914.607 394.153 C 889.682 396.081 895.609 382.341 888.484 378.362 C 883.965 375.838 866.758 379.122 862.875 375.802 C 866.307 372.288 874.889 372.077 879.793 371.519 z"/>
<path transform="translate(0,0)" fill="rgb(103,67,67)" d="M 727.22 305.143 C 733.682 304.906 739.421 306.108 744.517 310.33 C 752.464 316.913 759.56 331.446 760.46 341.662 C 760.648 343.803 760.941 345.107 759.497 346.797 C 758.026 344.109 756.982 342.003 754.242 340.377 C 753.273 341.392 752.435 343.538 751.487 344.266 C 748.821 346.313 744.961 345.183 742.225 348.326 C 741.235 356.903 747.664 357.925 748.934 364.732 L 746.341 366.986 C 745.078 366.83 743.815 366.654 742.576 366.357 C 737.765 365.203 734.241 362.165 731.733 357.993 C 728.787 353.093 727.489 346.9 728.917 341.296 C 729.851 337.626 732.079 334.393 735.414 332.525 C 740.173 329.859 743.905 330.738 748.847 332.063 C 744.195 321.579 740.001 315.804 730.79 309.076 C 727.723 308.975 724.573 309.004 721.525 308.691 L 721.631 306.843 L 727.22 305.143 z"/>
<path transform="translate(0,0)" fill="rgb(108,77,77)" d="M 881.717 331.416 C 907.534 330.598 932.347 333.98 953.559 349.9 C 954.624 354.503 955.149 358.174 953.388 362.639 C 952.296 365.411 951.101 366.062 948.57 367.16 C 944.959 366.599 944.226 365.729 941.587 363.38 C 918.099 341.874 890.464 338.228 859.82 336.382 C 866.981 333.541 874.139 332.396 881.717 331.416 z"/>
<path transform="translate(0,0)" fill="rgb(180,163,155)" d="M 1340.68 390.718 C 1364.67 378.435 1390.81 294.052 1402.8 266.622 C 1413.44 242.256 1424.88 218.038 1438.74 195.307 C 1470.71 142.881 1512.65 96.2926 1563.68 61.9082 C 1597.25 39.2937 1633.42 21.5567 1672.96 12.3219 C 1706.04 4.59613 1755.39 -3.00109 1788.08 7.44395 C 1802.55 12.0704 1815.93 20.3514 1822.95 34.3374 C 1824.06 36.556 1824.53 38.329 1824.47 40.8405 C 1818.35 45.3106 1810.02 47.8961 1803.29 51.6041 C 1791.03 58.3503 1779.75 66.2843 1768.47 74.5054 C 1765.87 76.4026 1763.57 78.4876 1760.27 78.0022 L 1757.28 77.9325 C 1757.53 80.0479 1758.15 81.243 1756.67 82.9977 C 1750.99 89.6947 1727.07 106.348 1718.57 113.218 C 1693.34 133.617 1668.58 154.996 1644.09 176.281 A 2468.16 2468.16 0 0 0 1549.12 264.074 C 1516.11 295.73 1483.09 329.579 1444.16 354.029 C 1411.2 374.725 1378.44 383.408 1340.68 390.718 z"/>
<path transform="translate(0,0)" fill="rgb(108,77,77)" d="M 1743.75 42.8564 C 1742.64 35.9008 1734.54 30.3546 1730.2 25.1397 C 1728.81 23.4639 1727.28 22.0411 1727.48 19.8269 C 1730.77 20.4268 1733.85 22.7582 1736.4 24.8431 C 1740.32 28.0472 1745 33.0215 1745.52 38.1295 C 1744.83 39.678 1744.08 41.1853 1743.75 42.8564 z"/>
<path transform="translate(0,0)" fill="rgb(108,73,75)" d="M 1743.75 42.8564 C 1744.08 41.1853 1744.83 39.678 1745.52 38.1295 C 1753.04 43.2875 1758.55 62.2604 1760.17 71.0394 C 1760.61 73.4738 1760.98 75.5867 1760.27 78.0022 L 1757.28 77.9325 C 1757.29 77.7612 1757.31 77.59 1757.31 77.4185 C 1757.52 68.4214 1749.78 49.4081 1743.75 42.8564 z"/>
<path transform="translate(0,0)" fill="rgb(108,77,77)" d="M 1439.3 238.496 C 1444.25 237.559 1450.35 238.798 1455.3 239.615 C 1469.29 241.927 1499.74 250.384 1508.3 262.29 L 1507.31 264.516 C 1503.14 264.687 1480.71 250.759 1474.15 248.246 C 1463.69 244.233 1449.28 245.71 1439.71 240.579 L 1439.3 238.496 z"/>
<path transform="translate(0,0)" fill="rgb(108,77,77)" d="M 1639 74.0739 C 1631.07 71.6572 1622.38 68.4213 1614.09 67.658 C 1610.8 67.3553 1606.12 67.931 1603.8 65.4481 C 1605.13 64.2643 1605.55 64.2219 1607.35 64.0313 C 1615.55 63.1627 1635.12 66.0067 1641.54 71.1968 C 1657.49 74.4716 1680.16 89.1658 1689.02 102.795 C 1690.06 104.387 1690.63 105.008 1690.44 106.964 C 1683.03 104.227 1675.03 94.0009 1668.24 89.138 C 1659.46 82.8458 1649.01 78.0714 1639 74.0739 z"/>
<path transform="translate(0,0)" fill="rgb(108,77,77)" d="M 1514.82 134.499 A 299.064 299.064 0 0 1 1547.96 134.367 A 198.7 198.7 0 0 1 1616.49 151.023 C 1619.63 152.42 1625.11 154.47 1627.2 157.099 C 1628.17 158.325 1627.83 158.487 1627.68 159.942 L 1624.31 160.752 C 1622.9 158.394 1616.99 156.184 1614.49 154.928 C 1596.99 146.133 1576.54 142.221 1557.21 140.031 C 1550.74 139.297 1517.78 138.9 1515.49 137.671 L 1514.82 134.499 z"/>
<path transform="translate(0,0)" fill="rgb(237,231,213)" d="M 0 0 L 52.9393 0 A 1034.48 1034.48 0 0 1 81.1362 42.4142 C 78.4852 56.2508 57.2034 174.005 56.1593 175.099 C 50.8458 165.157 48.5874 145.738 45.8796 134.255 C 39.6353 107.774 33.6968 81.1007 24.7382 55.4495 C 23.8458 52.8945 23.4329 48.75 21.5451 46.889 C 20.9653 49.1252 21.3601 97.3675 21.7221 99.7664 C 25.2095 122.874 32.916 146.196 38.5111 168.916 C 41.3916 180.612 44.7424 192.38 47.1884 204.164 C 49.8851 217.155 51.7808 230.371 54.7108 243.304 C 56.8189 252.609 70.2673 302.957 67.5947 308.073 C 58.7209 294.661 51.7363 279.778 44.0688 265.637 A 887.46 887.46 0 0 0 18.5584 222.53 C 18.8721 233.022 17.9862 245.93 20.6936 256.067 C 23.5066 266.599 30.7384 276.857 36.2453 286.217 C 43.8464 299.137 50.9665 312.349 58.6582 325.208 C 64.2242 334.514 70.8531 343.639 75.4788 353.445 C 82.0983 367.476 85.0014 383.711 88.4954 398.787 C 61.3195 412.478 44.0703 433.418 34.5528 462.168 C 1.80275 561.099 51.4436 788.357 84.8042 888.796 C 92.7511 912.722 100.544 936.858 109.705 960.351 C 114.026 971.432 120.74 982.316 124.136 993.578 C 125.186 997.058 135.533 1057.04 135.36 1059.55 C 129.869 1052.48 127.009 1043.09 121.781 1035.53 C 109.656 1017.99 62.0209 961.476 43.6229 953.43 C 42.1469 953.65 41.4888 953.436 40.579 954.665 C 32.8328 965.127 43.4345 1040.27 46.594 1056.23 C 53.88 1093.04 66.4659 1119.58 84.1041 1152 L 0 1152 L 0 0 z"/>
<path transform="translate(0,0)" fill="rgb(180,163,155)" d="M 1832.4 51.4992 C 1834.08 51.2794 1835.77 51.0789 1837.46 51.1916 C 1840.94 51.4238 1843.6 52.8513 1845.9 55.4312 C 1858.62 69.7562 1853.8 128.782 1852.44 149.358 C 1848.64 206.999 1824.57 264.867 1780.59 303.362 C 1683.71 388.161 1537.61 406.386 1413.75 397.968 C 1403.43 396.944 1393.09 396.396 1382.74 395.812 L 1382.3 394.812 C 1390.43 390.39 1400.85 388.907 1409.62 385.76 C 1428.15 379.108 1445.3 368.592 1461.33 357.319 C 1511.42 322.096 1554.84 276.534 1599.24 234.606 A 2189.97 2189.97 0 0 1 1731.8 119.308 C 1764.18 93.379 1794.64 69.3233 1832.4 51.4992 z"/>
<path transform="translate(0,0)" fill="rgb(108,73,75)" d="M 1558.53 367.081 C 1559.56 365.404 1560 363.526 1560.54 361.653 L 1561.78 361.879 C 1563.71 364.685 1564.59 367.477 1563.82 370.964 C 1563.38 372.936 1562.36 374.187 1560.82 375.412 L 1559.61 374.41 L 1559.64 373.428 C 1559.69 370.977 1559.77 369.295 1558.53 367.081 z"/>
<path transform="translate(0,0)" fill="rgb(108,77,77)" d="M 1638.99 330.903 C 1641.09 333.687 1641.54 336.918 1641.02 340.325 C 1640.68 342.565 1640.4 344.385 1638.84 346.071 C 1635.72 343.031 1637.29 335.869 1636.04 331.846 L 1637.95 332.048 L 1638.99 330.903 z"/>
<path transform="translate(0,0)" fill="rgb(108,77,77)" d="M 1612.08 278.92 C 1609.28 273.96 1601.38 270.753 1600.19 265.255 C 1602.52 264.988 1604.31 265.497 1606.29 266.796 C 1608.5 268.24 1611.18 270.509 1611.8 273.135 L 1614.18 277.5 C 1613.48 278.33 1613.13 278.616 1612.08 278.92 z"/>
<path transform="translate(0,0)" fill="rgb(108,77,77)" d="M 1558.53 367.081 C 1563.94 351.16 1546.53 331.799 1541.65 319.404 C 1541.35 318.622 1541.86 318.082 1542.19 317.343 C 1542.99 317.345 1543.76 317.137 1544.42 317.623 C 1551.89 323.127 1561.13 342.874 1562.4 351.969 C 1562.93 355.782 1563.21 358.176 1561.78 361.879 L 1560.54 361.653 C 1560 363.526 1559.56 365.404 1558.53 367.081 z"/>
<path transform="translate(0,0)" fill="rgb(108,77,77)" d="M 1814.81 71.4921 C 1814.99 71.4882 1815.18 71.4694 1815.36 71.4804 C 1818.07 71.6441 1820.09 72.7742 1821.82 74.8514 C 1829.6 84.1881 1837.26 105.747 1835.81 117.968 C 1835.46 120.833 1834.97 120.825 1832.76 122.504 L 1832.22 122.142 C 1830.91 121.265 1829.25 101.178 1828.19 97.8358 C 1825.24 88.5551 1817.1 79.284 1814.81 71.4921 z"/>
<path transform="translate(0,0)" fill="rgb(108,77,77)" d="M 1611.8 273.135 C 1622.1 277.887 1632 298.672 1635.74 308.91 C 1638.03 315.196 1641.57 324.511 1638.99 330.903 L 1637.95 332.048 L 1636.04 331.846 A 28.9831 28.9831 0 0 0 1635.91 329.023 C 1634.41 313.29 1624.5 289.035 1612.08 278.92 C 1613.13 278.616 1613.48 278.33 1614.18 277.5 L 1611.8 273.135 z"/>
<path transform="translate(0,0)" fill="rgb(108,77,77)" d="M 1752.44 132.482 C 1755.52 132.368 1756.96 133.444 1759.32 135.276 C 1780.1 151.371 1792.45 186.253 1795.6 211.508 C 1796.34 217.474 1797.62 224.6 1793.8 229.507 L 1793.19 229.4 C 1792.35 228.409 1786.79 191.579 1785.02 185.769 C 1780.5 170.899 1773.48 157.541 1763.41 145.681 C 1760.03 141.698 1754.88 137.697 1752.66 132.996 C 1752.58 132.827 1752.52 132.654 1752.44 132.482 z"/>
<path transform="translate(0,0)" fill="rgb(108,73,75)" d="M 1725.57 256.958 C 1727.37 246.055 1708.75 216.58 1701.28 207.804 C 1697.47 203.325 1689.55 198.171 1687.47 192.985 L 1688.42 191.45 C 1689.2 191.481 1689.8 191.507 1690.53 191.818 C 1702.8 197.066 1717.94 223.341 1723.33 234.962 C 1725.28 239.148 1729.33 246.747 1727.74 251.125 C 1733.31 256.264 1734.94 272.585 1735.25 280.363 C 1735.47 285.754 1736.01 292.233 1733.02 296.928 C 1731.43 295.787 1731.26 293.953 1730.95 292.052 C 1729.14 280.911 1731.19 267.18 1725.57 256.958 z"/>
<path transform="translate(0,0)" fill="rgb(180,163,155)" d="M 318.139 889.478 C 315.315 876.75 309.854 863.957 305.477 851.649 C 296.392 826.1 286.849 800.649 278.157 774.97 L 210.945 573.646 C 198.273 535.869 188.702 492.841 167.755 458.575 C 157.781 442.259 140.594 424.253 122.834 416.508 C 117.537 414.198 111.59 412.951 105.973 411.603 C 108.116 409.461 111.263 409.947 114.236 409.707 C 131.053 394.952 192.157 388.504 215.638 384.774 C 243.057 396.179 259.67 412.396 277.284 436.095 C 277.186 433.778 277.294 432.272 278.287 430.159 C 281.926 435.866 295.177 460.111 299.231 462.906 L 301.066 462.969 C 324.637 456.734 350.35 453.859 374.505 450.385 C 375.859 451.465 377.25 452.481 378.369 453.814 C 392.306 453.41 407.674 449.71 421.644 447.788 A 3329.7 3329.7 0 0 1 511.053 436.391 C 522.035 435.102 535.013 432.245 545.976 432.771 C 548.827 432.907 549.689 433.486 551.473 435.492 C 551.738 437.579 551.816 438.772 550.993 440.73 C 538.092 445.387 525.424 452.505 513.225 458.756 C 479.893 475.838 446.53 492.662 419.263 518.967 C 389.242 547.928 373.359 590.808 372.703 632.132 C 345.459 634.944 298.071 640.65 273.574 651.577 L 273.049 653.089 L 274.348 654.71 C 284.624 653.981 296.73 648.884 306.886 646.367 C 325.189 641.83 352.755 637.081 371.606 636.427 C 373.799 646.272 371.928 659.488 371.959 669.704 C 371.994 681.048 372.743 692.435 373.63 703.743 C 375.676 729.827 381.479 755.183 384.547 781.097 C 386.155 794.678 386.059 808.585 386.394 822.256 C 372.546 825.211 341.27 834.047 330.492 841.496 C 328.677 842.751 327.551 843.961 327.103 846.122 C 328.765 846.291 381.644 827.195 386.621 825.328 A 3989.8 3989.8 0 0 1 389.405 971.118 C 377.733 958.415 351.448 927.08 346.749 911.551 C 343.666 901.359 344.552 889.743 341.478 879.439 C 340.744 876.976 340.393 876.128 338.093 874.858 C 330.812 875.639 323.221 884.704 318.139 889.478 z"/>
<path transform="translate(0,0)" fill="rgb(108,77,77)" d="M 301.066 462.969 C 324.637 456.734 350.35 453.859 374.505 450.385 C 375.859 451.465 377.25 452.481 378.369 453.814 C 354.017 457.639 329.152 463.171 304.657 465.307 L 301.066 462.969 z"/>
<path transform="translate(0,0)" fill="rgb(108,73,75)" d="M 278.287 430.159 C 281.926 435.866 295.177 460.111 299.231 462.906 L 301.066 462.969 L 304.657 465.307 L 301.427 466.68 C 301.29 467.156 301.001 467.613 301.018 468.108 C 301.105 470.764 309.07 483.551 310.906 486.999 C 317.436 499.264 324.527 512.647 328.645 525.872 C 335.461 540.506 340.694 555.464 345.756 570.761 C 346.703 573.008 347.422 574.44 346.933 576.884 L 345.677 577.569 C 343.284 575.987 342.879 574.79 341.628 572.288 C 338.804 558.244 331.336 543.432 326.094 530.008 C 316.553 508.645 306.617 488.057 295.373 467.533 C 278.428 470.844 261.358 473.486 244.391 476.699 C 232.055 479.035 217.068 484.093 204.639 483.504 L 204.343 482.64 C 214.848 475.627 277.283 466.218 293.217 464.113 C 287.804 454.832 282.744 445.354 277.284 436.095 C 277.186 433.778 277.294 432.272 278.287 430.159 z"/>
<path transform="translate(0,0)" fill="rgb(180,163,155)" d="M 87.066 425.301 C 97.5396 423.9 110.107 426.951 119.575 431.283 C 135.544 438.59 148.977 452.396 157.441 467.616 C 169.33 488.996 176.196 512.399 184.084 535.402 A 4875.61 4875.61 0 0 1 215.079 628.04 A 12555.7 12555.7 0 0 0 307.904 899.088 C 269.01 946.794 242.284 989.74 226.789 1050.05 C 224.389 1059.39 221.813 1068.98 220.13 1078.47 C 218.888 1085.48 218.376 1092.29 216.823 1099.36 L 216.047 1099.76 C 214.706 1095.28 215.982 1090.06 215.579 1085.4 C 214.045 1067.66 212.611 1049.9 210.704 1032.17 C 207.643 1027.7 207.83 1014.43 206.853 1008.77 C 206.216 1005.07 204.386 1001.93 203.436 998.354 C 201.799 992.192 201.202 985.702 199.678 979.49 C 190.321 941.35 174.179 902.247 152.618 869.414 C 150.135 865.633 147.52 859.71 143.66 857.373 L 142.464 857.801 C 133.762 871.156 128.846 910.458 126.805 927.582 C 125.777 936.212 126.619 945.764 123.184 953.978 L 122.102 953.696 C 116.068 939.202 111.063 924.117 105.817 909.316 C 74.978 822.317 56.0964 733.407 44.111 642.069 C 37.6727 593.005 28.5452 478.545 59.1055 439.615 C 66.5042 430.191 75.4673 426.777 87.066 425.301 z"/>
<path transform="translate(0,0)" fill="rgb(237,231,213)" d="M 1705.78 689.009 C 1716.77 685.777 1729.58 684.371 1740.99 683.119 C 1742.28 684.194 1742.35 684.091 1742.56 685.737 C 1746.64 685.143 1751.29 684.008 1755.34 685.003 L 1755.86 686.063 L 1754.95 686.302 L 1754.3 687.289 L 1755.11 688.572 C 1746.38 710.968 1736.63 732.926 1727.49 755.151 L 1680.2 873.332 C 1672.29 893.474 1663.99 913.534 1656.34 933.768 C 1648.8 953.73 1641.88 975.449 1631.62 994.156 C 1627.39 1001.87 1620.7 1008.78 1612.58 1012.46 C 1602.13 1017.21 1588.12 1018.35 1576.78 1020.46 L 1519.69 1031.15 L 1384.34 1057.34 L 1307.39 1072.49 C 1291.48 1075.61 1275.48 1078.09 1259.7 1081.88 L 1263.52 1082.11 C 1263.2 1082.48 1263.13 1082.62 1262.66 1082.92 C 1259.7 1084.8 1255.27 1085.5 1251.84 1085.04 C 1247.96 1084.53 1246.96 1083.01 1244.67 1080.08 C 1248.65 1074.03 1263.71 1036.43 1264.98 1029.14 C 1270.53 1020.28 1274.94 1005.07 1278.95 995.143 L 1300.54 940.8 C 1305.41 928.694 1311.83 915.615 1314.69 902.888 C 1318.26 898.467 1339.92 843.249 1339.87 838.153 C 1342.64 835.401 1370.46 767.017 1370.8 761.954 L 1373.63 763.339 L 1374.53 762.844 C 1377.19 760.395 1378.45 756.232 1380.34 753.125 C 1386.41 743.16 1410.18 743.623 1420.67 740.814 C 1429.56 739.824 1479.84 731.966 1484.58 728.959 C 1494.38 729.216 1601.97 710.941 1607.68 708.089 L 1609.81 704.908 L 1613.5 703.834 C 1617.84 702.986 1622.14 702.359 1626.53 701.842 C 1638.79 699.926 1650.99 697.084 1663.34 695.854 C 1676.68 693.447 1692.35 688.986 1705.78 689.009 z"/>
<path transform="translate(0,0)" fill="rgb(103,67,67)" d="M 1613.5 703.834 C 1617.84 702.986 1622.14 702.359 1626.53 701.842 L 1631.61 702.31 L 1632.2 703.396 L 1631.72 704.697 C 1627.02 705.426 1622.32 706.244 1617.59 706.791 C 1614.29 707.452 1611.07 708.209 1607.68 708.089 L 1609.81 704.908 L 1613.5 703.834 z"/>
<path transform="translate(0,0)" fill="rgb(108,73,75)" d="M 1626.53 701.842 C 1638.79 699.926 1650.99 697.084 1663.34 695.854 L 1667.6 698.093 C 1661.82 701.373 1639.41 703.565 1631.72 704.697 L 1632.2 703.396 L 1631.61 702.31 L 1626.53 701.842 z"/>
<path transform="translate(0,0)" fill="rgb(108,73,75)" d="M 1705.78 689.009 C 1716.77 685.777 1729.58 684.371 1740.99 683.119 C 1742.28 684.194 1742.35 684.091 1742.56 685.737 C 1731.45 688.652 1718.11 691.645 1706.62 691.926 L 1705.78 689.009 z"/>
<path transform="translate(0,0)" fill="rgb(108,77,77)" d="M 1663.34 695.854 C 1676.68 693.447 1692.35 688.986 1705.78 689.009 L 1706.62 691.926 C 1699.35 695.21 1675.39 698.435 1667.6 698.093 L 1663.34 695.854 z"/>
<path transform="translate(0,0)" fill="rgb(108,73,75)" d="M 1264.98 1029.14 C 1265.94 1030.11 1266.51 1030.61 1266.75 1031.98 C 1269.19 1040.05 1247.68 1075.99 1249.6 1083.13 C 1253.36 1083.72 1256.13 1082.13 1259.7 1081.88 L 1263.52 1082.11 C 1263.2 1082.48 1263.13 1082.62 1262.66 1082.92 C 1259.7 1084.8 1255.27 1085.5 1251.84 1085.04 C 1247.96 1084.53 1246.96 1083.01 1244.67 1080.08 C 1248.65 1074.03 1263.71 1036.43 1264.98 1029.14 z"/>
<path transform="translate(0,0)" fill="rgb(103,67,67)" d="M 1508.74 829.976 C 1522.27 823.868 1536.1 818.966 1550.83 824.676 C 1557.83 827.391 1562.98 832.65 1565.81 839.577 C 1567.95 844.8 1570.62 853.295 1568.46 858.893 C 1568.2 859.578 1567.85 860.21 1567.47 860.839 L 1565.19 859.835 C 1566.32 854.461 1565.31 848.252 1563.37 843.146 C 1560.83 836.479 1555.37 831.201 1548.9 828.34 C 1534.09 821.794 1523.38 827.826 1509.78 833.004 L 1508.74 829.976 z"/>
<path transform="translate(0,0)" fill="rgb(108,73,75)" d="M 1339.87 838.153 L 1344.14 836.246 L 1343.82 839.012 C 1344.72 843.097 1323.8 895.695 1320.23 901.799 C 1319.72 902.678 1319.14 903.175 1318.39 903.843 L 1317.17 905.134 L 1314.69 902.888 C 1318.26 898.467 1339.92 843.249 1339.87 838.153 z"/>
<path transform="translate(0,0)" fill="rgb(108,77,77)" d="M 1339.87 838.153 C 1342.64 835.401 1370.46 767.017 1370.8 761.954 L 1373.63 763.339 L 1374.53 762.844 C 1374.95 766.374 1348.21 833.983 1346.05 836.987 C 1345.42 837.853 1344.72 838.457 1343.82 839.012 L 1344.14 836.246 L 1339.87 838.153 z"/>
<path transform="translate(0,0)" fill="rgb(108,77,77)" d="M 1264.98 1029.14 C 1270.53 1020.28 1274.94 1005.07 1278.95 995.143 L 1300.54 940.8 C 1305.41 928.694 1311.83 915.615 1314.69 902.888 L 1317.17 905.134 L 1318.39 903.843 C 1318.62 905.248 1318.74 906.141 1318.24 907.517 C 1307.18 938.306 1294.23 968.928 1281.87 999.236 C 1278.21 1008.21 1274.17 1022.23 1269.06 1029.88 C 1268.45 1030.8 1267.68 1031.41 1266.75 1031.98 C 1266.51 1030.61 1265.94 1030.11 1264.98 1029.14 z"/>
<path transform="translate(0,0)" fill="rgb(108,73,75)" d="M 1567.47 860.839 C 1568.52 862.935 1568.47 864.423 1568.14 866.674 C 1566.11 880.443 1555.05 895.876 1544.1 903.872 C 1532.95 912.011 1517.65 916.856 1503.84 914.674 C 1495.29 913.324 1487.42 909 1482.31 901.929 C 1476.57 893.979 1475.11 884.072 1476.75 874.542 C 1480.17 854.615 1492.83 841.097 1508.74 829.976 L 1509.78 833.004 C 1509.64 833.268 1509.51 833.536 1509.36 833.796 C 1507.89 836.381 1502.56 838.973 1500.13 841.04 C 1486.29 852.81 1476.76 871.887 1480.9 890.339 C 1482.45 897.239 1486.53 903.088 1492.61 906.728 C 1501.68 912.146 1513.46 912.255 1523.4 909.518 C 1537.96 905.51 1551.43 894.837 1558.86 881.715 C 1562.24 875.739 1565.48 866.837 1565.19 859.835 L 1567.47 860.839 z"/>
<path transform="translate(0,0)" fill="rgb(237,231,213)" d="M 1509.78 833.004 C 1523.38 827.826 1534.09 821.794 1548.9 828.34 C 1555.37 831.201 1560.83 836.479 1563.37 843.146 C 1565.31 848.252 1566.32 854.461 1565.19 859.835 C 1565.48 866.837 1562.24 875.739 1558.86 881.715 C 1551.43 894.837 1537.96 905.51 1523.4 909.518 C 1513.46 912.255 1501.68 912.146 1492.61 906.728 C 1486.53 903.088 1482.45 897.239 1480.9 890.339 C 1476.76 871.887 1486.29 852.81 1500.13 841.04 C 1502.56 838.973 1507.89 836.381 1509.36 833.796 C 1509.51 833.536 1509.64 833.268 1509.78 833.004 z"/>
<path transform="translate(0,0)" fill="rgb(103,67,67)" d="M 1548.99 833.497 C 1550.45 833.223 1551.96 833.218 1553.44 833.149 L 1554.73 834.496 C 1554.36 843.161 1546.51 891.781 1542.19 896.295 C 1537.12 895.236 1531.66 895.015 1526.5 894.471 C 1525.47 890.599 1521.3 886.894 1518.22 884.525 C 1518.01 885.129 1517.98 885.311 1517.54 885.892 C 1513.49 891.2 1502.38 899.399 1495.74 899.944 C 1495.17 899.604 1494.42 899.464 1494.04 898.926 C 1491.6 895.501 1503.82 858.363 1501.24 849.351 C 1501.19 849.167 1501.12 848.987 1501.06 848.806 C 1502.14 847.464 1502.33 845.986 1503.01 844.459 C 1504.26 841.642 1504.7 841.545 1507.49 840.569 C 1509.97 840.822 1511.69 841.887 1513.47 843.584 C 1516.94 846.894 1520.96 853.329 1520.99 858.189 C 1517.04 856.937 1510.73 845.571 1504.6 842.321 C 1504.67 842.52 1504.73 842.722 1504.81 842.918 C 1505.15 843.833 1505.56 844.757 1505.64 845.744 C 1506.35 853.541 1501.3 879.12 1496.48 885.106 C 1497.5 884.497 1498.48 883.856 1499.49 883.233 C 1503.94 880.461 1547.55 836.303 1548.99 833.497 z"/>
<path transform="translate(0,0)" fill="rgb(237,231,213)" d="M 1527.53 875.496 C 1528.99 875.533 1529.94 875.891 1531.28 876.412 C 1534.76 880.286 1539.64 884.57 1539.68 890.097 C 1539.69 891.086 1538.94 891.42 1538.27 892.09 L 1533.08 892.026 C 1527.96 890.432 1524.53 885.707 1520.13 882.704 C 1523.19 881.047 1526.17 878.79 1527.53 875.496 z"/>
<path transform="translate(0,0)" fill="rgb(237,231,213)" d="M 1549.34 838.498 C 1549.89 839.013 1550.28 839.845 1550.67 840.491 C 1549.72 850.847 1546.3 873.287 1542.85 882.617 L 1541.23 883.333 C 1536.8 880.924 1535.2 875.557 1530.95 872.585 C 1530.75 872.45 1530.55 872.325 1530.35 872.195 C 1531.35 871.591 1532.13 871.024 1532.95 870.184 C 1537.27 865.751 1541.49 861.16 1541.39 854.668 C 1538.22 861.964 1525.47 876.016 1518.29 879.933 C 1517.81 881.843 1516.03 883.113 1514.63 884.405 C 1510.59 888.145 1503.07 895.75 1497.41 895.527 L 1496.83 893.893 C 1504.34 879.199 1536.44 850.408 1549.34 838.498 z"/>
<path transform="translate(0,0)" fill="rgb(237,231,213)" d="M 1836.42 601.933 C 1839.6 596.249 1839.21 583.996 1839.62 577.436 L 1857.55 251.265 C 1860.3 205.33 1861.53 158.674 1866.49 112.95 C 1896.63 74.4687 1941.56 46.8596 1986.11 28.2056 C 1997.74 23.3314 2011.7 21.2795 2022.65 15.3088 C 2022.83 15.2105 2023 15.1057 2023.18 15.0042 C 2022.31 16.8403 2021.18 18.039 2019.53 19.1977 C 2012.83 23.9026 2005.18 27.1533 1998.13 31.2534 C 1988.59 36.7922 1979.03 44.2284 1970.52 51.2111 C 1939.29 76.843 1910.12 106.571 1892.6 143.496 C 1882.63 164.488 1880.51 185.675 1882.19 208.601 C 1882.6 214.161 1882.63 220.377 1884.52 225.659 C 1888.73 223.335 1896.42 211.446 1900.35 206.999 C 1933.15 169.854 1975.97 139.117 2023.15 122.941 C 2029.08 120.907 2037.61 117.138 2043.8 116.819 C 2044.97 116.758 2045.62 116.546 2046.68 115.957 C 2047.66 119.241 2047.69 119.628 2046.64 122.885 C 2049.06 128.488 2049.32 247.531 2047.15 252.828 C 2046.94 253.336 2046.86 253.461 2046.62 253.899 C 2048.41 258.403 2049.02 265.771 2046.96 270.296 C 2046.84 270.547 2046.71 270.789 2046.59 271.035 C 2047.29 272.537 2047.78 273.977 2047.88 275.638 C 2048.67 289.036 2049.14 431.877 2047.16 436.876 C 2046.95 437.393 2046.87 437.525 2046.63 437.972 C 2049.85 445.206 2048.03 548.784 2048.03 564.359 L 2048.01 1009.09 C 2048.01 1023.89 2049.62 1143.92 2047.29 1150.13 C 2047.04 1150.8 2046.66 1151.42 2046.25 1152 L 1907.72 1152 L 1766.45 1152 L 1745.59 1152 C 1754.17 1144.7 1760.96 1133.06 1768.54 1124.46 A 601.864 601.864 0 0 1 1816.31 1076.89 C 1829.09 1065.33 1843.54 1055.03 1857.24 1044.56 C 1911.79 1002.89 1969.82 962.331 2004.76 901.402 C 2009.49 893.142 2016.39 883.183 2019.38 874.224 C 2020.07 872.139 2020.28 871.573 2019.32 869.571 C 2011.47 869.32 1973.14 885.455 1963.05 889.295 A 422.098 422.098 0 0 0 1752.29 1068.16 C 1748.1 1075.3 1734.77 1108.43 1730.18 1111.37 C 1725.14 1109.05 1722.04 1098.89 1717.12 1094.56 C 1718.68 1093.34 1742.93 1047.78 1747.24 1041.08 A 604.822 604.822 0 0 1 1831.59 937.755 A 745.486 745.486 0 0 1 1944.89 845.118 C 1959.44 835.278 1974.64 826.171 1989.73 817.199 C 1999.51 811.387 2018.09 803.007 2025.47 794.794 C 2025.88 792.378 2026.12 790.984 2025.13 788.699 C 2016.09 784.487 1989.79 804.129 1979.8 807.518 L 1978.85 807.829 C 1979.23 807.465 1979.6 807.099 1979.96 806.718 L 1980.43 806.205 C 1981.2 805.376 1981.85 804.599 1982.38 803.578 C 1987.3 794.031 1990.22 782.632 1993.27 772.346 C 2010.21 715.306 2013.72 656.055 2011.11 596.849 C 2010.75 588.564 2010.21 567.391 2007.76 560.615 C 2007.21 559.103 2006.67 559.274 2005.29 558.632 C 1993.86 558.823 1919.84 630.758 1906.41 644.268 C 1896.73 653.99 1883.78 670.975 1872.34 677.581 C 1872.07 677.743 1871.78 677.897 1871.5 678.054 C 1884.62 664.551 1898.24 595.716 1901.34 575.266 C 1902.93 564.783 1901.76 553.12 1904.78 542.983 C 1910.3 524.461 1904.3 483.024 1909.44 466.731 C 1909.86 465.392 1909.3 464.74 1908.81 463.467 C 1906.39 462.031 1906.05 461.935 1903.24 462.074 C 1902.62 462.501 1901.83 462.753 1901.38 463.355 C 1898.33 467.411 1898.89 534.997 1894.53 549.601 C 1891.93 558.311 1892.94 568.388 1891.36 577.41 C 1885.42 611.556 1865.55 694.526 1837.71 714.193 A 21.3042 21.3042 0 0 0 1840.27 710.571 C 1845.36 701.321 1847.91 684.18 1850.57 673.663 C 1856.97 648.373 1881.75 560.743 1875.9 539.912 L 1875.31 541.368 C 1872.53 541.74 1871.95 541.118 1869.52 539.865 C 1869.29 543.865 1860.78 554.737 1858.5 558.664 C 1853.09 567.997 1841.03 597.393 1836.42 601.933 z"/>
<path transform="translate(0,0)" fill="rgb(103,67,67)" d="M 1869.52 539.865 C 1871.86 537.508 1874.1 535.122 1876.25 532.588 L 1877.36 533.07 C 1877.57 536.058 1877.9 537.5 1875.9 539.912 L 1875.31 541.368 C 1872.53 541.74 1871.95 541.118 1869.52 539.865 z"/>
<path transform="translate(0,0)" fill="rgb(108,77,77)" d="M 2046.59 271.035 C 2047.29 272.537 2047.78 273.977 2047.88 275.638 C 2048.67 289.036 2049.14 431.877 2047.16 436.876 C 2046.95 437.393 2046.87 437.525 2046.63 437.972 C 2039.63 443.85 2031.68 448.588 2024.69 454.491 C 2010.71 466.305 1997.15 481.262 1985.61 495.405 C 1979.12 503.361 1974.58 512.964 1968 520.723 C 1966.55 522.43 1966.48 522.817 1964.12 523.027 C 1962.52 521.71 1962.02 521.219 1961.73 519.105 C 1961.28 515.857 1962.05 512.034 1962.07 508.694 C 1962.17 493.612 1962.16 479.899 1964.13 464.879 C 1973.82 391.043 2000.62 329.595 2046.59 271.035 z"/>
<path transform="translate(0,0)" fill="rgb(108,77,77)" d="M 1895.27 389.386 C 1900.38 379.346 1898.8 354.496 1900.46 341.857 C 1902.26 328.184 1904.86 315.023 1908.26 301.67 C 1926.55 229.909 1983.47 160.34 2046.64 122.885 C 2049.06 128.488 2049.32 247.531 2047.15 252.828 C 2046.94 253.336 2046.86 253.461 2046.62 253.899 C 2043.9 256.707 2012.01 274.714 2005.04 279.465 C 1985.34 292.876 1967.86 308.263 1950.45 324.453 C 1940.58 333.627 1931.02 343.409 1922.48 353.842 C 1914.36 363.753 1905.44 383.128 1895.27 389.386 z"/>
<path transform="translate(0,0)" fill="rgb(108,77,77)" d="M 1766.45 1152 C 1786.94 1130.61 1805.71 1109.83 1829.32 1091.49 C 1850.36 1075.16 1873.04 1061.19 1894.91 1046.04 C 1918.57 1029.66 1941.69 1011.2 1962.09 990.915 C 1976.73 976.359 1990.63 960.259 2002.44 943.29 C 2007.02 936.706 2010.61 929.331 2015.47 922.981 C 2017.08 920.885 2019.14 918.215 2021.77 917.428 C 2023.92 916.782 2024.36 917.368 2026.17 918.436 C 2026.64 919.651 2026.88 920.518 2026.69 921.835 C 2025.48 930.195 2017.7 940.178 2013.04 947.028 C 1979.53 996.196 1942.33 1025.39 1895.01 1059.8 L 1895.54 1061.64 C 1889.18 1067.12 1881.48 1071.02 1874.56 1075.76 L 1875 1076.39 C 1879.8 1075.81 1897.9 1069.03 1900.64 1070.87 L 1901.73 1070.71 C 1914.94 1068.69 1927.96 1064.32 1941.08 1061.58 C 1953.14 1059.07 2018.8 1048.13 2025.92 1051.94 C 2026.71 1054.87 2026.47 1056.32 2024.95 1059 C 2021.93 1064.29 2016.87 1069.13 2012.73 1073.56 C 1982.92 1105.39 1945.09 1130.02 1907.72 1152 L 1766.45 1152 z"/>
<path transform="translate(0,0)" fill="rgb(237,231,213)" d="M 1900.64 1070.87 C 1896.37 1074.26 1876.92 1078.19 1870.28 1080.52 C 1866.44 1081.87 1863.16 1084.19 1859.17 1085.17 C 1864.94 1076.28 1885.72 1066.75 1895.01 1059.8 L 1895.54 1061.64 C 1889.18 1067.12 1881.48 1071.02 1874.56 1075.76 L 1875 1076.39 C 1879.8 1075.81 1897.9 1069.03 1900.64 1070.87 z"/>
<path transform="translate(0,0)" fill="rgb(237,231,213)" d="M 470.486 1003.38 C 464.914 991.446 460.316 979.057 455.209 966.917 C 447.554 948.72 439.498 930.592 433.243 911.847 C 424.268 884.946 417.141 857.176 410 829.747 C 390.055 753.131 369.158 654.458 395.739 577.701 C 414.659 523.066 466.22 495.964 514.711 471.465 C 543.981 456.676 573.916 443.262 603.408 428.917 C 593.322 472.823 594.808 523.805 603.072 568.012 C 605.827 582.75 608.523 599.726 615.678 612.99 C 629.266 638.178 664.14 641.991 688.692 650.733 A 146.203 146.203 0 0 1 723.516 668.319 C 765.892 697.471 770.544 745.393 774.804 792.656 C 777.293 820.283 778.745 847.962 780.42 875.646 C 781.162 887.924 780.993 901.233 783.334 913.295 L 783.558 914.408 C 767.811 917.064 749.871 922.916 734.034 922.532 C 725.258 922.319 714.589 917.647 705.885 915.644 C 695.473 913.248 684.708 912.01 674.123 910.587 C 675.108 879.805 667.421 866.252 648.391 843.401 C 648.375 842.572 648.337 841.741 648.329 840.912 C 648.034 810.311 634.619 787.427 628.883 759.588 C 626.345 747.271 626.939 733.302 625.562 720.703 C 622.375 691.544 615.072 663.56 604.568 636.227 C 587.289 591.266 560.991 546.523 523.418 515.775 C 517.299 510.767 510.113 504.738 502.79 501.616 C 500.569 500.669 499.636 500.19 497.323 501.103 C 498.368 503.752 515.838 514.401 519.485 517.479 C 584.749 572.555 612.454 660.377 619.482 742.873 C 611.251 726.249 560.367 632.691 547.808 624.618 C 547.003 624.101 546.454 624.53 545.573 624.751 C 545.528 625.323 545.351 625.9 545.44 626.467 C 545.453 626.55 570.673 669.839 573.777 675.488 C 599.926 723.075 627.782 775.988 634.776 830.564 C 623.592 817.351 611.403 805.044 600.459 791.613 C 583.596 770.917 568.191 749.129 551.453 728.428 L 550.679 729.934 C 547.038 725.122 544.07 720.199 540.86 715.125 L 540.113 715.639 C 541.651 719.621 548.509 727.446 547.698 730.858 L 547.37 731.199 C 564.045 758.032 583.77 783.268 603.859 807.625 C 619.828 826.987 640.1 847.408 651.341 869.948 C 657.64 882.58 660.151 895.143 660.201 909.21 C 643.482 908.251 648.322 901.456 636.824 896.475 C 608.2 884.076 563.366 895.112 540.78 915.35 C 531.456 923.706 527.361 931.931 524.019 943.63 C 524.931 948.45 525.66 953.26 530.159 956.135 C 533.944 958.553 539.435 957.9 543.573 956.788 C 557.603 953.018 570.978 941.497 584.118 934.974 C 614.831 919.725 649.766 919.505 683.165 923.785 C 691.088 924.8 698.341 927.165 706.508 927.85 L 707.307 928.68 C 698.927 933.041 668.387 937.693 657.242 940.394 C 645.309 943.286 577.218 964.083 572.347 974.463 C 572.273 974.622 572.244 974.798 572.193 974.965 C 573.355 976.227 573.768 976.167 575.52 976.254 C 577.516 976.354 579.302 976.039 581.196 975.412 C 586.791 973.558 591.988 970.376 597.475 968.203 C 605.737 964.931 614.548 962.457 623.011 959.739 C 673.02 943.675 726.134 934.684 778.015 926.818 C 790.158 924.977 805.168 921.157 817.337 922.764 C 829.135 924.321 855.786 938.119 866.401 944.77 C 851.477 947.489 842.36 955.267 833.851 967.591 C 821.701 985.189 815.679 1008.31 819.631 1029.49 C 820.295 1033.06 821.185 1037.17 823.2 1040.23 C 824.261 1044.79 826.96 1048.71 829.73 1052.43 C 832.31 1054.94 834.844 1057.6 837.595 1059.92 C 845.365 1058.32 852.683 1057.85 860.626 1058.08 C 848.913 1066.56 835.513 1072.95 822.119 1078.3 C 805.148 1074.17 787.113 1073.84 769.856 1070.74 L 769.828 1069.17 C 766.323 1069.8 763.953 1069.88 760.728 1068.35 C 759.233 1069.29 758.17 1069.12 756.492 1068.94 C 723.254 1065.5 689.644 1058.64 656.601 1053.46 C 603.932 1045.2 551.094 1037.71 498.526 1028.85 C 503.581 1022.71 516.657 1009.28 518.606 1002.36 L 517.684 1001.05 C 507.774 996.802 482.121 1001.83 470.486 1003.38 z"/>
<path transform="translate(0,0)" fill="rgb(103,67,67)" d="M 760.728 1068.35 C 766.663 1064.97 773.815 1062.71 780.179 1060.17 C 781.575 1061 783.107 1061.79 784.413 1062.75 C 779.612 1064.95 774.805 1067.4 769.828 1069.17 C 766.323 1069.8 763.953 1069.88 760.728 1068.35 z"/>
<path transform="translate(0,0)" fill="rgb(108,73,75)" d="M 780.179 1060.17 C 786.602 1057.37 805.142 1046.81 811.569 1048.52 C 811.308 1050.49 811.244 1050.63 809.709 1051.9 C 805.548 1055.32 789.98 1061.26 784.413 1062.75 C 783.107 1061.79 781.575 1061 780.179 1060.17 z"/>
<path transform="translate(0,0)" fill="rgb(103,67,67)" d="M 547.37 731.199 C 541.855 725.654 524.312 696.142 521.678 688.535 L 522.951 687.133 L 524.083 687.444 L 521.489 687.672 L 523.79 687.305 C 531.898 694.931 545.765 718.111 551.453 728.428 L 550.679 729.934 C 547.038 725.122 544.07 720.199 540.86 715.125 L 540.113 715.639 C 541.651 719.621 548.509 727.446 547.698 730.858 L 547.37 731.199 z"/>
<path transform="translate(0,0)" fill="rgb(108,77,77)" d="M 416.75 556.311 C 455.724 554.616 497.701 570.808 527.686 595.374 C 530.128 597.374 532.904 599.005 533.214 602.209 L 531.582 602.444 C 507.511 582.798 473.955 565.311 442.899 561.601 C 434.668 560.618 421.454 562.053 414.102 559.105 L 414.05 557.63 L 416.75 556.311 z"/>
<path transform="translate(0,0)" fill="rgb(108,73,75)" d="M 810.423 976.272 C 812.811 975.934 815.058 976.036 817.455 976.146 L 818.67 977.896 C 818.353 978.363 818.171 978.96 817.719 979.299 C 815.463 980.99 790.007 984.537 784.956 985.62 C 750.2 993.071 715.872 1002.63 681.053 1009.82 C 680.428 1010.02 679.8 1010.21 679.158 1010.35 C 676.732 1010.86 674.56 1010.86 672.461 1009.49 C 677.575 1004.17 797.714 978.579 810.423 976.272 z"/>
<path transform="translate(0,0)" fill="rgb(108,73,75)" d="M 561.8 851.174 C 581.535 848.874 606.448 854.35 624.464 862.616 C 626.79 863.683 626.988 864.045 627.851 866.299 L 626.845 867.635 C 620.341 867.501 613.075 863.719 606.945 861.555 C 595.117 857.378 580.374 854.338 567.801 855.31 C 545.943 857 528.448 870.586 514.749 886.676 C 503.734 898.661 496.736 914.967 491.62 930.13 C 490.657 932.985 489.678 935.824 486.899 937.193 L 485.861 936.178 C 484.927 926.626 494.81 909.424 499.626 901.21 C 514.358 876.086 533.243 858.581 561.8 851.174 z"/>
<path transform="translate(0,0)" fill="rgb(237,231,213)" d="M 633.502 0 L 1085.03 0 L 1165.58 0 L 1249.76 0 C 1249.62 0.246533 1249.48 0.498871 1249.32 0.7396 C 1248.32 2.29092 1212.94 21.8779 1207.96 25.1574 C 1165.45 53.1365 1113.6 116.558 1108.49 169.048 L 1109.18 170.799 L 1111.43 171.555 C 1117.28 167.604 1122.29 161.731 1127.67 157.072 C 1139.87 146.489 1152.49 136.122 1165.73 126.857 A 533.738 533.738 0 0 1 1427.72 32.4177 C 1444.33 31.1732 1487.4 27.2435 1502.35 31.2702 C 1503.07 31.4648 1503.26 31.6459 1503.81 32.0178 L 1501.99 32.8225 L 1502.35 32.7031 L 1502.13 31.161 L 1501.46 30.9841 L 1500.78 32.9444 C 1403.67 40.4303 1308.48 75.9135 1243.75 151.383 C 1218.26 181.109 1201.81 212.283 1196.83 251.486 C 1195.99 258.098 1194.54 265.766 1195.17 272.404 C 1195.34 274.21 1195.97 275.68 1196.96 277.176 C 1197.72 277.436 1198.91 278.115 1199.63 277.757 C 1200.25 277.448 1237.66 242.698 1243.8 237.805 C 1283.26 206.355 1331.83 182.398 1380.82 170.701 C 1402.73 165.469 1425.22 162.596 1447.48 159.359 C 1447.46 159.516 1447.45 159.673 1447.42 159.829 C 1447.08 161.733 1417.42 208.674 1413.41 216.652 A 810.99 810.99 0 0 0 1380.91 289.3 C 1372.13 311.611 1364.71 335.445 1352.67 356.197 C 1348.88 362.747 1344.6 370.368 1339.57 376.031 C 1335.03 381.135 1321.18 388.974 1320.28 395.487 C 1329.29 404.765 1431.7 410.955 1451.04 411.242 C 1547.53 412.67 1643.93 398.884 1729.78 352.275 C 1751.49 340.485 1773.42 326.598 1791.19 309.267 C 1794.51 306.032 1801.58 299.918 1802.81 295.524 C 1806.47 309.013 1799.67 339.522 1798.44 354.851 L 1779.95 575.907 C 1778.93 589.049 1778.74 632.841 1775.96 641.469 L 1775.44 641.483 C 1775.32 640.533 1775.37 639.375 1774.87 638.571 C 1769.68 630.091 1764.44 608.965 1760.14 598.457 C 1738.05 544.475 1714.93 491.509 1679.96 444.383 C 1674.36 436.838 1665.47 424.349 1656.8 420.429 C 1656.03 420.676 1655.21 420.661 1654.84 421.42 C 1653.15 424.872 1654.18 428.607 1652.96 432.159 L 1655.21 429.902 L 1656.66 431.012 C 1656.86 433.378 1657.21 435.647 1656.59 437.972 C 1657.38 436.549 1657.4 436.02 1658.95 435.402 C 1664.36 438.919 1668.79 445.755 1672.56 450.905 C 1712.32 505.188 1738.58 569.472 1760.98 632.512 C 1766.07 646.833 1772.7 661.982 1774.98 677.006 C 1777.5 693.649 1771.54 736.994 1770.64 755.784 C 1770.02 768.842 1771.78 783.017 1769.64 795.892 C 1768.53 802.525 1766.09 806.838 1760.55 810.717 C 1762.12 796.717 1740.94 766.321 1741.69 754.252 C 1743.1 731.436 1766.72 704.436 1767.79 681.668 C 1767.86 680.167 1767.56 678.72 1767.11 677.293 C 1767.3 675.72 1767.1 674.679 1766.55 673.216 C 1763.96 666.412 1758.41 661.861 1751.92 658.93 C 1747.07 659.755 1742.51 660.431 1737.56 660.307 C 1733.02 654.004 1729.56 623.119 1727.36 613.817 C 1720.2 583.538 1709.14 550.384 1690.23 525.231 C 1688.77 523.288 1687.74 521.926 1685.28 521.555 C 1682.59 529.206 1691.99 607.872 1695.81 616.765 C 1702.45 632.213 1717.59 647.581 1720.87 663.955 L 1719.9 664.526 C 1711.99 659.973 1694.32 632.42 1687.53 623.975 C 1651.72 579.422 1601.68 534.129 1548.09 512.336 C 1544.75 510.977 1541.69 509.843 1538.25 511.3 C 1538 517.863 1548.76 529.932 1552.56 535.583 C 1578.85 574.651 1603.54 614.087 1625.28 655.888 C 1627.6 660.339 1634.03 670.049 1634.26 674.764 C 1634.28 675.126 1634.27 675.488 1634.28 675.85 C 1627.52 676.971 1603.06 683.159 1597.87 679.569 C 1592.04 675.533 1573.44 644.607 1567.54 636.463 C 1535.53 592.333 1498.21 551.577 1453.62 519.86 C 1447.53 515.527 1439.37 508.589 1432.16 506.437 C 1430.02 505.798 1429.48 506.348 1427.58 507.284 C 1424.35 512.371 1428.01 519.341 1428.81 524.835 C 1435.7 572.439 1448.98 618.829 1464.06 664.452 C 1467.79 675.742 1474.8 687.543 1477.09 698.992 C 1477.41 700.604 1477.54 700.747 1476.6 702.166 C 1456.95 705.431 1437.24 709.779 1417.68 713.629 C 1406.73 715.787 1395.32 716.479 1384.53 719.424 A 51.373 51.373 0 0 0 1371.93 724.707 C 1365.49 728.561 1360.2 735.97 1356.55 742.38 C 1349.6 754.57 1344.85 769.27 1339.57 782.284 L 1314.68 842.662 C 1310.5 853.01 1300.04 883.469 1294.29 890.429 C 1282.89 890.76 1270.49 888.105 1259.12 886.617 C 1231.81 883.042 1204.46 878.463 1177 876.311 C 1188.12 870.025 1185.83 860.74 1201.9 858.076 C 1213.39 856.173 1227.16 853.09 1234.24 842.844 C 1237.4 838.28 1239.29 828.576 1238.29 823.13 C 1241.85 820.947 1246.75 817.125 1248.89 813.49 C 1255.05 803.008 1241.17 795.208 1239.11 785.972 C 1238.97 785.345 1238.73 782.261 1239.17 781.776 C 1243.91 776.578 1255.03 776.201 1261.79 764.148 C 1263.19 761.645 1264.19 758.46 1263.21 755.643 C 1261.34 750.224 1255.38 745.633 1250.44 743.203 A 28.5721 28.5721 0 0 0 1252.2 741.211 C 1256.88 735.457 1260.43 726.505 1264.21 719.995 C 1272.28 706.131 1283.43 690.866 1289.72 676.364 C 1290.84 673.782 1291.51 670.318 1291.03 667.525 C 1290.42 664.053 1287.37 661.235 1284.48 659.468 C 1282.42 658.21 1280.07 657.284 1277.63 657.163 C 1264.86 656.531 1197.75 665.047 1185.35 668.32 C 1181.87 669.239 1177.54 670.592 1174.78 672.992 C 1162.73 683.439 1127.32 754.183 1116.12 773.358 C 1115.93 773.239 1115.74 773.124 1115.55 773.002 C 1092.31 757.918 999.355 615.862 978.649 581.637 C 966.732 561.942 956.023 541.388 944.978 521.19 C 981.475 487.492 997.471 451.389 1012.12 405.243 C 1019.56 402.401 1026.76 399.108 1033.99 395.754 C 1027.84 394.571 1021.76 393.084 1015.66 391.664 C 1019.31 384.529 1024.07 377.996 1027.87 370.949 C 1035.9 356.045 1038.66 336.702 1038.95 319.97 C 1048.56 317.315 1056.97 313.631 1064.58 307.027 C 1074.73 298.21 1080.21 286.403 1081.16 273.059 C 1082.56 253.387 1075.45 238.913 1062.93 224.505 C 1063.05 220.706 1063.29 216.699 1062.8 212.92 C 1059.67 188.657 1036.08 168.415 1014.21 159.982 C 1008.2 157.663 1001.15 157.549 995.457 154.596 C 986.165 149.776 977.039 139.723 968.651 133.169 C 922.911 97.43 854.253 73.0872 796.063 80.406 C 752.609 85.8714 712.622 105.481 685.381 140.433 L 682.886 137.758 C 683.992 135.722 684.173 135.623 683.816 133.208 C 679.041 126.143 669.617 123.41 661.671 121.657 C 637.695 116.366 613.706 126.256 597.966 144.52 C 594.645 148.373 592.422 154.197 588.658 157.424 C 585.022 160.541 572.041 163.895 566.252 167.684 A 67.5658 67.5658 0 0 0 536.658 211.184 C 533.008 229.617 536.199 250.45 546.717 266.143 A 65.6831 65.6831 0 0 0 588.555 294.33 L 590.239 312.781 C 580.424 313.118 570.396 315.54 560.674 316.978 A 5388.11 5388.11 0 0 0 495.544 326.479 C 482.63 328.335 469.252 330.982 456.229 331.275 C 466.201 299.611 518.799 102.114 526.159 92.6637 C 531.202 86.1883 539.284 80.1474 545.377 74.5745 C 573.839 48.5415 604.637 25.4708 633.502 0 z"/>
<path transform="translate(0,0)" fill="rgb(103,67,67)" d="M 1652.96 432.159 L 1655.21 429.902 L 1656.66 431.012 C 1656.86 433.378 1657.21 435.647 1656.59 437.972 C 1657.37 440.654 1657.41 441.142 1656.69 443.835 L 1652.7 443.834 C 1653.14 443.282 1653.56 442.727 1653.89 442.101 C 1655.55 438.978 1654 435.236 1652.96 432.159 z"/>
<path transform="translate(0,0)" fill="rgb(108,73,75)" d="M 1652.7 443.834 L 1656.69 443.835 C 1660.3 448.176 1660.87 471.938 1660.29 478.314 C 1660.18 479.549 1660.06 479.863 1659.38 480.877 C 1662.55 485.05 1663.07 498.29 1662.4 503.538 C 1662.27 504.531 1662.01 505.228 1661.65 506.155 C 1663.44 509.949 1663.95 511.6 1662.71 515.82 C 1667.92 528.845 1667.17 545.366 1669.19 559.204 C 1670.45 567.831 1672.8 576.696 1673.74 585.253 L 1672.48 586.551 C 1670.85 586.022 1670.58 586.139 1669.76 584.622 C 1665.41 576.612 1661.25 531.73 1660.08 521.106 C 1659.8 518.331 1659.28 515.715 1658.65 513.007 C 1658.7 512.741 1658.76 512.475 1658.8 512.208 C 1659.68 506.885 1657.87 489.005 1655.01 484.85 C 1656.96 478.887 1655.49 449.653 1652.7 443.834 z"/>
<path transform="translate(0,0)" fill="rgb(103,67,67)" d="M 1343.98 637.493 C 1344.71 637.354 1345.44 637.266 1346.19 637.252 C 1350.68 637.174 1358.02 640.668 1362.31 642.228 C 1393.48 653.585 1439.37 675.754 1462.73 699.404 L 1462.58 701.45 L 1464.15 701.783 L 1462.4 699.121 L 1463.42 701.794 C 1459.71 701.107 1426.03 677.491 1418.93 673.315 C 1409.25 667.619 1399.34 662.476 1388.83 658.498 C 1384.13 653.017 1352.37 643.129 1343.77 640.396 C 1345.06 641.224 1346.32 642.099 1347.5 643.08 C 1360.01 653.505 1390.52 697.383 1391.99 714.197 L 1390.94 715.292 C 1388.49 713.862 1384.02 702.938 1382.34 699.945 C 1377.11 690.67 1372 680.92 1365.7 672.323 C 1359.04 663.223 1348.82 653.29 1343.82 643.405 C 1342.62 641.042 1343.25 639.836 1343.98 637.493 z"/>
<path transform="translate(0,0)" fill="rgb(108,73,75)" d="M 1085.03 0 L 1165.58 0 C 1161.92 3.66284 1131.47 11.8568 1124.41 14.3183 C 1095.73 24.3154 1069.43 39.0276 1043.03 53.8084 L 1041.71 53.1368 C 1041.63 52.4438 1041.54 52.1559 1041.62 51.5001 C 1042.87 40.5535 1075.38 8.86558 1085.03 0 z"/>
</svg>