<?xml version="1.0" encoding="utf-8"?>
<!-- Generator: Adobe Illustrator 28.1.0, SVG Export Plug-In . SVG Version: 6.00 Build 0)  -->
<svg version="1.1" id="レイヤー_1" xmlns="http://www.w3.org/2000/svg" xmlns:xlink="http://www.w3.org/1999/xlink" x="0px"
	 y="0px" viewBox="0 0 584.3 307.7" style="enable-background:new 0 0 584.3 307.7;" xml:space="preserve">
<style type="text/css">
	.st0{fill-rule:evenodd;clip-rule:evenodd;fill:#E0CB15;}
	.st1{fill-rule:evenodd;clip-rule:evenodd;fill:#92BD39;}
	.st2{fill-rule:evenodd;clip-rule:evenodd;fill:#3CC583;}
	.st3{fill-rule:evenodd;clip-rule:evenodd;fill:#484848;}
	.st4{fill:none;stroke:#FFFFFF;stroke-width:2;stroke-linecap:round;stroke-linejoin:round;}
	.st5{fill:none;stroke:#484848;stroke-width:4;stroke-miterlimit:10;}
	.st6{fill-rule:evenodd;clip-rule:evenodd;fill:none;}
	.st7{fill:#FFFFFF;}
	.st8{font-family:'HiraKakuPro-W6-83pv-RKSJ-H';}
	.st9{font-size:17px;}
	.st10{fill:#484848;}
	.st11{font-size:22px;}
</style>
<g id="g-root-1.bubble-1_fr_vb3nju118in7n-fill" transform="translate(27, 99)">
	<g id="_x31_.bubble-1_x5F_fr_x5F_vb3nju118in7n-fill">
		<g>
			<path class="st0" d="M169.8-47.9h-192c0-6.6,0-12,0-12l192,0V-47.9z M169.8,132.1v-180l-192,0l0,180H169.8z M169.8,144.1v-12
				h-192v12l96,36L169.8,144.1z M214.8-95.9l-102,0l-135,36h192L214.8-95.9z"/>
		</g>
	</g>
</g>
<g id="g-root-2.bubble-2_fr_mfgnay118io0d-fill" transform="translate(219, 99)">
	<g id="_x32_.bubble-2_x5F_fr_x5F_mfgnay118io0d-fill">
		<g>
			<path class="st1" d="M169.8-47.9h-192c0-6.6,0-12,0-12l192,0V-47.9z M169.8,132.1v-180l-192,0l0,180H169.8z M169.8,168.1v-36
				h-192v36l96,36L169.8,168.1z M124.8-95.9l-102,0l-45,36h192L124.8-95.9z"/>
		</g>
	</g>
</g>
<g id="_x33_.bubble-3_x5F_fr_x5F_mfgnay118io0f-fill">
	<g>
		<path class="st2" d="M580.8,51.1h-192c0-6.6,0-12,0-12l192,0V51.1z M580.8,231.1v-180l-192,0v180H580.8z M388.8,231.1h192v4.1
			c0,4.8-2.9,9.1-7.3,11l-84,30.9c-3,1.3-6.4,1.3-9.5,0l-84-30.9c-4.4-1.9-7.3-6.2-7.3-11V231.1z M445.8,3.1l-102,0l45,36h192
			L445.8,3.1z"/>
	</g>
</g>
<g id="g-root-budg_djtn22118ipky-fill" transform="translate(93, 159)">
	<g id="budg_djtn22118ipky-fill">
		<g>
			<path class="st3" d="M34.1-95.8l-1.3-3.9c-1-3.6-5.8-3.6-6.5,0L25-95.8c-0.3,1.6-1.9,2.3-3.2,1.9l-3.9-1c-3.6-1-5.8,3.2-3.6,5.8
				l2.6,3.6c1,1,1,2.6,0,3.6l-2.5,2.5c2,1.5,3.4,3.6,4,6l3-0.8c1.3-0.3,2.9,0.6,3.2,1.9l1.3,3.9c0.4,1.6,1.8,2.7,3.4,2.7
				c1.6,0,3-1.1,3.4-2.7l1.3-3.9c0.3-1.6,1.9-2.3,3.2-1.9l3.9,0.3c3.6,1,5.8-3.2,3.6-5.8l-2.9-2.9c-1-1-1-2.6,0-3.5l2.9-2.9
				c2.3-2.6,0-6.5-3.5-5.8l-3.9,1C36-93.6,34.4-94.5,34.1-95.8z M29.4-79.2c2.7,0,4.8-2.2,4.8-4.8c0-2.7-2.2-4.8-4.8-4.8
				c-2.6,0.1-4.7,2.2-4.7,4.8C24.7-81.4,26.8-79.3,29.4-79.2L29.4-79.2z M14.2-37c0,3.4-2.8,6.1-6.1,6.1h-27.7
				c-3.4,0-6.1-2.8-6.1-6.1v-33.8c0-3.4,2.8-6.1,6.1-6.1H8c3.4,0,6.1,2.8,6.1,6.1V-37z M-16.6-69.3c-0.8,0-1.5,0.7-1.5,1.5v7.3
				c0,0.8,0.7,1.5,1.5,1.5H4.9c0.8,0,1.5-0.7,1.5-1.5v-7.3c0-0.8-0.7-1.5-1.5-1.5L-16.6-69.3L-16.6-69.3z M-16-47.3
				c1.6,0,2.9-1.3,2.9-2.9c0-1.6-1.3-2.9-2.9-2.9c-1.6,0-2.9,1.3-2.9,2.9C-18.9-48.6-17.6-47.3-16-47.3z M-2.9-50.2
				c0,1.6-1.3,2.9-2.9,2.9c-1.6,0-2.9-1.3-2.9-2.9c0-1.6,1.3-2.9,2.9-2.9C-4.2-53.1-2.9-51.8-2.9-50.2z M4-47.3
				c1.6,0,2.9-1.3,2.9-2.9c0-1.6-1.3-2.9-2.9-2.9s-2.9,1.3-2.9,2.9C1.1-48.6,2.4-47.3,4-47.3z M-13.1-41c0,1.6-1.3,2.9-2.9,2.9
				c-1.6,0-2.9-1.3-2.9-2.9s1.3-2.9,2.9-2.9C-14.4-43.9-13.1-42.6-13.1-41z M-5.8-38.1c1.6,0,2.9-1.3,2.9-2.9c0-1.6-1.3-2.9-2.9-2.9
				c-1.6,0-2.9,1.3-2.9,2.9C-8.7-39.4-7.4-38.1-5.8-38.1z M6.9-41c0,1.6-1.3,2.9-2.9,2.9S1.1-39.4,1.1-41s1.3-2.9,2.9-2.9
				S6.9-42.6,6.9-41z"/>
		</g>
	</g>
</g>
<g id="g-root-1_1hitn96118k3k8-fill" transform="translate(285, 159)">
	<g id="_x31__x5F_1hitn96118k3k8-fill">
		<g>
			<path class="st3" d="M224.4-95.9h-45c-4.1,0-7.5,3.4-7.5,7.5v37.5c0,4.1,3.4,7.5,7.5,7.5c1.4,0,2.5-1.1,2.5-2.5s-1.1-2.5-2.5-2.5
				s-2.5-1.1-2.5-2.5v-26.2c0-0.7,0.6-1.2,1.2-1.2h47.5c0.7,0,1.2,0.6,1.2,1.2v26.2c0,1.4-1.1,2.5-2.5,2.5s-2.5,1.1-2.5,2.5
				s1.1,2.5,2.5,2.5c4.1,0,7.5-3.4,7.5-7.5v-37.5C231.9-92.5,228.6-95.9,224.4-95.9z M181.9-84.6c-1.4,0-2.5-1.1-2.5-2.5
				c0-1.4,1.1-2.5,2.5-2.5s2.5,1.1,2.5,2.5C184.4-85.7,183.3-84.6,181.9-84.6z M189.4-84.6c-1.4,0-2.5-1.1-2.5-2.5
				c0-1.4,1.1-2.5,2.5-2.5s2.5,1.1,2.5,2.5C191.9-85.7,190.8-84.6,189.4-84.6z M196.9-84.6c-1.4,0-2.5-1.1-2.5-2.5
				c0-1.4,1.1-2.5,2.5-2.5c1.4,0,2.5,1.1,2.5,2.5C199.4-85.7,198.3-84.6,196.9-84.6z M185.7-52.1c0,9,7.3,16.2,16.2,16.2
				s16.2-7.3,16.2-16.2c0-3.8-1.3-7.4-3.8-10.3c-0.1-0.1-0.2-0.3-0.2-0.5c0-0.2,0.1-0.3,0.2-0.5l1.2-1.2c0.7-0.7,0.7-1.9,0-2.6
				s-1.9-0.7-2.6,0l-1.5,1.5c-0.2,0.2-0.5,0.2-0.8,0c-2-1.3-4.2-2.2-6.6-2.5c-0.3,0-0.5-0.3-0.5-0.6v-0.7c0-0.3,0.3-0.6,0.6-0.6h1.2
				c1,0,1.9-0.8,1.9-1.9c0-1-0.8-1.9-1.9-1.9h-7.5c-1,0-1.9,0.8-1.9,1.9c0,1,0.8,1.9,1.9,1.9h1.3c0.3,0,0.6,0.3,0.6,0.6v0.8
				c0,0.3-0.2,0.6-0.5,0.6c-2.3,0.3-4.6,1.2-6.5,2.5c-0.2,0.2-0.5,0.2-0.8,0l-1.4-1.4c-0.7-0.7-1.9-0.7-2.6,0
				c-0.7,0.7-0.7,1.9,0,2.6l1.3,1.1c0.2,0.2,0.2,0.6,0,0.8C187-59.6,185.7-55.9,185.7-52.1z M201.9-63.4c6.2,0,11.2,5,11.2,11.2
				s-5,11.2-11.2,11.2c-6.2,0-11.2-5-11.2-11.2C190.7-58.3,195.7-63.4,201.9-63.4z M201.9-50.2c0.5,0,1-0.2,1.3-0.5l3.8-3.8
				c0.6-0.4,0.9-1.2,0.8-1.9c-0.1-0.7-0.7-1.3-1.4-1.5c-0.7-0.2-1.5,0.1-1.9,0.7l-3.8,3.8c-0.7,0.7-0.7,1.9,0,2.7
				C201-50.4,201.4-50.2,201.9-50.2z"/>
		</g>
	</g>
</g>
<g id="g-root-1_qrjawq118lhjf-fill" transform="translate(477, 159)">
</g>
<g id="g-root-1.bubble-1_fr_vb3nju118in7n-stroke" transform="translate(27, 99)">
	<g id="_x31_.bubble-1_x5F_fr_x5F_vb3nju118in7n-stroke">
		<g>
			<path class="st4" d="M169.8-47.9v-12h-192l0,12 M169.8-59.9l45-36h-102l-135,36 M169.8,132.1v-180 M-22.2,132.1v-180
				 M169.8,132.1v12l-96,36l-96-36v-12"/>
		</g>
	</g>
</g>
<g id="g-root-2.bubble-2_fr_mfgnay118io0d-stroke" transform="translate(219, 99)">
	<g id="_x32_.bubble-2_x5F_fr_x5F_mfgnay118io0d-stroke">
		<g>
			<path class="st4" d="M169.8-47.9v-12h-192l0,12 M169.8-59.9l-45-36h-102l-45,36 M169.8,132.1v-180 M-22.2,132.1v-180
				 M169.8,132.1v36l-96,36l-96-36v-36"/>
		</g>
	</g>
</g>
<g id="_x33_.bubble-3_x5F_fr_x5F_mfgnay118io0f-stroke">
	<g>
		<path class="st4" d="M580.8,51.1v-12h-192l0,12 M580.8,39.1l-135-36h-102l45,36 M580.8,231.1v-180 M388.8,231.1v-180 M580.8,231.1
			v12l-96,36l-96-36v-12"/>
	</g>
</g>
<g id="g-root-budg_djtn22118ipky-stroke" transform="translate(93, 159)">
</g>
<g id="g-root-1_1hitn96118k3k8-stroke" transform="translate(285, 159)">
</g>
<g id="g-root-tx__hzn56i118iosp-stroke" transform="translate(213, 39)">
</g>
<g id="g-root-1_qrjawq118lhjf-stroke" transform="translate(477, 159)">
	<g id="_x31__x5F_qrjawq118lhjf-stroke">
		<g>
			<path class="st5" d="M-193.7-41.8c0,4.5,3.7,8.2,8.2,8.2c4.5,0,8.2-3.7,8.2-8.2s-3.7-8.2-8.2-8.2
				C-190.1-50-193.7-46.4-193.7-41.8 M-212.9-41.8h19.2 M-177.3-41.8h35.6 M-152.7-52.8l11,11l-11,11 M-202-88.4h32.9v21.9H-202
				V-88.4z M-185.5-50v-16.4"/>
		</g>
	</g>
</g>
<g id="g-root-tx__1uua5mi118k1za-stroke" transform="translate(69, 231)">
</g>
<g id="g-root-tx__142zta2118lfyh-stroke" transform="translate(273, 231)">
</g>
<g id="g-root-tx_api_147d4vu118lij1-stroke" transform="translate(465, 231)">
</g>
<g id="g-root-tx__1lyn5dm118k2rz-stroke" transform="translate(51, 267)">
</g>
<g id="g-root-tx_21_zn6b5m118lgqq-stroke" transform="translate(249, 267)">
</g>
<g id="g-root-tx_api_zs63ui118lg5i-stroke" transform="translate(435, 267)">
</g>
<rect x="402.1" y="180.7" class="st6" width="169.7" height="74.7"/>
<text transform="matrix(1 0 0 1 402.1108 195.6561)"><tspan x="0" y="0" class="st7 st8 st9">システムは2週間から</tspan><tspan x="0" y="22" class="st7 st8 st9">1ヶ月で実装可能です</tspan><tspan x="0" y="44" class="st7 st8 st9">。</tspan></text>
<g id="g-root-tx_api_147d4vu118lij1-fill_00000062900882819898017940000010078184956362681265_" transform="translate(465, 231)">
	<g id="tx_api_147d4vu118lij1-fill_00000011732381334990712050000018054516284997596065_">
		<g>
		</g>
	</g>
</g>
<rect x="211.9" y="180.7" class="st6" width="169.7" height="74.7"/>
<text transform="matrix(1 0 0 1 211.9393 195.6561)"><tspan x="0" y="0" class="st7 st8 st9">APIを介してレガシ</tspan><tspan x="0" y="22" class="st7 st8 st9">ーシステムとのシー</tspan><tspan x="0" y="44" class="st7 st8 st9">ムレスな統合。</tspan></text>
<rect x="-73.1" y="-208.8" class="st10" width="68.5" height="44.8"/>
<text transform="matrix(1 0 0 1 250.7668 165.1493)" class="st7 st8 st11">API統合</text>
<rect x="21.3" y="180.7" class="st6" width="169.7" height="74.7"/>
<text transform="matrix(1 0 0 1 21.2942 195.6561)"><tspan x="0" y="0" class="st7 st8 st9">開発コストは平均よ</tspan><tspan x="0" y="22" class="st7 st8 st9">り</tspan><tspan x="0" y="44" class="st7 st8 st9">も大幅に低いです。</tspan></text>
<text transform="matrix(1 0 0 1 51.1218 165.1493)" class="st7 st8 st11">コスト効率</text>
<text transform="matrix(1 0 0 1 441.6495 165.1493)" class="st7 st8 st11">導入期間</text>
</svg>
