<svg version="1.1" xmlns="http://www.w3.org/2000/svg" style="display: block;" viewBox="0 0 2048 1152" width="1820" height="1024">
<path transform="translate(0,0)" fill="rgb(211,206,190)" d="M 0 0 L 2046.25 0 C 2048.65 3.7775 2047.99 9.25049 2047.99 13.5932 L 2048 835.128 L 2048.01 1061.94 L 2048 1122.09 C 2047.99 1130.36 2049.11 1140.48 2047.72 1148.51 C 2047.5 1149.77 2046.93 1150.93 2046.25 1152 L 0 1152 L 0 0 z"/>
<path transform="translate(0,0)" fill="rgb(105,69,69)" d="M 539.004 51.2702 C 540.763 51.5763 541.629 51.9181 543.11 52.9148 C 544.892 57.3576 541.273 63.9722 541.703 68.9979 C 542.403 77.1899 552.026 84.5014 550.456 92.5268 L 547.037 91.8382 C 543.142 88.8893 539.895 83.5353 538.199 79.0014 C 534.542 69.2291 534.849 60.6994 539.004 51.2702 z"/>
<path transform="translate(0,0)" fill="rgb(105,69,69)" d="M 454.459 54.2403 C 454.66 54.2894 454.864 54.3261 455.062 54.3877 C 455.658 54.5739 457.721 55.4832 458.068 56.0166 C 459.877 58.798 455.395 68.0496 455.865 71.9936 C 456.584 78.0138 462.105 85.0796 464.753 90.6006 C 467.158 95.6163 468.464 99.1037 466.616 104.47 C 465.404 104.193 464.408 103.716 463.283 103.206 C 458.485 93.998 452.943 84.8969 450.691 74.6448 C 448.893 66.4611 449.938 61.2257 454.459 54.2403 z"/>
<path transform="translate(0,0)" fill="rgb(105,69,69)" d="M 484.241 43.6231 C 491.809 48.0393 483.033 60.2219 482.994 68.9756 C 482.951 78.3522 491.576 85.2623 495.346 93.1964 C 497.181 97.0566 497.312 100.35 495.846 104.357 C 494.531 103.613 493.35 102.73 492.125 101.849 C 488.43 91.3873 479.69 84.1233 477.516 72.7849 C 475.596 62.7762 478.574 51.9451 484.241 43.6231 z"/>
<path transform="translate(0,0)" fill="rgb(105,69,69)" d="M 513.175 35.4282 L 515.964 36.9456 C 517.247 41.1483 513.063 57.1141 513.399 63.734 C 513.974 75.1016 526.751 89.7903 523.881 99.9651 L 520.859 98.7787 C 513.864 91.3897 510.17 78.4854 508.356 68.6672 C 506.204 57.0149 506.249 45.424 513.175 35.4282 z"/>
<path transform="translate(0,0)" fill="rgb(105,69,69)" d="M 1910.43 805.499 C 1911.38 805.555 1912.27 805.645 1913.2 805.861 C 1921.57 807.785 1930.21 816.78 1934.35 823.941 C 1939.57 832.983 1941.64 845.181 1938.68 855.306 C 1935.39 866.541 1923.12 870.584 1913.74 875.881 C 1913.99 877.068 1914.13 878.278 1914.03 879.493 C 1912.67 895.711 1900.08 911.597 1888.08 921.884 C 1877.49 930.968 1842 957.989 1827.74 955.791 C 1824.79 955.337 1824.1 954.386 1822.41 952.19 C 1822.04 950.388 1821.84 948.725 1822.19 946.895 C 1824.87 932.973 1852.53 920.95 1863.66 913.328 C 1872.08 907.569 1885.17 898.629 1886.98 888.087 C 1887.03 887.822 1887.06 887.554 1887.1 887.288 C 1880.96 895.369 1633.73 1039.36 1610.03 1048.49 C 1606.06 1053.24 1570.17 1070.87 1562.37 1074.95 C 1545.43 1083.82 1534.7 1088.29 1515.78 1082.38 C 1511.61 1084.71 1504.9 1088.85 1499.93 1088.03 C 1497.46 1087.62 1493.84 1085.17 1492.55 1082.97 C 1491.45 1081.09 1491.3 1079.51 1491.91 1077.39 C 1493.45 1072.01 1501 1066.94 1504.43 1062.48 C 1514.62 1049.24 1521.85 1032.99 1535.17 1022.35 C 1545.6 1014.02 1558.29 1007.56 1569.7 1000.64 L 1631.75 963.129 A 5414.05 5414.05 0 0 1 1910.43 805.499 z"/>
<path transform="translate(0,0)" fill="rgb(246,246,227)" d="M 1513.57 1063.5 C 1514.32 1063.45 1515.01 1063.39 1515.75 1063.59 C 1518.12 1064.27 1519.47 1064.89 1520.69 1067.05 L 1519.77 1069.62 C 1516.91 1072.88 1513.71 1073.49 1509.62 1074.5 C 1508.53 1075.08 1507.79 1075.03 1506.56 1075.12 L 1505.79 1073.4 C 1507.92 1069.8 1510.96 1067.64 1513.46 1064.36 L 1512.93 1064.59 L 1513.57 1063.5 z"/>
<path transform="translate(0,0)" fill="rgb(246,246,227)" d="M 1532.62 1044.5 C 1534.04 1044.27 1535.48 1044.32 1536.92 1044.31 C 1540.83 1046.66 1544.71 1051.67 1545.85 1056.14 C 1546.62 1059.19 1546.19 1062.55 1544.43 1065.2 C 1541.71 1069.27 1535.61 1069.84 1531.2 1070.74 C 1530.49 1070.7 1529.73 1070.9 1529.08 1070.64 C 1529.04 1070.63 1528.03 1068.66 1527.99 1068.57 C 1525.5 1063.87 1524.14 1060.49 1519.88 1057.04 C 1523.63 1053.96 1530.87 1048.88 1532.62 1044.5 z"/>
<path transform="translate(0,0)" fill="rgb(246,246,227)" d="M 1898.67 846.498 L 1903.05 846.108 C 1905.72 847.628 1907.08 848.853 1908.07 851.868 C 1912.03 863.932 1907.02 886.528 1901.06 897.438 C 1891.62 914.713 1852.49 942.899 1834.38 948.501 C 1834.32 948.543 1834.28 948.595 1834.21 948.627 C 1831.85 949.892 1831.38 949.832 1828.84 949.277 C 1825.53 941.97 1853.92 927.488 1858.65 924.351 C 1865.93 919.531 1873.31 914.441 1879.89 908.701 C 1895.56 895.032 1899.57 879.559 1898.21 859.457 C 1897.95 855.551 1896.99 850.684 1898.44 847.011 C 1898.51 846.837 1898.6 846.669 1898.67 846.498 z"/>
<path transform="translate(0,0)" fill="rgb(246,246,227)" d="M 1907.62 821.5 C 1909.76 821.54 1911.63 822.442 1913.45 823.516 C 1918.34 826.401 1922.54 832.235 1923.81 837.733 C 1924.9 842.505 1925.67 850.23 1922.47 854.418 C 1920.73 856.685 1919.12 856.909 1916.52 857.495 C 1915.04 854.242 1915.14 850.614 1913.67 847.321 C 1912.25 844.146 1909.95 841.044 1906.48 839.974 C 1903.48 839.045 1899.65 839.628 1896.88 841.157 C 1886.93 846.67 1893.35 862.487 1890.62 871.761 L 1890.34 872.665 C 1889.1 875.298 1885.47 876.439 1882.98 877.499 C 1880.64 880.942 1872.57 883.834 1868.7 885.427 C 1869.01 884.351 1869.06 883.383 1868.96 882.276 C 1868.08 872.909 1861.34 857.734 1854.18 851.859 C 1868.3 845.695 1895.36 830.453 1907.62 821.5 z"/>
<path transform="translate(0,0)" fill="rgb(246,246,227)" d="M 1846.74 856.499 C 1849.56 856.977 1850.45 857.288 1852.33 859.612 C 1857.1 865.509 1863.46 880.742 1862.48 888.446 C 1862.4 888.588 1862.35 888.742 1862.26 888.874 C 1860.61 891.283 1791.6 929.225 1786.19 930.826 C 1787.72 925.842 1787.67 919.976 1785.69 915.125 C 1782.59 907.507 1776.2 902.871 1768.85 899.762 C 1775.31 897.869 1841.09 861.69 1846.74 856.499 z"/>
<path transform="translate(0,0)" fill="rgb(155,117,109)" d="M 1633.73 979.498 C 1634.89 979.371 1636.23 979.265 1637.38 979.534 C 1642.38 980.699 1646.81 985.404 1649.18 989.736 C 1651.97 994.832 1653.47 1001.36 1651.74 1007.01 C 1649.88 1010.54 1566.58 1056.18 1557.11 1059.5 L 1555.48 1060.74 C 1552.1 1059.98 1550.01 1043.18 1538.7 1036.62 C 1547.26 1033.16 1628.66 984.915 1633.73 979.498 z"/>
<path transform="translate(0,0)" fill="rgb(246,246,227)" d="M 1761.16 904.499 C 1762.05 904.317 1762.9 904.189 1763.82 904.144 C 1767.5 903.963 1772.91 907.647 1775.45 910.107 C 1779.21 913.741 1781.79 919.442 1781.85 924.691 C 1781.9 929.123 1780.11 932.957 1777.08 936.098 C 1775.08 939.766 1671.38 997.908 1661.26 1001.84 C 1660.52 1002.46 1660.33 1002.32 1659.4 1002.39 C 1658.9 999.635 1658.72 996.687 1657.98 993.996 C 1655.46 984.899 1649.66 978.809 1641.68 974.152 C 1651.8 969.968 1754.92 910.342 1761.16 904.499 z"/>
<path transform="translate(0,0)" fill="rgb(105,69,69)" d="M 1185.13 45.4929 C 1197.11 44.3515 1210.36 46.9613 1222.33 48.2651 L 1281.7 54.7696 L 1485.7 76.463 L 1834.4 113.405 L 1910.39 121.448 C 1925.59 123.04 1943.43 123.127 1957.91 128.056 C 1968.69 131.726 1978.04 140.418 1983 150.564 C 1988.2 161.205 1988.49 171.875 1985.91 183.298 C 1981.97 200.646 1974.12 218.13 1968.56 235.128 L 1923.97 369.887 L 1862.25 560.484 C 1852.5 590.956 1843.71 622.074 1833.01 652.209 C 1826.62 670.199 1815.43 679.271 1798.51 687.271 C 1812.2 690.379 1825.84 694.888 1839.41 698.601 C 1873.12 707.827 2001.63 740.733 2020.79 760.57 L 2019.71 761.256 C 2012.27 760.609 2005.09 757.776 1997.9 755.872 C 1988.89 753.49 1979.74 751.53 1970.69 749.256 C 1946 743.046 1921.19 737.027 1896.68 730.129 C 1865.31 721.299 1833.95 711.434 1802.26 703.887 C 1805.5 710.531 1802.48 770.586 1800.11 779.554 C 1798.66 784.989 1796.55 791.47 1792.06 795.18 C 1777.84 806.922 1760.31 816.198 1744.71 826.111 L 1652.91 884.605 L 1477.11 995.919 C 1448.44 1013.99 1420.16 1033.7 1390.72 1050.4 C 1379.25 1056.91 1367.71 1059.07 1354.76 1057.46 C 1338.72 1055.47 1322.5 1049.69 1306.96 1045.32 L 1224.3 1021.91 A 26752.5 26752.5 0 0 0 926.69 938.024 C 908.787 953.621 891.683 970.368 874.327 986.589 L 782.439 1072.42 C 764.105 1089.54 746.284 1109.35 726.239 1124.26 C 717.949 1122.79 709.505 1119.73 701.387 1117.43 L 653.688 1104.06 C 595.521 1087.82 536.707 1073.05 479.486 1053.66 C 444.071 1041.67 409.104 1026.84 374.587 1012.45 C 358.565 1005.77 325.629 992.627 313.188 982.787 C 310.32 980.519 309.128 978.716 308.697 975.108 C 312.956 961.234 347.877 958.077 357.833 949.139 C 359.966 947.224 360.827 941.997 363.244 939.503 C 374.349 928.042 388.277 918.046 400.625 907.934 C 354.743 905.893 308.575 904.562 262.784 901.162 A 2540.85 2540.85 0 0 1 128.032 886.256 C 119.434 885.075 98.5608 884.037 91.9787 879.732 A 7.58009 7.58009 0 0 1 88.6377 874.13 C 88.0454 867.68 115.652 830.536 120.574 822.907 A 4024.64 4024.64 0 0 0 188.565 711.245 C 197.141 696.415 219.636 652.678 228.114 643.528 C 234.586 636.543 332.231 635.587 349.75 635.003 L 473.997 633.03 C 489.615 632.918 522.23 631.023 535.792 635.224 C 536.915 636.615 537.596 637.21 537.906 639.02 C 540.411 653.623 494.543 760.039 485.839 779.255 C 476.577 799.704 466.664 820.106 456.066 839.897 C 446.783 857.232 435.759 873.255 424.389 889.252 C 466.887 855.012 508.367 819.422 550.85 785.119 A 11048.4 11048.4 0 0 1 703.044 666.105 C 723.27 650.438 773.778 607.675 794.336 599.311 C 816.656 604.173 839.036 612.021 860.998 618.494 C 895.254 598.009 930.291 578.664 965.106 559.145 C 981.372 550.025 998.213 541.542 1013.94 531.538 C 1012.45 526.487 1011.35 521.756 1010.8 516.512 A 2886.41 2886.41 0 0 0 925.396 491.982 C 909.904 501.417 892.36 508.923 876.135 517.112 L 767.982 571.573 L 659.33 627.328 C 644.706 634.857 622.623 648.631 607.394 652.922 C 591.345 649.69 575.211 642.666 559.751 637.184 L 477.505 607.912 L 297.998 542.36 C 265.843 530.532 233.259 519.376 201.413 506.768 C 198.237 505.511 194.207 504.285 191.855 501.788 C 190.698 499.079 190.096 496.54 189.849 493.608 C 189.177 485.657 188.526 432.944 190.684 427.207 C 193.12 420.73 253.339 398.089 264.303 392.948 C 249.048 387.501 233.059 383.408 217.528 378.718 A 1770.27 1770.27 0 0 1 144.25 355.197 C 129.165 350.056 112.625 344.815 98.4827 337.514 C 96.2317 336.352 94.366 335.481 93.611 333.015 C 93.8642 332.871 94.1098 332.712 94.3705 332.583 C 101.404 329.076 270.029 376.594 290.956 382.698 C 319.372 369.374 349.475 359.284 378.32 346.805 L 378.326 251.848 C 378.334 233.235 375.379 187.808 381.138 171.709 C 387.354 154.331 406.388 141.264 422.415 133.526 C 467.343 111.833 527.259 110.107 574.066 126.62 C 599.727 135.673 621.719 150.802 633.681 175.817 C 650.182 173.663 665.484 173.527 681.249 179.619 C 699.22 186.562 714.587 200.634 722.211 218.419 C 730.383 237.482 729.497 260.266 721.775 279.345 C 711.15 305.594 689.78 321.597 664.493 332.401 C 726.409 353.541 789.788 371.417 852.3 390.798 C 869.397 396.098 914.478 407.691 927.617 416.264 C 931.141 421.841 928.938 466.763 928.838 476.344 C 956.433 485.965 985.43 492.99 1013.44 501.498 L 1098.75 215.528 L 1122.19 135.466 C 1126.93 119.013 1133.75 86.2493 1142.68 72.4654 C 1153.21 56.2203 1166.71 49.4105 1185.13 45.4929 z"/>
<path transform="translate(0,0)" fill="rgb(211,206,190)" d="M 1129.17 659.743 C 1131.72 660.351 1133.62 660.723 1135.68 662.479 C 1126.52 671.554 1116.42 679.823 1106.71 688.306 C 1106.54 688.364 1106.39 688.444 1106.22 688.479 C 1104.01 688.926 1103.18 688.577 1101.32 687.541 C 1104.05 679.76 1122.21 667.775 1128.46 660.578 L 1129.17 659.743 z"/>
<path transform="translate(0,0)" fill="rgb(211,206,190)" d="M 1242.63 614.499 C 1245.16 614.864 1246.94 614.747 1248.94 616.475 C 1244.08 622.926 1215.88 645.517 1208.53 650.514 C 1207.26 650.658 1206.45 650.251 1205.26 649.837 C 1207.14 643.155 1235.92 621.226 1242.63 614.499 z"/>
<path transform="translate(0,0)" fill="rgb(211,206,190)" d="M 1377.67 640.496 C 1379.9 640.445 1381.67 640.802 1383.83 641.37 L 1383.87 642.853 C 1372.19 652.488 1357.65 670.054 1345.24 677.055 L 1342.42 676.652 L 1341.76 675.481 C 1346.57 664.4 1373.46 650.004 1377.67 640.496 z"/>
<path transform="translate(0,0)" fill="rgb(211,206,190)" d="M 1262.82 689.488 C 1263.11 689.419 1263.41 689.342 1263.71 689.28 C 1266.24 688.758 1269.77 688.616 1271.95 690.097 L 1271.69 691.384 C 1260.85 701.11 1248.66 714.296 1236.12 721.517 C 1234.91 722.748 1234.24 723.496 1232.45 723.794 L 1231.68 723.027 C 1230.26 712.097 1259.88 700.088 1262.82 689.488 z"/>
<path transform="translate(0,0)" fill="rgb(211,206,190)" d="M 1632.5 690.498 C 1635.45 690.257 1638.14 690.178 1640.9 691.395 C 1636.17 697.771 1610.53 724.053 1604.01 728.503 C 1602.37 729.097 1601.25 728.951 1599.58 728.726 L 1598.83 727.492 C 1604.49 714.951 1627.82 703.243 1632.5 690.498 z"/>
<path transform="translate(0,0)" fill="rgb(211,206,190)" d="M 1502.68 664.498 C 1505.68 664.585 1507.92 664.697 1510.69 666.062 C 1508.78 670.612 1478.09 698.222 1472.42 702.501 C 1471.17 702.565 1469.66 701.966 1468.43 701.653 C 1468.01 694.759 1499.12 674.087 1502.68 664.498 z"/>
<path transform="translate(0,0)" fill="rgb(211,206,190)" d="M 1404.41 717.499 C 1407.25 717.47 1410.36 717.553 1412.59 719.305 C 1407.19 726.296 1383.82 746.575 1376.21 750.114 C 1376.1 750.191 1376 750.295 1375.87 750.347 C 1373.99 751.098 1372.76 750.822 1370.92 750.203 C 1370.25 745.166 1400 724.72 1404.41 717.499 z"/>
<path transform="translate(0,0)" fill="rgb(211,206,190)" d="M 1533.84 743.499 C 1537.26 743.827 1539.94 744.323 1543.11 745.663 C 1538.16 753.5 1514.66 773.107 1506.42 778.578 C 1504.03 778.151 1501.18 778.176 1499.74 776.17 C 1508.2 765.105 1527.73 754.911 1533.84 743.499 z"/>
<path transform="translate(0,0)" fill="rgb(246,246,227)" d="M 634.139 341.084 C 642.887 340.12 666.789 349.922 676.992 353.037 L 658.254 361.517 L 630.759 373.793 C 630.673 364.862 629.802 354.929 630.957 346.082 C 631.354 343.044 631.81 342.823 634.139 341.084 z"/>
<path transform="translate(0,0)" fill="rgb(246,246,227)" d="M 369.51 963.198 C 378.987 966.804 388.289 971.635 397.598 975.731 C 386.677 981.425 375.08 985.709 363.635 990.218 C 353.569 985.983 343.354 981.195 333.852 975.821 C 345.445 970.915 357.581 967.199 369.51 963.198 z"/>
<path transform="translate(0,0)" fill="rgb(246,246,227)" d="M 953.913 621.814 C 967.983 623.589 982.549 627.428 996.364 630.716 C 989.048 637.562 981.181 643.924 973.677 650.581 C 958.755 647.109 943.947 642.474 929.192 638.323 A 824.71 824.71 0 0 0 953.913 621.814 z"/>
<path transform="translate(0,0)" fill="rgb(246,246,227)" d="M 401.924 438.967 C 406.184 438.778 415.37 446.105 419.619 448.407 C 427.53 452.695 435.604 456.351 443.903 459.813 C 434.03 464.39 382.776 488.519 375.913 488.789 C 375.084 488.822 373.63 488.26 372.774 488.061 C 357.806 482.453 342.889 476.608 327.602 471.916 C 336 467.194 345.523 463.653 354.369 459.787 L 401.924 438.967 z"/>
<path transform="translate(0,0)" fill="rgb(246,246,227)" d="M 452.582 462.914 C 461.086 462.936 471.052 466.326 479.631 467.628 C 493.774 469.775 507.61 470.117 521.869 470.047 L 451.013 501.964 L 433.483 510.039 A 2833.97 2833.97 0 0 1 386.219 492.044 A 1788.98 1788.98 0 0 0 452.582 462.914 z"/>
<path transform="translate(0,0)" fill="rgb(246,246,227)" d="M 685.105 355.897 C 693.642 355.75 721.292 366.998 730.999 370.474 A 4012.68 4012.68 0 0 1 656.66 405.74 L 622.87 421.579 C 632.216 407.759 630.333 396.843 630.109 380.993 C 648.246 372.23 666.902 364.538 685.105 355.897 z"/>
<path transform="translate(0,0)" fill="rgb(246,246,227)" d="M 1034.45 577.166 C 1047.4 575.219 1087.28 585.044 1102.54 587.955 C 1089.75 599.356 1074.62 609.626 1063.58 622.765 L 1055.78 621.066 C 1032.08 615.697 1008.11 611.433 984.34 606.356 C 1000.14 596.453 1016.99 583.841 1034.45 577.166 z"/>
<path transform="translate(0,0)" fill="rgb(246,246,227)" d="M 911.201 454.137 L 912.032 455.113 C 912.372 456.808 912.986 458.945 912.548 460.647 C 911.073 466.392 896.955 471.707 892.007 473.925 C 857.048 489.606 822.808 508.321 788.578 525.645 L 615.452 613.153 L 614.623 612.495 C 613.573 610.334 613.391 608.893 613.517 606.505 C 614.555 603.886 616.796 602.424 619.12 601.035 C 626.905 596.38 635.652 592.759 643.756 588.642 L 694.484 562.593 C 766.396 525.852 839.509 491.241 911.201 454.137 z"/>
<path transform="translate(0,0)" fill="rgb(246,246,227)" d="M 1647.37 692.499 C 1660.79 692.694 1705.53 702.916 1720.49 706.667 C 1717.16 712.858 1684.8 732.931 1677.32 736.202 C 1675.82 739.21 1670.3 741.598 1667.41 743.094 C 1650.53 738.286 1626.18 733.383 1608.73 731.146 C 1618.19 726.064 1640.13 701.651 1647.37 692.499 z"/>
<path transform="translate(0,0)" fill="rgb(246,246,227)" d="M 910.457 471.939 L 912.227 472.973 C 912.918 475.304 912.577 476.085 912.043 478.405 C 908.779 482.425 903.444 485.043 898.95 487.491 C 866.455 505.19 832.481 520.801 799.423 537.498 L 615.556 631.927 L 614.887 631.756 C 613.211 629.294 614.056 623.514 614.129 620.474 C 657.619 600.69 700.073 577.639 742.694 556.025 L 910.457 471.939 z"/>
<path transform="translate(0,0)" fill="rgb(246,246,227)" d="M 1013.81 634.74 C 1025.32 636.596 1036.89 639.646 1048.3 642.109 L 1123.09 658.641 C 1113.71 666.84 1104.05 674.803 1095.94 684.305 L 1094.07 685.788 C 1084.72 685.684 1064.98 677.729 1055.23 674.744 A 3971.54 3971.54 0 0 0 988.574 654.761 C 997.553 648.671 1006.24 642.557 1013.81 634.74 z"/>
<path transform="translate(0,0)" fill="rgb(246,246,227)" d="M 1548.95 747.498 C 1556.91 746.861 1626.01 760.776 1634.64 764.246 C 1631.88 769.482 1602.26 788.544 1595.76 791.518 C 1595.09 792.55 1595.41 792.302 1594.48 792.931 C 1592.45 794.308 1591.24 794.69 1588.79 794.675 C 1580.62 794.625 1571.46 791.857 1563.46 790.204 C 1546.57 786.718 1529.7 782.842 1512.7 779.994 C 1519.58 776.47 1545.88 753.907 1548.95 747.498 z"/>
<path transform="translate(0,0)" fill="rgb(246,246,227)" d="M 376.876 404.986 C 377.803 404.999 378.47 405.415 379.307 405.785 C 382.869 416.857 390.333 425.144 397.896 433.658 A 7609.24 7609.24 0 0 0 318.876 467.836 C 313.075 466.007 307.422 463.776 301.745 461.599 L 270.861 450.12 C 306.147 434.997 341.777 420.515 376.876 404.986 z"/>
<path transform="translate(0,0)" fill="rgb(211,206,190)" d="M 642.602 216.405 C 645.141 216.07 647.562 216.122 650.113 216.331 C 661.149 217.231 671.824 220.157 679.136 229.052 C 684.504 235.581 686.791 243.889 685.876 252.263 C 684.315 266.54 675.94 277.457 665.078 286.158 C 655.02 292.779 643.686 296.572 631.946 298.874 L 631.963 248.721 C 631.948 238.718 631.35 228.289 632.42 218.354 C 635.039 216.507 639.428 216.678 642.602 216.405 z"/>
<path transform="translate(0,0)" fill="rgb(246,246,227)" d="M 910.903 434.929 L 911.803 435.333 C 913.555 438.082 913.014 442.283 913.055 445.473 C 902.799 451.614 891.495 456.605 880.775 461.928 L 816.957 493.514 A 20874.8 20874.8 0 0 0 615.45 595.824 L 614.932 595.856 C 613.061 593.156 613.887 586.172 613.845 582.685 C 628.332 574.387 643.74 567.36 658.706 559.951 L 727.792 525.584 C 788.808 495.366 849.545 464.441 910.903 434.929 z"/>
<path transform="translate(0,0)" fill="rgb(246,246,227)" d="M 206.295 480.632 A 19902.1 19902.1 0 0 0 452.767 571.815 L 552.108 606.992 C 566.982 612.247 582.193 616.78 596.821 622.687 C 598.68 625.758 598.016 630.645 597.937 634.169 C 583.123 628.089 567.688 623.19 552.601 617.8 L 475.862 590.291 C 418.059 569.732 360.574 548.127 303.069 526.744 L 242.795 504.584 C 230.861 500.225 218.195 496.444 206.895 490.631 C 205.617 487.698 206.216 483.792 206.295 480.632 z"/>
<path transform="translate(0,0)" fill="rgb(246,246,227)" d="M 1143.22 663.554 C 1158.46 665.194 1173.9 669.136 1188.9 672.32 L 1257.34 686.66 C 1256.12 691.146 1230.33 712.882 1225.26 716 C 1224.41 718.066 1224.13 718.45 1222.37 719.826 C 1213.64 719.452 1193.62 715.596 1185.82 712.02 C 1181.35 709.968 1182.6 706.849 1180.69 703.152 C 1179.78 701.404 1178.3 700.404 1176.51 699.692 C 1162.8 694.234 1130.36 695.171 1112.69 690.423 C 1123.38 681.943 1133.24 672.846 1143.22 663.554 z"/>
<path transform="translate(0,0)" fill="rgb(246,246,227)" d="M 1419.12 720.498 C 1426.92 720.261 1519.91 739.788 1526.98 742.373 C 1525.69 746.379 1495.99 772.459 1490.76 775.501 C 1454.3 769.411 1418.15 760.073 1381.87 752.882 C 1389.02 749.596 1415.55 727.061 1419.12 720.498 z"/>
<path transform="translate(0,0)" fill="rgb(246,246,227)" d="M 206.485 463.252 C 237.15 472.494 267.37 485.598 297.563 496.502 A 19097.6 19097.6 0 0 0 493.301 567.149 C 527.952 579.584 562.489 592.99 597.601 604.052 L 597.986 616.121 A 15228.7 15228.7 0 0 1 206.652 473.803 L 206.485 463.252 z"/>
<path transform="translate(0,0)" fill="rgb(246,246,227)" d="M 1390.65 643.496 C 1398.84 641.976 1481.48 659.375 1496.19 662.59 C 1496.13 662.943 1496.05 663.549 1495.9 663.913 C 1494.21 667.91 1462.15 698.375 1458.27 699.944 C 1445.49 695.983 1430.88 694.348 1417.67 691.726 C 1395.58 687.341 1373.02 681.732 1350.69 679.056 C 1350.86 678.975 1351.03 678.899 1351.21 678.813 C 1351.49 678.672 1351.77 678.518 1352.06 678.376 C 1358.28 675.275 1387.58 648.928 1390.65 643.496 z"/>
<path transform="translate(0,0)" fill="rgb(246,246,227)" d="M 206.505 443.693 A 19531.6 19531.6 0 0 0 597.153 584.817 L 597.239 597.141 C 560.521 584.817 524.327 571.183 487.836 558.238 A 21279.7 21279.7 0 0 1 206.72 456.332 L 206.505 443.693 z"/>
<path transform="translate(0,0)" fill="rgb(246,246,227)" d="M 377.576 364.022 L 378.338 364.766 C 380.751 374.001 379.062 387.365 379.093 397.075 L 260.897 446.8 A 828.383 828.383 0 0 1 230.938 435.974 C 225.974 434.083 220.914 432.399 215.904 430.632 C 269.512 407.779 323.841 386.604 377.576 364.022 z"/>
<path transform="translate(0,0)" fill="rgb(246,246,227)" d="M 1276.89 692.49 C 1284.24 690.698 1383.54 712.328 1397.39 715.645 C 1395.2 721.587 1368.33 743.017 1362.33 747.818 C 1359.99 749.246 1253.79 726.695 1241.27 724.41 C 1242.41 723.8 1243.56 723.202 1244.65 722.497 C 1249.79 719.167 1275.79 697.302 1276.89 692.49 z"/>
<path transform="translate(0,0)" fill="rgb(246,246,227)" d="M 1121.87 591.913 C 1143.51 595.446 1165.09 599.764 1186.66 603.745 C 1202.6 606.687 1218.89 609.129 1234.63 612.915 C 1232.92 617.802 1202.24 644.056 1196.56 647.53 C 1193.12 649.27 1094.66 628.968 1082.81 626.331 C 1096.15 615.22 1108.59 603.085 1121.87 591.913 z"/>
<path transform="translate(0,0)" fill="rgb(246,246,227)" d="M 1516.89 667.498 C 1524.23 666.791 1620.56 685.316 1626.33 688.569 C 1626.25 688.919 1626.19 689.271 1626.09 689.617 C 1624.87 694.176 1594.01 723.439 1589.16 726.286 C 1551.9 719.594 1515.04 709.573 1477.61 703.974 C 1484.72 700.59 1512.89 674.872 1516.89 667.498 z"/>
<path transform="translate(0,0)" fill="rgb(246,246,227)" d="M 1254.58 617.491 C 1262.76 615.824 1354.7 634.883 1371.19 638.669 C 1370.5 640.657 1335.83 672.742 1332.25 674.992 C 1293.37 666.961 1254.09 658.997 1214.91 652.542 C 1215.38 652.321 1216.16 651.977 1216.64 651.688 C 1222.05 648.431 1253.65 621.658 1254.58 617.491 z"/>
<path transform="translate(0,0)" fill="rgb(211,206,190)" d="M 972.222 610.537 C 1201.11 657.82 1431.62 697.748 1659.89 747.918 C 1657.75 751.906 1647.1 757.984 1642.77 759.718 C 1632.61 756.157 1621.26 754.538 1610.71 752.393 L 1548.57 739.98 A 17580.7 17580.7 0 0 0 1327.87 694.655 A 16091.5 16091.5 0 0 1 1113.55 649.93 C 1085.19 643.564 1056.69 637.809 1028.36 631.307 C 1008.17 626.672 987.606 620.6 967.1 617.75 C 969.276 615.584 971.819 613.739 972.222 610.537 z"/>
<path transform="translate(0,0)" fill="rgb(211,206,190)" d="M 1175.51 717.474 C 1184.13 717.72 1193.25 720.623 1201.72 722.447 L 1251.78 733.201 L 1411.47 765.72 L 1523 788.436 C 1540.5 791.876 1565.47 794.941 1581.55 800.378 C 1579.32 805.028 1564.31 813.674 1559.35 815.66 C 1555.85 818.455 1549.22 817.815 1545.07 817.35 C 1518.42 814.369 1484.07 805.144 1457.11 799.693 A 11991.4 11991.4 0 0 1 1219.79 748.197 C 1198.67 743.535 1176.08 736.35 1154.62 734.246 C 1160.7 731.383 1171.87 723.056 1175.51 717.474 z"/>
<path transform="translate(0,0)" fill="rgb(246,246,227)" d="M 739.969 372.836 C 754.8 375.131 773.267 383.131 787.863 387.976 C 768.629 396.734 749.889 406.513 730.807 415.593 C 650.759 453.685 571.129 493.203 490.452 529.905 C 476.321 527.344 456.871 518.275 442.849 513.1 C 474.168 499.645 504.506 483.818 535.847 470.473 C 550.189 464.366 565.703 461.662 579.934 454.927 C 593.758 448.386 604.778 437.725 618.2 430.996 C 658.387 410.848 699.931 393.396 739.969 372.836 z"/>
<path transform="translate(0,0)" fill="rgb(246,246,227)" d="M 855.224 407.975 C 870.239 412.641 885.334 417.124 900.065 422.638 C 864.175 438.354 829.058 457.543 793.902 474.965 L 603.564 569.867 A 1608.17 1608.17 0 0 1 555.192 552.911 L 855.224 407.975 z"/>
<path transform="translate(0,0)" fill="rgb(246,246,227)" d="M 796.974 390.239 A 5049.34 5049.34 0 0 1 845.622 405.471 C 831.304 411.738 817.288 419.123 803.209 425.933 A 7334.76 7334.76 0 0 0 715.197 468.783 L 547.301 549.533 C 540.33 550.294 507.829 536.231 499.734 533.164 C 530.176 516.888 562.207 503.198 593.383 488.369 C 661.365 456.034 729.757 424.132 796.974 390.239 z"/>
<path transform="translate(0,0)" fill="rgb(211,206,190)" d="M 1124.86 760.133 C 1155.48 767.164 1185.87 775.27 1216.43 782.582 C 1234.35 786.871 1253.89 789.779 1271.2 796.078 C 1271.16 796.248 1271.14 796.426 1271.07 796.588 C 1268.33 803.333 1167.19 877.104 1156.32 882.129 C 1154.41 885.732 1148.79 888.859 1145.49 891.309 C 1127.39 885.28 1109.36 878.671 1091.02 873.435 C 1066.87 866.538 1042.5 861.212 1018.41 853.828 C 1053.77 822.513 1088.74 790.551 1124.86 760.133 z"/>
<path transform="translate(0,0)" fill="rgb(246,246,227)" d="M 1111.89 708.877 A 1353.02 1353.02 0 0 1 1158.75 710.155 C 1157.31 714.025 1097.53 763.009 1088.16 771.186 C 963.475 880.045 843.68 994.267 722.379 1106.84 A 5803.98 5803.98 0 0 1 618.258 1077.52 C 585.215 1068.18 551.697 1059.87 518.937 1049.62 C 484.115 1038.73 449.76 1025.61 415.752 1012.41 A 1457.31 1457.31 0 0 1 371.909 993.873 C 383.12 989.583 393.663 985.232 403.813 978.776 C 431.484 990.744 458.561 1003.91 486.828 1014.47 C 541.671 1034.96 597.245 1048.27 653.915 1062.31 C 674.41 1067.39 694.603 1073.97 715.213 1078.5 C 728.71 1068.5 741.174 1055.61 753.676 1044.34 L 831.209 974.153 L 964.099 854.373 C 1006.14 815.882 1047.39 776.377 1090.14 738.684 C 1092.84 739.262 1095.41 739.703 1098.18 739.402 C 1102.28 738.958 1106.06 737.031 1108.61 733.754 C 1113.93 726.905 1112.9 716.921 1111.89 708.877 z"/>
<path transform="translate(0,0)" fill="rgb(211,206,190)" d="M 1785.43 729.499 C 1786.11 730.03 1786.68 730.463 1786.99 731.303 C 1789.4 737.874 1785.84 773.245 1783.48 780.252 C 1782.37 783.567 1780.32 785.08 1777.54 786.992 C 1754.08 803.133 1729 817.641 1704.91 832.874 L 1567.21 920.332 A 9012.21 9012.21 0 0 1 1450.26 994.19 C 1428.82 1007.75 1407.5 1022.56 1385.38 1034.89 C 1376.26 1039.98 1367.5 1043.29 1356.92 1042.08 C 1343.27 1040.51 1329.78 1035.06 1316.58 1031.38 A 3990.45 3990.45 0 0 1 1230.69 1007.29 L 955.587 929.264 L 940.401 925.138 C 952.131 912.55 966.513 901.051 979.234 889.33 C 1066.98 912.392 1154.15 938.095 1241.68 962.054 A 6593.42 6593.42 0 0 1 1306.02 979.74 C 1319.01 983.386 1332.46 988.117 1345.77 990.24 C 1359.09 992.364 1370.95 990.415 1383.12 984.691 C 1404.65 974.555 1425.26 958.927 1445.36 946.089 L 1546.28 882.459 L 1705.01 780.657 C 1731.62 763.658 1759.87 747.871 1785.43 729.499 z"/>
<path transform="translate(0,0)" fill="rgb(105,69,69)" d="M 974.942 908.713 C 993.36 910.828 1017.29 919.396 1035.76 924.493 C 1057.66 930.54 1081.17 935.45 1102.41 943.396 C 1104.13 945.902 1103.77 946.753 1103.55 949.675 C 1093.85 948.453 1084.03 945.021 1074.63 942.407 L 1027.92 929.452 C 1012.87 925.278 988.592 920.495 975.089 914.503 C 973.922 912.008 974.394 911.344 974.942 908.713 z"/>
<path transform="translate(0,0)" fill="rgb(211,206,190)" d="M 495.474 132.421 C 525.35 129.721 560.991 135.884 587.616 149.978 C 607.985 160.76 615.608 171.932 622.236 193.684 C 644.523 191.712 663.624 185.659 684.69 197.94 C 697.519 205.418 707.035 218.621 710.61 232.984 C 714.837 249.959 710.973 269.285 701.954 284.108 C 689.411 304.723 663.687 317.976 640.821 323.462 C 633.063 325.324 625.066 325.815 617.287 327.675 C 616.889 328.169 615.897 329.109 615.697 329.653 C 613.805 334.778 614.281 395.968 614.095 406.562 C 606.731 418.018 597.151 427.117 585.513 434.128 C 549.618 455.752 502.268 459.006 462.22 448.914 C 434.218 441.856 409.857 428.811 394.74 403.494 C 395.324 339.264 394.293 274.979 394.469 210.738 C 399.008 215.567 403.7 220.057 408.644 224.468 C 430.274 242.039 460.134 249.375 487.344 251.925 C 531.379 256.052 582.055 246.956 616.797 218.061 C 617.448 247.721 614.66 277.64 615.876 307.235 C 616.001 310.277 616.058 312.712 618.652 314.706 C 620.869 316.41 624.371 316.387 627.018 316.022 C 649.913 312.864 674.889 303.141 689.178 284.226 C 698.218 272.26 703.661 256.819 701.487 241.75 C 699.744 229.669 693.117 219.121 683.24 212.009 C 663.929 198.103 642.465 200.986 620.624 204.522 C 620.12 205.234 619.614 205.908 619.07 206.589 C 599.823 230.708 558.903 241.824 529.663 245.033 C 490.376 249.345 442.504 243.797 410.743 218.174 C 402.52 211.54 394.911 202.71 393.897 191.768 C 393.029 182.396 397.139 173.935 403.122 166.965 C 423.924 142.725 465.363 134.755 495.474 132.421 z"/>
<path transform="translate(0,0)" fill="rgb(105,69,69)" d="M 495.634 145.428 C 523.242 143.263 560.338 147.548 584.43 162.204 C 596.473 169.529 603.183 178.329 606.401 191.951 C 605.133 196.6 603.649 200.623 600.537 204.383 C 583.685 224.745 546.77 229.497 522.25 231.952 C 489.695 233.585 446.218 230.856 419.733 209.264 C 413.98 204.575 408.994 198.383 408.3 190.736 C 407.698 184.101 410.398 177.933 414.726 173.023 C 432.437 152.933 470.434 146.974 495.634 145.428 z"/>
<path transform="translate(0,0)" fill="rgb(155,117,109)" d="M 493.94 196.419 C 520.044 192.866 558.197 198.802 581.876 211.008 C 563.043 219.232 543.719 223.261 523.303 225.178 C 495.186 229.347 459.547 224.102 434.379 210.668 C 454.226 201.976 472.392 198.17 493.94 196.419 z"/>
<path transform="translate(0,0)" fill="rgb(211,206,190)" d="M 487.566 152.401 C 501.697 150.761 517.348 151.345 531.473 153.016 C 553.746 155.649 580.225 161.445 594.632 180.146 C 597.446 183.8 600.068 188.346 599.242 193.149 C 598.033 200.175 591.748 204.263 586.415 208.142 C 569.412 195.452 547.058 192.551 526.554 190.396 C 495.685 185.268 455.061 193.085 427.754 208.059 C 422.034 203.496 415.756 198.145 414.918 190.374 C 414.401 185.583 416.309 181.191 419.371 177.599 C 433.879 160.578 466.468 154.33 487.566 152.401 z"/>
<path transform="translate(0,0)" fill="rgb(246,246,227)" d="M 506.43 649.578 L 521.948 648.561 C 516.954 665.972 507.847 682.41 501.045 699.202 C 473.574 767.021 447.669 831.019 404.978 891.315 C 373.69 890.338 342.507 888.337 311.258 886.636 C 294.307 885.714 277.305 885.469 260.368 884.34 A 1928.42 1928.42 0 0 1 145.863 872.18 C 134.307 869.888 122.301 868.588 110.627 866.895 A 2679.5 2679.5 0 0 0 202.34 719.571 C 214.657 698.543 226.185 676.952 238.953 656.214 C 327.74 646.771 417.376 651.562 506.43 649.578 z"/>
<path transform="translate(0,0)" fill="rgb(105,69,69)" d="M 383.565 680.321 C 384.5 680.771 385.38 681.48 386.242 682.063 C 387.429 688.611 377.077 717.488 373.307 723.926 C 373.155 723.854 372.999 723.79 372.851 723.71 C 371.474 722.96 369.866 721.935 369.496 720.364 C 367.57 712.195 379.312 687.69 383.565 680.321 z"/>
<path transform="translate(0,0)" fill="rgb(105,69,69)" d="M 369.104 678.504 C 370.812 678.969 370.704 678.995 371.657 680.507 C 368.687 684.63 361.104 685.172 356.322 686.012 C 355.104 696.22 352.368 708.827 348.442 718.33 C 347.46 720.705 346.97 722.187 344.529 723.226 C 343.912 722.849 343.658 722.756 343.167 722.099 C 341.208 719.477 341.839 717.357 342.32 714.477 C 345.382 705.367 347.32 696.031 349.209 686.623 C 343.414 687.537 338.879 688.474 333.162 686.502 L 334.958 684.757 L 334.203 685.146 C 344.067 679.345 357.988 679.502 369.104 678.504 z"/>
<path transform="translate(0,0)" fill="rgb(105,69,69)" d="M 472.046 681.686 C 473.184 682.495 474.067 683.451 475.04 684.446 C 475.148 685.755 475.086 686.932 474.707 688.202 C 472.448 695.785 466.552 717.877 460.061 721.504 C 459.32 721.374 458.589 721.229 457.879 720.971 C 451.1 718.511 445.157 701.633 442.085 695.147 C 439.642 701.376 436.505 713.72 431.295 717.774 C 429.435 719.22 427.924 718.641 425.707 718.456 C 426.181 712.355 434.631 692.581 438.428 687.523 C 440.077 685.326 440.863 685.158 443.389 684.916 C 449.77 688.572 455.392 706.248 458.79 713.093 C 462.214 703.445 465.615 689.714 472.046 681.686 z"/>
<path transform="translate(0,0)" fill="rgb(105,69,69)" d="M 294.344 675.117 C 296.097 675.607 296.797 676.092 298.133 677.332 C 298.492 678.626 298.64 679.874 298.516 681.219 C 297.598 691.134 292.223 711.674 284.648 718.177 C 283.216 718.458 282.389 718.96 281.061 718.171 C 276.352 715.371 273.736 698.917 272.29 693.548 C 267.72 702.545 264.487 712.405 260.854 721.822 L 257.902 720.937 C 257.298 720.236 256.493 719.657 256.378 718.715 C 255.271 709.653 264.77 691.289 270.469 684.106 C 272.122 682.021 273.622 680.317 276.32 680.022 C 277.698 681.675 282.542 702.452 283.754 706.324 C 287.624 696.049 290.847 685.524 294.344 675.117 z"/>
<path transform="translate(0,0)" fill="rgb(105,69,69)" d="M 315.219 682.882 C 316.313 682.909 317.42 682.971 318.49 683.215 C 322.013 684.02 325.858 686.116 327.743 689.264 C 329.68 692.5 329.586 696.285 328.735 699.833 C 326.548 708.948 320.32 715.164 312.552 719.843 C 311.454 719.953 310.398 719.979 309.293 719.964 C 306.042 719.919 302.787 719.337 300.562 716.706 C 298.614 714.402 298.38 711.411 298.784 708.536 C 300.17 698.655 307.538 688.845 315.219 682.882 z"/>
<path transform="translate(0,0)" fill="rgb(246,246,227)" d="M 315.961 689.512 C 318.219 689.674 319.144 690.133 320.928 691.503 C 321.82 693.001 322.531 694.376 322.45 696.17 C 322.148 702.86 316.953 708.838 312.201 712.977 L 307.999 712.797 C 306.93 711.81 306.007 711.344 305.773 709.849 C 304.755 703.37 312.18 694.495 315.961 689.512 z"/>
<path transform="translate(0,0)" fill="rgb(105,69,69)" d="M 408.168 682.957 C 409.554 683.012 411.085 683.04 412.444 683.361 C 415.517 684.088 418.582 685.926 420.281 688.647 C 422.416 692.067 422.191 696.39 421.198 700.14 C 418.711 709.529 412.366 716.644 404.182 721.537 C 402.423 721.942 399.901 722.286 398.088 722.05 C 395.701 721.738 393.299 720.498 391.999 718.419 C 389.943 715.131 390.38 710.787 391.178 707.171 A 37.5842 37.5842 0 0 1 408.168 682.957 z"/>
<path transform="translate(0,0)" fill="rgb(246,246,227)" d="M 407.686 689.411 C 410.816 689.835 411.509 689.972 413.996 691.875 C 414.74 693.581 415.181 695.055 414.882 696.936 C 413.767 703.968 408.485 709.933 403.115 714.158 C 402.108 714.428 401.303 714.711 400.26 714.471 C 398.267 714.013 398.217 713.307 397.235 711.706 C 396.961 703.31 402.492 695.532 407.686 689.411 z"/>
<path transform="translate(0,0)" fill="rgb(105,69,69)" d="M 229.074 735.818 C 272.478 735.301 317.039 735.7 360.34 738.517 C 380.217 739.81 400.029 742.492 419.883 744.165 C 427.564 744.812 448.617 744.023 453.999 745.308 C 455.797 747.191 455.484 747.588 455.58 750.099 C 445.736 752.121 435.075 751.55 425.104 750.787 C 392.27 748.277 359.737 743.934 326.765 743.088 C 305.087 742.531 283.383 742.781 261.698 742.524 C 251.576 742.404 241.068 742.844 231.039 741.6 C 228.828 739.571 229.22 738.693 229.074 735.818 z"/>
<path transform="translate(0,0)" fill="rgb(105,69,69)" d="M 195.143 786.044 A 1465.38 1465.38 0 0 0 282.541 794.637 C 299.887 795.943 418.977 800.028 425.107 804.866 C 426.8 806.202 426.468 807.565 426.622 809.524 C 412.662 810.916 382.782 805.815 366.559 804.715 C 344.278 803.204 321.87 803.19 299.563 802.023 C 275.227 800.749 250.887 798.278 226.642 795.832 C 217.631 794.922 205.121 795.22 197.003 791.874 C 194.884 789.627 195.215 789.191 195.143 786.044 z"/>
<path transform="translate(0,0)" fill="rgb(105,69,69)" d="M 176.835 812.751 C 191.758 813.438 207.61 817.378 222.548 819.258 A 4017.48 4017.48 0 0 0 329.521 830.885 A 2031.49 2031.49 0 0 0 382.315 834.888 C 390.946 835.415 402.128 834.052 410.183 836.733 C 412.207 838.731 412.018 839.075 412.292 841.954 C 387.988 842.343 363.164 839.82 338.95 837.836 C 322.498 836.487 184.154 822.828 178.674 818.485 C 176.644 816.875 177.028 815.13 176.835 812.751 z"/>
<path transform="translate(0,0)" fill="rgb(105,69,69)" d="M 154.871 840.786 C 218.337 852.064 283.007 857.885 347.113 864.524 C 354.35 865.273 361.679 866.016 368.951 866.284 C 375.475 866.525 383.339 864.464 389.565 866.627 C 391.195 868.82 390.869 869.064 390.642 871.676 C 365.929 875.84 303.006 866.074 275.651 862.914 C 235.961 858.328 195.656 855.543 156.592 846.873 C 154.872 844.673 155.058 843.494 154.871 840.786 z"/>
<path transform="translate(0,0)" fill="rgb(105,69,69)" d="M 213.514 758.316 C 283.738 770.189 354.502 764.788 424.842 773.889 C 430.459 774.615 439.199 773.905 444.233 775.7 C 446.191 776.398 446.147 776.533 446.996 778.455 L 445.77 781.342 A 34.9107 34.9107 0 0 1 440.604 781.761 C 425.395 781.958 409.993 777.376 394.751 776.424 C 368.805 774.805 224.597 774.292 212.458 762.679 C 212.082 760.278 212.303 760.28 213.514 758.316 z"/>
<path transform="translate(0,0)" fill="rgb(246,246,227)" d="M 1022.76 544.961 C 1049.37 547.685 1075.35 553.992 1101.61 559.087 L 1226.55 582.931 L 1592.66 653.523 C 1653.65 665.271 1714.65 678.444 1775.94 688.333 C 1778.64 689.74 1781.01 691.788 1782.58 694.418 C 1784.57 697.737 1784.94 701.762 1783.94 705.457 C 1782.54 710.606 1779 714.593 1774.8 717.705 C 1761.29 727.711 1745.81 736.064 1731.59 745.119 L 1636.8 805.523 A 11613.3 11613.3 0 0 1 1440.4 930.48 C 1422.03 941.906 1404.13 954.256 1385.53 965.262 C 1374.96 971.513 1364.28 975.884 1351.72 974.85 C 1339.44 973.838 1326.98 969.184 1315.14 965.896 L 1263.12 951.778 C 1172.88 927.516 1083.36 900.159 992.851 877.015 L 1012.09 859.78 C 1025.33 862.97 1038.41 866.834 1051.62 870.133 C 1065.54 873.606 1079.66 876.535 1093.4 880.653 C 1110.89 885.896 1127.88 892.638 1145.47 897.594 C 1160.02 890.25 1271.41 809.098 1278.99 797.979 C 1280.33 796.012 1280.21 795.071 1279.77 792.844 L 1279.3 793.377 L 1278.66 790.731 L 1277.89 791.159 C 1263.55 784.371 1234.01 780.242 1217.4 776.289 C 1188.36 769.383 1159.54 761.171 1130.39 754.811 C 1137.17 750.018 1143.53 744.579 1149.96 739.346 C 1162.43 741.055 1175.06 744.779 1187.33 747.63 A 3466.42 3466.42 0 0 0 1244.66 760.311 L 1467.86 808.518 C 1487.81 812.725 1537.09 825.601 1554.45 824.165 C 1558.61 823.821 1562.84 821.004 1566.34 818.85 C 1582.73 808.779 1725.99 713.617 1730.29 707.696 C 1731.54 705.972 1731.11 705.335 1730.66 703.417 C 1727.88 701.886 1724.9 701.135 1721.84 700.361 C 1704.01 695.844 1685.28 693.246 1667.22 689.608 A 8971.17 8971.17 0 0 0 1538.85 664.323 A 28456.1 28456.1 0 0 0 1190.62 598.125 L 1085.49 578.319 C 1073.61 576.065 1051.96 570.162 1040.56 570.561 C 1024.37 571.128 998.806 590.127 984.303 598.737 C 978.818 601.993 973.899 604.021 972.222 610.537 C 971.819 613.739 969.276 615.584 967.1 617.75 C 962.238 616.66 957.31 616.086 952.374 615.454 C 942.831 622.252 931.502 628.333 923.182 636.494 C 909.321 632.98 895.587 628.736 881.847 624.767 C 898.343 613.831 916.456 604.529 933.721 594.845 L 1022.76 544.961 z"/>
<path transform="translate(0,0)" fill="rgb(105,69,69)" d="M 1362.96 835.499 C 1364.8 835.246 1365.98 835.324 1367.8 835.694 C 1375.27 840.744 1379.82 852.27 1383.3 860.383 C 1386.04 866.741 1392.8 880.89 1390.17 887.525 C 1390.37 888.433 1390.41 889.328 1390.33 890.254 C 1390.06 893.477 1388.14 896.762 1385.6 898.72 C 1375.94 906.164 1336.5 912.611 1324.16 910.916 C 1310.52 902.562 1302.95 881.835 1299.02 866.866 C 1297.66 861.709 1297.11 855.456 1300.04 850.712 C 1306.81 839.748 1349.45 838.433 1362.96 835.499 z"/>
<path transform="translate(0,0)" fill="rgb(175,152,139)" d="M 1357.89 842.496 C 1360.3 842.146 1362.68 842.022 1365.12 841.919 C 1366.51 842.794 1367.55 843.837 1368.48 845.192 C 1373.56 852.607 1385.17 877.403 1383.63 885.698 C 1377.22 890.819 1338.91 894.748 1328.91 895.969 C 1328.14 896.057 1327.54 896.032 1326.78 895.895 C 1314.26 893.633 1309.2 860.245 1303.2 851.422 C 1321.34 848.546 1339.98 846.51 1357.89 842.496 z"/>
<path transform="translate(0,0)" fill="rgb(246,246,227)" d="M 794.383 615.776 C 811.381 617.298 847.772 631.13 866.412 636.474 A 8411.64 8411.64 0 0 1 1040.97 687.109 L 1080.21 698.932 C 1087.78 701.184 1096.25 702.96 1103.4 706.31 L 1103.41 708.165 C 1103.89 708.106 1104.89 707.887 1105.34 707.973 C 1102.94 707.959 1100.42 707.798 1098.4 709.324 C 1083.38 720.711 1065.02 739.739 1050.55 753.231 L 958.25 838.83 C 876.558 913.957 792.565 986.658 711.315 1062.26 L 695.759 1057.51 C 634.723 1041.93 572.133 1029.12 512.639 1008.29 C 465.896 991.927 421.277 969.68 376.424 948.827 C 424.054 907.24 474.411 867.96 523.506 828.078 A 7494.6 7494.6 0 0 1 708.053 682.296 C 736.783 660.081 765.145 637.319 794.383 615.776 z"/>
<path transform="translate(0,0)" fill="rgb(105,69,69)" d="M 515.141 872.864 C 516.786 873.008 518.418 873.334 520.047 873.605 C 522.098 875.27 522.342 875.336 522.915 877.883 C 522.185 881.327 520.507 883.004 518.165 885.486 C 514.466 883.976 511.862 882.813 510.172 879.106 C 511.304 875.811 512.547 875.051 515.141 872.864 z"/>
<path transform="translate(0,0)" fill="rgb(105,69,69)" d="M 589.943 805.685 C 594.414 805.731 598.947 805.348 602.464 808.371 C 602.36 811.46 601.442 812.113 599.575 814.451 C 598.433 814.964 596.75 815.862 595.47 815.972 C 592.644 816.215 591.623 815.317 589.594 813.66 C 588.532 810.12 588.958 809.115 589.943 805.685 z"/>
<path transform="translate(0,0)" fill="rgb(105,69,69)" d="M 805.551 659.962 C 807.002 660.201 807.439 660.596 808.653 661.389 L 809.025 663.397 C 803.665 668.926 779.398 675.262 770.96 678.423 C 768.843 675.931 767.143 672.829 765.376 670.065 C 764.555 668.658 763.771 667.291 763.301 665.72 C 762.625 663.465 762.437 663.296 763.586 661.243 C 764.421 661.279 765.008 661.329 765.796 661.614 C 769.58 662.98 771.221 667.391 772.91 670.719 A 2354.68 2354.68 0 0 0 805.551 659.962 z"/>
<path transform="translate(0,0)" fill="rgb(105,69,69)" d="M 646.445 751.464 C 647.13 751.695 647.796 751.937 648.433 752.285 C 652.481 754.49 654.935 765.897 656.453 770.464 C 665.179 769.911 689.627 760.605 695.314 763.396 C 695.985 765.717 695.677 765.903 694.794 768.051 A 922.245 922.245 0 0 1 654.78 777.532 C 653.617 775.865 652.679 774.164 651.748 772.359 C 648.415 765.895 644.144 758.709 646.445 751.464 z"/>
<path transform="translate(0,0)" fill="rgb(105,69,69)" d="M 727.454 683.644 C 728.445 683.658 729.237 683.666 730.181 684.003 C 735.303 685.833 739.376 697.172 741.674 701.862 C 749.65 699.024 774.823 688.145 781.892 689.64 L 782.943 691.388 L 782.154 694.17 C 767.721 699.47 753.139 704.041 738.802 709.671 C 735.657 703.457 726.827 690.268 727.454 683.644 z"/>
<path transform="translate(0,0)" fill="rgb(105,69,69)" d="M 489.302 891.308 C 490.21 891.432 491.123 891.578 491.988 891.897 C 496.241 893.462 501.653 912.964 503.583 917.874 C 511.668 916.069 532.375 904.176 538.203 905.666 C 539.403 907.762 539.107 907.819 538.547 910.052 C 530.583 914.085 510.795 924.363 502.687 923.893 C 500.629 923.773 500.1 923.133 498.833 921.562 C 495.008 916.822 488.495 897.077 489.302 891.308 z"/>
<path transform="translate(0,0)" fill="rgb(105,69,69)" d="M 689.58 711.353 C 689.884 711.437 690.196 711.5 690.494 711.605 C 696.488 713.711 701.443 730.26 704.064 736.304 C 714.094 732.457 724.111 728.436 734.268 724.942 C 738.378 723.528 743.631 721.055 747.721 723.061 L 748.008 724.983 L 746.29 727.083 C 732.909 732.904 716.793 738.982 702.663 742.394 C 700.234 741.398 699.164 739.994 697.967 737.672 C 694.617 731.17 687.466 718.099 689.58 711.353 z"/>
<path transform="translate(0,0)" fill="rgb(105,69,69)" d="M 616.215 776.32 C 616.928 776.443 617.718 776.541 618.408 776.782 C 623.394 778.526 629.805 794.673 632.648 799.9 C 644.068 798.197 688.162 781.606 693.253 783.336 C 694.443 785.401 694.096 785.862 693.763 788.153 C 680.592 792.345 643.636 806.664 632.07 805.529 C 629.838 805.309 628.565 803.877 627.287 802.2 C 623.199 796.832 615.169 782.957 616.215 776.32 z"/>
<path transform="translate(0,0)" fill="rgb(105,69,69)" d="M 558.449 823.288 L 561.903 824.3 C 566.811 830.508 569.351 840.512 572.093 847.943 C 586.491 845.758 634.871 829.578 642.557 830.377 C 644.31 832.354 644.036 832.696 644.103 835.24 C 621.955 842.314 592.077 851.891 569.238 853.936 C 565.331 846.701 556.691 831.446 558.449 823.288 z"/>
<path transform="translate(0,0)" fill="rgb(105,69,69)" d="M 539.33 921.726 C 550.88 922.445 563.808 926.339 574.839 929.791 C 610.004 940.797 643.898 956.757 678.91 968.593 C 693.833 973.639 709.167 978.415 724.348 982.608 C 728.811 983.841 733.561 983.461 737.733 985.527 C 739.371 987.8 739.071 988.268 738.899 991.12 C 726.931 990.536 713.651 985.798 702.219 982.261 C 662.118 969.854 623.844 953.367 584.379 939.353 C 570.012 934.252 555.589 931.678 540.975 927.866 C 539.13 925.612 539.42 924.543 539.33 921.726 z"/>
<path transform="translate(0,0)" fill="rgb(105,69,69)" d="M 614.925 861.89 C 615.217 861.899 615.51 861.904 615.802 861.916 C 631.9 862.604 666.052 871.94 682.196 876.727 C 714.325 886.253 744.916 900.61 776.756 911.111 C 782.827 913.113 813.622 921.541 816.273 925.05 C 817.261 926.359 816.79 927.568 816.671 929.128 C 810.122 929.297 801.135 925.262 794.854 923.259 C 779.657 918.412 764.483 913.552 749.585 907.838 C 725.998 898.791 702.434 888.529 678.103 881.622 C 670.832 879.558 618.264 868.301 616.583 866.897 C 614.844 865.443 615.138 864.013 614.925 861.89 z"/>
<path transform="translate(0,0)" fill="rgb(105,69,69)" d="M 687.292 803.142 C 698.974 805.18 710.737 808.553 722.285 811.351 A 1534.74 1534.74 0 0 1 791.302 829.407 C 823.171 838.867 854.322 849.389 886.759 856.859 C 889.776 857.554 891.274 858.399 892.907 860.978 L 892.151 864.073 C 847.162 856.319 803.843 837.79 759.555 826.688 C 749.8 824.243 691.377 811.036 687.247 808.338 C 686.274 805.851 686.447 805.71 687.292 803.142 z"/>
<path transform="translate(0,0)" fill="rgb(105,69,69)" d="M 745.923 739.004 C 770.136 735.369 876.205 774.451 905.493 783.192 C 913.817 785.676 958.308 796.326 962.512 799.589 C 964.472 801.11 964.261 802.146 964.67 804.504 C 950.717 806.587 831.623 764.686 809.341 758.387 A 668.221 668.221 0 0 0 774.39 749.485 C 766.219 747.699 755.521 746.781 747.954 743.454 C 747.188 743.117 746.275 739.935 745.923 739.004 z"/>
<path transform="translate(0,0)" fill="rgb(105,69,69)" d="M 801.874 675.89 C 803.561 675.844 805.236 675.868 806.919 676.019 C 832.373 678.303 868.448 693.298 893.865 700.71 C 914.158 706.629 1026.37 735.194 1032.21 743.179 C 1033.16 744.486 1032.46 746.104 1032.22 747.643 C 1024.43 747.713 1007.29 739.636 999.03 736.689 C 970.09 726.368 940.116 719.528 910.519 711.423 C 884.036 704.17 858.215 694.825 831.817 687.389 C 826.404 685.864 820.812 684.13 815.279 683.136 C 811.659 682.485 808.244 682.579 804.633 681.618 C 802.366 679.537 802.468 678.965 801.874 675.89 z"/>
<path transform="translate(0,0)" fill="rgb(211,206,190)" d="M 1183.6 61.4852 C 1196.19 59.8173 1211.12 62.9463 1223.78 64.3596 L 1279.36 70.4866 L 1516.5 95.8056 L 1833.5 128.953 L 1907.46 136.851 C 1921.91 138.355 1938.17 138.563 1952.09 142.6 A 28.4238 28.4238 0 0 1 1969.14 156.645 A 24.8511 24.8511 0 0 1 1971.36 173.956 C 1966.48 195.391 1957.71 217.173 1950.69 238.059 L 1914.8 346.324 L 1819.73 642.718 C 1816.83 651.547 1813.02 661.092 1804.28 665.5 C 1802.38 668.789 1797.05 671.036 1793.6 672.27 C 1783.16 675.996 1772.05 675.551 1761.22 674.277 C 1741.01 671.896 1720.76 667.373 1700.7 663.83 A 7300.67 7300.67 0 0 1 1588.01 643.761 A 15815.1 15815.1 0 0 1 1214.46 572.228 L 1108.14 550.899 C 1089.77 547.332 1053.27 542.651 1037.91 535.341 C 1033.66 533.317 1029.34 530.366 1027.76 525.712 C 1025.55 519.204 1027.42 512.338 1029.09 505.956 C 1037.18 475.082 1047.78 444.606 1057.07 414.054 L 1104.29 254.421 L 1138.19 139.216 C 1143.65 120.661 1147.57 99.2972 1155.9 81.9944 C 1161.5 70.3738 1172.02 65.4499 1183.6 61.4852 z"/>
<path transform="translate(0,0)" fill="rgb(105,69,69)" d="M 1180.55 89.4678 C 1181.24 89.2559 1181.93 89.0804 1182.65 88.9685 C 1194.02 87.2098 1230.65 93.4788 1245 95.2114 L 1329.61 104.751 L 1918.14 171.225 C 1921.8 171.636 1926.58 171.777 1929.52 174.216 C 1930.67 175.175 1931.17 175.662 1931.26 177.149 C 1931.46 180.038 1930.61 183.075 1929.81 185.827 C 1912.08 246.617 1891.14 306.801 1871.93 367.169 C 1861.92 398.598 1794.96 618.009 1789.48 624.499 C 1789.79 625.512 1789.83 626.2 1789.68 627.25 C 1789.04 631.589 1787.49 638.128 1783.66 640.678 C 1783.14 641.025 1782.6 641.313 1782.04 641.592 C 1779.58 642.823 1656.02 619.917 1641.16 617.261 A 30437.4 30437.4 0 0 0 1337.46 562.697 L 1168.21 532.676 C 1133.51 526.538 1098.31 521.251 1063.83 514 C 1061.43 513.495 1060.32 513.236 1058.96 511.187 C 1061.97 490.313 1070.44 468.571 1076.44 448.302 C 1083.18 425.545 1089.1 402.523 1095.77 379.73 L 1142.68 217.423 C 1155.22 174.742 1168.55 132.317 1180.55 89.4678 z"/>
<path transform="translate(0,0)" fill="rgb(246,246,227)" d="M 1192.16 96.4895 C 1211.05 95.907 1243.83 101.804 1263.91 103.981 L 1440.65 123.852 L 1749.31 158.574 C 1805.19 164.768 1861.35 169.996 1917.06 177.456 C 1917.17 178.078 1917.29 178.78 1917.26 179.411 C 1916.98 186.224 1897.99 239.661 1894.51 250.65 L 1814.72 503.568 C 1810 518.562 1783.63 608.517 1778.1 614.5 C 1778.21 614.983 1778.34 615.378 1778.37 615.867 C 1778.67 620.849 1775.18 629.622 1771.9 633.274 C 1756.28 629.816 1740.02 627.883 1724.23 625.192 L 1633.11 609.211 A 19344.8 19344.8 0 0 0 1304.32 550.621 A 11690.2 11690.2 0 0 1 1171.22 526.797 C 1138.29 520.947 1104.98 515.746 1072.35 508.429 C 1075.05 495.232 1079.61 482.175 1083.42 469.242 L 1101.29 407.139 A 22215.8 22215.8 0 0 1 1165.77 185.531 A 4655.12 4655.12 0 0 1 1182.56 131.285 C 1185.86 120.741 1191.61 107.425 1192.16 96.4895 z"/>
<path transform="translate(0,0)" fill="rgb(105,69,69)" d="M 1709.9 177.498 C 1711.05 177.199 1712.28 176.823 1713.46 176.746 C 1716.13 176.57 1717.1 177.504 1719.11 179.011 C 1720.18 181.457 1720.72 182.744 1719.89 185.487 C 1719.02 188.355 1716.82 189.664 1714.3 190.895 C 1714.23 190.938 1714.18 190.993 1714.11 191.023 C 1712.09 191.897 1711.21 192.155 1709.07 191.686 C 1708.6 190.937 1708.16 190.181 1707.84 189.356 C 1706.22 185.177 1708.04 181.218 1709.9 177.498 z"/>
<path transform="translate(0,0)" fill="rgb(105,69,69)" d="M 1388.67 193.498 C 1394.01 193.142 1399.48 192.731 1404.79 193.536 C 1407.52 193.95 1409.68 194.64 1411.41 196.918 C 1411.44 198.898 1411.64 199.607 1410.36 201.23 C 1407.99 204.229 1386.48 207.304 1381.21 208.127 C 1379.24 209.171 1376.21 209.501 1373.99 209.627 C 1370.67 209.814 1365.87 207.922 1363.51 205.528 C 1362.35 204.344 1362.61 203.955 1362.6 202.297 C 1364.37 199.713 1366.38 198.629 1369.11 197.34 C 1375.07 194.524 1382.19 194.255 1388.67 193.498 z"/>
<path transform="translate(0,0)" fill="rgb(105,69,69)" d="M 1699.88 199.498 C 1700.84 199.195 1701.88 198.839 1702.88 198.755 C 1705.68 198.518 1706.53 199.147 1708.63 200.754 C 1709.54 203.102 1709.57 204.943 1709.01 207.385 C 1707.34 214.683 1696.21 241.653 1690.43 245.347 C 1690.04 246.302 1689.34 246.568 1688.53 247.17 C 1685.97 246.551 1685.86 246.51 1684.26 244.43 C 1682.58 227.921 1694.57 214.451 1699.72 199.974 C 1699.78 199.816 1699.83 199.656 1699.88 199.498 z"/>
<path transform="translate(0,0)" fill="rgb(105,69,69)" d="M 1747.32 193.499 C 1750.34 193.125 1754.83 192.451 1757.66 193.737 C 1759.49 194.568 1759.59 195.336 1760.33 197.073 C 1758.28 204.538 1747.38 202.188 1742.87 208.182 C 1742.82 211.456 1746.74 215.073 1748.41 217.913 C 1751.45 223.094 1752.84 228.871 1751.17 234.769 A 19.5422 19.5422 0 0 1 1741.43 246.698 C 1734.83 250.154 1729.47 249.531 1722.59 247.501 C 1719.54 244.675 1717.01 242.439 1715.95 238.288 C 1715.38 236.068 1714.9 234.514 1716.16 232.515 C 1722.47 231.586 1728.07 236.815 1734.74 235.819 C 1736.55 234.623 1737.13 234.378 1737.85 232.23 C 1740.51 224.322 1731.88 218.151 1729.11 211.598 C 1728.1 209.209 1728.32 207.061 1729.49 204.826 C 1732.66 198.791 1741.32 195.482 1747.32 193.499 z"/>
<path transform="translate(0,0)" fill="rgb(105,69,69)" d="M 1776.45 192.5 C 1786.8 192.085 1823.09 190.553 1830.77 194.777 C 1832.94 195.97 1832.92 196.192 1833.53 198.44 C 1833.14 199.425 1832.66 200.234 1831.92 200.988 C 1826.27 206.689 1811.35 204.633 1803.8 204.474 C 1803.9 204.956 1803.99 205.297 1804.04 205.776 C 1804.71 212.405 1796.56 230.688 1792.35 235.594 C 1793.09 238.422 1789.63 245.141 1788.11 247.604 C 1786.71 249.86 1785.08 251.175 1782.52 251.844 C 1779.83 251.05 1779.53 250.516 1777.69 248.339 C 1774.31 236.727 1787.14 220.02 1790.69 208.891 C 1791.29 207.024 1791.7 205.734 1790.74 203.988 C 1784.65 203.595 1777.49 203.646 1771.66 201.858 C 1769.52 201.202 1768.49 200.595 1767.48 198.637 L 1768.16 196.835 C 1770.76 194.224 1773 193.511 1776.45 192.5 z"/>
<path transform="translate(0,0)" fill="rgb(105,69,69)" d="M 1653.14 160.498 C 1656.1 160.007 1658.16 159.721 1660.93 161.133 C 1661.93 162.505 1662.94 163.329 1662.94 165.076 C 1662.9 174.048 1643.66 226.513 1637.41 232.646 C 1646.28 232.185 1659.72 229.727 1667.49 234.471 C 1669.17 237.07 1669.1 237.375 1668.91 240.489 C 1667.17 243.159 1666.1 243.332 1663.24 244.49 C 1654.62 246.11 1642.1 245.638 1633.28 245.073 C 1629.76 244.847 1628.05 243.844 1625.75 241.277 C 1622.38 229.008 1646.83 174.78 1653.14 160.498 z"/>
<path transform="translate(0,0)" fill="rgb(105,69,69)" d="M 1545.36 184.498 C 1545.61 184.453 1545.86 184.405 1546.11 184.363 C 1552.35 183.309 1557.62 183.858 1562.81 187.811 C 1567.89 191.691 1570.08 198.146 1570.85 204.275 C 1572.51 217.472 1567.96 230.792 1559.82 241.146 C 1552.84 250.026 1544.4 255.508 1533.16 256.946 C 1530.25 257.275 1527.58 257.025 1524.75 256.282 C 1519.98 255.032 1515.87 252.176 1513.41 247.866 C 1509.05 240.217 1509.57 230.605 1512 222.435 C 1517.21 204.924 1529.63 192.942 1545.36 184.498 z"/>
<path transform="translate(0,0)" fill="rgb(246,246,227)" d="M 1547.76 197.497 C 1549.58 197.172 1551.46 196.743 1553.14 197.746 C 1555.65 199.243 1557.1 201.168 1557.75 204 C 1559.67 212.298 1555.88 223.119 1551.36 229.985 C 1546.6 237.219 1540.85 242.492 1532.23 244.196 C 1532.05 244.266 1531.89 244.378 1531.7 244.407 C 1529.13 244.809 1528.16 244.289 1526.43 242.675 C 1525.78 239.717 1525.38 236.93 1525.76 233.899 C 1527.65 218.685 1536.04 206.851 1547.76 197.497 z"/>
<path transform="translate(0,0)" fill="rgb(105,69,69)" d="M 1263.91 139.491 C 1281.59 138.591 1302.7 139.07 1319.7 144.353 C 1323.15 145.425 1326.35 146.682 1328.1 150.058 C 1327.92 152.556 1327.74 153.915 1325.77 155.768 C 1325.17 156.328 1323.69 157.33 1322.89 157.552 C 1318.01 158.901 1282.67 155.531 1274.29 155.517 C 1274.02 158.408 1239.59 234.557 1237.36 236.554 C 1236.71 238.965 1235.6 239.786 1233.94 241.514 C 1231.36 241.738 1230.23 241.728 1228.1 239.916 C 1212.93 227.04 1254.96 167.918 1253.86 155.816 C 1244.35 156.584 1222.84 160.324 1214.85 157.068 C 1211.96 155.889 1209.77 154.098 1208.63 151.238 L 1209.97 148.842 C 1222.54 139.64 1248.47 140.582 1263.91 139.491 z"/>
<path transform="translate(0,0)" fill="rgb(105,69,69)" d="M 1313 171.498 C 1319.62 170.921 1326.08 172.27 1331.32 176.534 C 1336.73 180.932 1339.19 187.798 1339.88 194.55 C 1341.15 207.166 1336.73 219.87 1328.75 229.596 C 1321.78 238.09 1313.03 243.838 1302 244.968 C 1297.55 244.979 1293.41 243.743 1289.41 241.833 C 1284.26 239.371 1280.8 235.551 1279 230.115 C 1275.43 219.3 1278.76 206.904 1283.83 197.143 C 1290.32 184.635 1299.54 175.805 1313 171.498 z"/>
<path transform="translate(0,0)" fill="rgb(246,246,227)" d="M 1314.94 188.497 C 1317.84 187.987 1320.95 187.102 1323.73 188.43 C 1325.39 189.225 1326.92 191.481 1327.46 193.184 C 1329.63 200.103 1326.01 209.397 1322.55 215.322 C 1318.52 222.241 1313.15 228.026 1305.2 230.05 C 1304.11 230.679 1302.38 231.076 1301.14 230.904 C 1298.86 230.587 1297.28 229.206 1295.96 227.344 C 1294.16 224.808 1293.97 221.466 1294.5 218.488 C 1296.64 206.482 1305.1 195.21 1314.94 188.497 z"/>
<path transform="translate(0,0)" fill="rgb(105,69,69)" d="M 1452.82 154.497 C 1460.58 152.879 1468.8 155.505 1475.65 159.232 C 1487.84 165.87 1497.97 177.952 1501.64 191.418 C 1504.26 200.985 1503.17 210.447 1498.06 218.996 C 1490.46 231.705 1476.25 239.814 1462.22 243.499 C 1461.68 243.889 1461.62 243.962 1460.91 244.276 C 1453.11 247.734 1432.24 250.32 1424.24 246.128 C 1421.49 244.691 1420.55 242.857 1419.81 239.94 C 1418.88 236.231 1431.71 209.548 1433.84 204.546 C 1438.42 193.791 1443.37 183.002 1447.41 172.043 C 1449.49 166.428 1449.8 159.488 1452.82 154.497 z"/>
<path transform="translate(0,0)" fill="rgb(246,246,227)" d="M 1461.76 169.497 A 11.8609 11.8609 0 0 1 1464.51 169.84 C 1470.98 171.484 1477.48 178.582 1480.88 184.044 C 1483.83 188.78 1486.26 194.02 1484.92 199.656 C 1484.97 199.82 1485.02 199.982 1485.07 200.148 C 1485.93 203.553 1484.22 207.476 1482.52 210.394 C 1477.43 219.132 1467.77 225.435 1458.16 228.018 C 1452.49 231.807 1443.82 232.178 1437.16 232.975 C 1437.32 232.808 1437.47 232.636 1437.64 232.473 C 1443.61 226.467 1460.9 179.084 1461.76 169.497 z"/>
<path transform="translate(0,0)" fill="rgb(105,69,69)" d="M 1194.74 274.471 C 1194.96 274.405 1195.19 274.333 1195.41 274.274 C 1200.97 272.838 1288.3 287.083 1293.81 290.112 C 1295.27 292.072 1295.46 293.548 1295.61 295.905 L 1295.67 296.772 C 1297.72 297.669 1298.95 298.339 1300.43 300.038 C 1298.86 302.858 1294.86 303.943 1292.01 305.201 C 1290.87 313.846 1274.07 370.477 1270.16 375.532 C 1270.58 377.301 1270.47 378.197 1270.07 379.973 C 1269.16 380.823 1268.42 381.442 1267.18 381.749 C 1260.7 383.359 1179.43 368.367 1173.33 365.14 C 1171.59 361.991 1171.95 358.557 1172.47 355.106 C 1173.9 345.577 1177.5 335.917 1180.22 326.637 C 1185.28 309.373 1190.49 291.943 1194.74 274.471 z"/>
<path transform="translate(0,0)" fill="rgb(155,117,109)" d="M 1195.42 290.475 L 1197.36 290.712 C 1200.84 293.284 1229.47 328.768 1230.84 332.858 C 1249.32 327.761 1266.73 314.022 1284.61 308.964 L 1285.61 310.524 C 1285.53 310.759 1285.47 311 1285.38 311.23 C 1283.68 315.451 1278.26 318.991 1274.3 320.86 C 1270.99 325.349 1236.93 347.164 1229.73 351.164 C 1229.69 350.877 1229.66 350.589 1229.6 350.304 C 1228.56 344.458 1197.68 304.604 1192.4 301.198 C 1192.53 301.087 1192.66 300.99 1192.77 300.865 C 1194.8 298.503 1195.32 293.488 1195.42 290.475 z"/>
<path transform="translate(0,0)" fill="rgb(211,206,190)" d="M 1197.8 280.464 C 1204.21 279.009 1280.36 292.002 1289.23 295.386 L 1288.69 296.667 L 1290.04 296.221 C 1290.39 297.493 1290.51 297.052 1290.04 298.142 C 1288.34 302.06 1274.52 306.84 1270.28 308.269 C 1267.48 312.255 1237.65 324.485 1231.4 326.766 C 1231.09 315.938 1198.92 293.686 1197.8 280.464 z"/>
<path transform="translate(0,0)" fill="rgb(211,206,190)" d="M 1191.27 308.474 C 1192.48 308.771 1192.25 308.627 1193.35 309.255 C 1196.38 310.989 1226.59 353.597 1227.65 357.957 C 1234.9 355.411 1276.96 326.796 1279.58 321.336 C 1279.79 321.998 1279.97 322.69 1280.01 323.387 C 1280.26 328.349 1274.96 343.833 1271.69 347.5 C 1271.81 347.928 1272.03 348.616 1272.06 349.097 C 1272.43 354.76 1266.81 372.711 1263.05 376.584 C 1234 369.981 1203.74 365.551 1174.32 360.671 C 1180.12 354.659 1189.77 318.529 1191.27 308.474 z"/>
<path transform="translate(0,0)" fill="rgb(105,69,69)" d="M 1162.51 398.433 C 1163.16 398.376 1163.77 398.338 1164.42 398.343 C 1172.15 398.392 1250.66 411.983 1257.96 414.789 C 1261.77 416.25 1259.31 418.087 1261.18 419.872 C 1262 420.654 1264.31 419.896 1265.99 421.56 L 1265.72 423.735 C 1263.76 426.352 1260.71 427.484 1257.84 428.834 C 1257.8 429.261 1257.78 429.689 1257.72 430.112 C 1255.94 442.188 1242.74 489.961 1237.93 500.507 C 1237.18 502.167 1236.06 503.392 1234.63 504.512 L 1233.61 506.289 C 1228.97 507.551 1146.94 493.289 1140.91 490.053 C 1138.58 488.801 1137.36 487.289 1136.62 484.783 C 1136.68 476.593 1158.13 405.816 1162.51 398.433 z"/>
<path transform="translate(0,0)" fill="rgb(155,117,109)" d="M 1159.84 420.338 C 1160.76 420.485 1161.53 420.603 1162.34 421.103 C 1167.09 424.043 1190.2 453.101 1191.68 458.198 C 1201.31 455.597 1243.89 437.225 1250.22 431.57 C 1251.27 434.199 1250.92 437.911 1249.69 440.436 C 1248.33 443.224 1245.97 444.114 1243.27 445.125 C 1240.25 449.399 1198.74 473.802 1192.09 476.187 C 1188.62 463.049 1161.59 437.966 1159.49 428.021 C 1159.1 426.176 1159.78 422.356 1159.84 420.338 z"/>
<path transform="translate(0,0)" fill="rgb(211,206,190)" d="M 1164.15 405.402 C 1170.51 403.879 1242.92 417.442 1254.51 420.176 L 1255.05 421.922 C 1254.91 422.173 1254.79 422.43 1254.64 422.673 C 1251.9 427.102 1239.17 431.742 1234.17 432.919 C 1231.61 436.925 1200.1 449.372 1193.64 451.896 C 1193.63 451.675 1193.65 451.452 1193.61 451.234 C 1192.51 444.812 1168.57 419.06 1162.46 413.775 C 1164.35 411.171 1164.4 408.493 1164.15 405.402 z"/>
<path transform="translate(0,0)" fill="rgb(211,206,190)" d="M 1156.21 434.251 C 1156.86 434.593 1158.37 435.131 1158.84 435.618 C 1161.71 438.584 1189.34 479.226 1191.12 483.371 C 1197.45 481.17 1241.87 452.844 1245.53 448.414 C 1245.68 448.867 1245.96 449.57 1246.01 450.085 C 1246.53 454.958 1241.3 470.78 1238.1 474.505 C 1238.21 474.967 1238.4 475.668 1238.42 476.176 C 1238.66 481.983 1233.68 497.086 1229.82 501.296 C 1223.9 497.849 1154.18 487.168 1141.62 484.932 C 1146.84 470.123 1154.59 449.765 1156.21 434.251 z"/>
<path transform="translate(0,0)" fill="rgb(105,69,69)" d="M 1374.04 278.497 C 1387.17 276.613 1409.48 281.793 1423.42 283.669 L 1493.7 292.916 L 1692.15 319.012 C 1725.86 323.452 1759.82 327.194 1793.41 332.369 C 1798.85 333.206 1805.28 334.296 1810.04 337.111 C 1810.11 338.193 1810.11 339.267 1809.95 340.341 C 1807.94 353.275 1802.57 366.428 1798.61 378.882 C 1792.8 397.192 1787.38 415.644 1781.79 434.025 L 1753.44 528.767 C 1748.67 544.828 1744.46 561.349 1738.91 577.139 C 1737.75 580.437 1737.21 581.669 1734.34 583.703 L 1733.58 584.375 C 1730.74 585.334 1727.83 584.652 1724.92 584.248 C 1688.99 579.266 1653.04 572.382 1617.21 566.572 L 1443.51 538.76 L 1347.5 523.133 C 1335.91 521.136 1323.78 520.459 1312.35 517.746 C 1307.4 516.571 1303.16 515.035 1300 510.875 C 1301.13 496.877 1366.88 290.653 1374.04 278.497 z"/>
<path transform="translate(0,0)" fill="rgb(211,206,190)" d="M 1381.72 293.494 C 1390.64 291.196 1753.6 341.506 1792.89 346.497 C 1792.95 346.95 1793.11 347.85 1793.1 348.366 C 1792.9 354.886 1780.02 391.157 1777.45 399.652 C 1761.17 453.479 1746.19 508.071 1728.84 561.525 C 1728.01 564.081 1727.36 565.973 1725.27 567.784 L 1723.9 568.808 C 1722.24 568.644 1720.72 568.238 1719.12 567.813 L 1718.42 568.776 C 1714.82 566.092 1342.45 507.149 1314.63 503.63 C 1314.78 503.49 1314.94 503.364 1315.08 503.21 C 1319.17 498.636 1328.98 461.503 1331.83 452.458 L 1366.08 344.547 C 1371.05 329.03 1377.9 312.833 1381.62 297.045 C 1381.9 295.878 1381.85 294.679 1381.72 293.494 z"/>
<path transform="translate(0,0)" fill="rgb(105,69,69)" d="M 1424.69 321.498 C 1426.46 321.528 1428.23 321.597 1429.99 321.81 C 1486.97 328.679 1543.89 339.087 1600.68 347.61 L 1676.98 358.74 C 1693.15 360.995 1709.62 362.745 1725.65 365.813 C 1728.72 366.402 1732.17 366.897 1734.19 369.528 L 1733.66 369.872 C 1733.7 373.062 1732.87 376.369 1732.02 379.432 C 1722.14 415.327 1709.87 450.853 1698.79 486.416 C 1694.71 499.527 1692.33 515.411 1686.18 527.607 C 1684.56 530.818 1683.39 530.982 1680.14 532.062 C 1670.08 532.107 1659.13 529.513 1649.13 528.053 L 1588.22 519.092 L 1452 498.172 C 1426.37 494.157 1399.54 491.381 1374.44 484.82 C 1374.06 484.098 1373.75 483.537 1373.67 482.709 C 1373.29 478.814 1374.66 474.183 1375.67 470.424 C 1379.61 455.742 1418.37 328.971 1424.69 321.498 z"/>
<path transform="translate(0,0)" fill="rgb(155,117,109)" d="M 1425.85 328.495 C 1427.45 328.132 1428.97 327.934 1430.6 328.125 C 1473.06 333.088 1515.67 340.808 1558 347.006 C 1614.29 355.247 1670.96 362.403 1727.08 371.588 C 1727.17 372.217 1727.23 372.506 1727.25 373.104 C 1727.28 374.305 1685.47 513.509 1681.62 523.361 C 1681.19 524.455 1680.41 525.397 1679.63 526.255 C 1674.36 527.135 1638.32 520.208 1629.89 518.961 A 11236.2 11236.2 0 0 1 1483.26 496.804 C 1448.24 491.251 1412.72 484.346 1377.4 481.301 C 1378.34 480.403 1379.38 479.393 1380.02 478.254 C 1384.86 469.683 1390.79 444.538 1394.19 433.742 C 1404.63 400.632 1416.51 367.497 1425.58 334.001 C 1426.12 332.009 1426.4 330.523 1425.85 328.495 z"/>
<path transform="translate(0,0)" fill="rgb(105,69,69)" d="M 1553.62 372.499 C 1564 371.534 1573.66 371.642 1582.75 377.585 A 30.9995 30.9995 0 0 1 1596.12 397.471 C 1597.98 406.814 1595.54 416.565 1590.22 424.379 C 1583.64 434.067 1573.52 439.674 1562.19 441.878 C 1555.04 443.253 1546.46 442.28 1539.82 439.285 C 1532.38 435.924 1527.11 429.794 1524.38 422.14 A 35.1295 35.1295 0 0 1 1525.93 394.61 C 1531.92 382.592 1541.33 376.624 1553.62 372.499 z"/>
<path transform="translate(0,0)" fill="rgb(246,246,227)" d="M 1557.73 377.499 C 1565.76 376.799 1574.49 378.751 1580.84 383.86 A 25.699 25.699 0 0 1 1590.33 401.731 C 1591.06 409.768 1587.98 418.023 1582.85 424.15 C 1576.67 431.529 1568.27 435.288 1558.8 436.089 C 1552.62 436.974 1545.39 435.552 1540.04 432.313 C 1534.35 428.865 1530.82 422.853 1529.37 416.475 C 1527.53 408.369 1529.29 399.879 1533.76 392.924 C 1539.56 383.882 1547.52 379.807 1557.73 377.499 z"/>
</svg>